<svg id="fb1e0800-e36a-4305-ac75-627d8b8af153" data-name="2005 v2" xmlns="http://www.w3.org/2000/svg" xmlns:xlink="http://www.w3.org/1999/xlink" viewBox="0 0 816.86 236.08"><defs><style>.\33 e7c9c0a-984a-47af-8aaf-c4fe3520d6ec,.b993f884-e93a-4909-a7a2-5fc8c46d6c6c{fill:none;}.\38 88cb6d9-f58f-4500-8bd2-8d5bf7206d0d{clip-path:url(#caa0330f-3ef1-47b8-bb6a-0a1ab97e89bb);}.b993f884-e93a-4909-a7a2-5fc8c46d6c6c{stroke:#d9d9d9;stroke-linejoin:round;stroke-width:0.5px;}.\32 cfffa63-73d3-4973-b45e-059b60fd6252{clip-path:url(#86a0e10c-57a3-4573-876d-78a7cf38d756);}.\37 a475484-1d6c-4dbb-bc52-8d71c0d8ffaa{fill:#ff0;}.\39 311d1ef-965e-4daa-8200-59f0dd6e43b2{fill:#ed7d31;}.\39 c8f6006-f64e-493c-ada6-9d7ea0840485{fill:red;}.\39 f736924-06f9-41ea-bd67-d44344a254ba{fill:#4d4d4d;}.\38 e22d89d-29d3-42b5-b5d2-0130958f3f25{font-size:14px;}.\31 97c7a1d-4fe9-47b4-9963-5a54b57d888a,.\33 f73c864-a569-4ce9-8fb1-2e627ca62c1f,.\38 e22d89d-29d3-42b5-b5d2-0130958f3f25,.e37d3a6c-fa5c-4cd4-b68a-6683696d0969{fill:#fff;}.\33 f73c864-a569-4ce9-8fb1-2e627ca62c1f,.\38 e22d89d-29d3-42b5-b5d2-0130958f3f25{font-family:Futura;}.f77eea39-5cbe-4fc9-bdc2-39a1a38f277e{clip-path:url(#2a5cb386-58aa-4543-9adf-9eb9fbf32f57);}.bf0b77cd-00a1-4d9c-8fcb-76d716d1f770{clip-path:url(#57a9f599-9972-4b99-b7ce-ff1fba65961a);}.ac169e60-7830-4d6a-81df-8b2ee80b5544{clip-path:url(#ef17b20e-157f-4832-8ee6-dddea1546e1e);}.\31 c04ff80-3642-43ac-b4a6-ffdf5be66272{clip-path:url(#d57d65d6-10ad-4874-94ac-9f556f946830);}.\31 2b70371-fd93-4726-bda2-aa0afae8ecd4{clip-path:url(#00c6d9df-36cd-40cc-9143-5987fbfaae17);}.\32 9bf5a71-e855-4bb4-9d13-e036d0069b88{clip-path:url(#446eda97-8602-450c-becd-a6f8c1f1ac32);}.\33 f73c864-a569-4ce9-8fb1-2e627ca62c1f{font-size:9px;}.ce629e7c-652d-4878-9d24-f3cbfa3acccf{clip-path:url(#1b086980-5db3-4c43-9125-d361a1a2a095);}.cd41fdea-eb8b-4d53-8e88-6c31efb82db8{clip-path:url(#f9500f8d-fa71-4c08-b9d3-50c7cff1d0ab);}.\37 8003b5e-0b65-4c1d-a351-96cdbdf2ddd5{clip-path:url(#0d4214c7-4d79-4d5f-af0e-3a65f12d83c8);}.cd5a17c1-46f7-496f-802d-abdce76b702c{clip-path:url(#838e7770-7c10-4aee-8876-f8209bb3f19a);}.\33 e3bcae2-51df-418f-8fd4-1176a5463ca2{clip-path:url(#dad8392c-6c93-419b-9596-1d43d8757d53);}.e37d3a6c-fa5c-4cd4-b68a-6683696d0969{font-size:18px;}.\31 97c7a1d-4fe9-47b4-9963-5a54b57d888a,.e37d3a6c-fa5c-4cd4-b68a-6683696d0969{font-family:Futura PT;}.\31 97c7a1d-4fe9-47b4-9963-5a54b57d888a{font-size:10px;}</style><clipPath id="caa0330f-3ef1-47b8-bb6a-0a1ab97e89bb" transform="translate(-261.04 -2948.48)"><rect class="3e7c9c0a-984a-47af-8aaf-c4fe3520d6ec" x="513.47" y="2974.96" width="144" height="215"/></clipPath><clipPath id="86a0e10c-57a3-4573-876d-78a7cf38d756" transform="translate(-261.04 -2948.48)"><rect class="3e7c9c0a-984a-47af-8aaf-c4fe3520d6ec" x="534.47" y="3013.96" width="103" height="152"/></clipPath><clipPath id="2a5cb386-58aa-4543-9adf-9eb9fbf32f57" transform="translate(-261.04 -2948.48)"><rect class="3e7c9c0a-984a-47af-8aaf-c4fe3520d6ec" x="682.93" y="2975.46" width="144" height="215"/></clipPath><clipPath id="57a9f599-9972-4b99-b7ce-ff1fba65961a" transform="translate(-261.04 -2948.48)"><rect class="3e7c9c0a-984a-47af-8aaf-c4fe3520d6ec" x="703.93" y="3014.46" width="103" height="152"/></clipPath><clipPath id="ef17b20e-157f-4832-8ee6-dddea1546e1e" transform="translate(-261.04 -2948.48)"><rect class="3e7c9c0a-984a-47af-8aaf-c4fe3520d6ec" x="850.9" y="2975.46" width="145" height="215"/></clipPath><clipPath id="d57d65d6-10ad-4874-94ac-9f556f946830" transform="translate(-261.04 -2948.48)"><rect class="3e7c9c0a-984a-47af-8aaf-c4fe3520d6ec" x="872.9" y="3014.46" width="103" height="152"/></clipPath><clipPath id="00c6d9df-36cd-40cc-9143-5987fbfaae17" transform="translate(-261.04 -2948.48)"><rect class="3e7c9c0a-984a-47af-8aaf-c4fe3520d6ec" x="345.65" y="2974.96" width="145" height="216"/></clipPath><clipPath id="446eda97-8602-450c-becd-a6f8c1f1ac32" transform="translate(-261.04 -2948.48)"><rect class="3e7c9c0a-984a-47af-8aaf-c4fe3520d6ec" x="366.65" y="3012.96" width="104" height="154"/></clipPath><clipPath id="1b086980-5db3-4c43-9125-d361a1a2a095" transform="translate(-261.04 -2948.48)"><rect class="3e7c9c0a-984a-47af-8aaf-c4fe3520d6ec" x="287" y="2974.96" width="145" height="216"/></clipPath><clipPath id="f9500f8d-fa71-4c08-b9d3-50c7cff1d0ab" transform="translate(-261.04 -2948.48)"><rect class="3e7c9c0a-984a-47af-8aaf-c4fe3520d6ec" x="268.09" y="2974.96" width="145" height="216"/></clipPath><clipPath id="0d4214c7-4d79-4d5f-af0e-3a65f12d83c8" transform="translate(-261.04 -2948.48)"><rect class="3e7c9c0a-984a-47af-8aaf-c4fe3520d6ec" x="273.09" y="2974.96" width="145" height="216"/></clipPath><clipPath id="838e7770-7c10-4aee-8876-f8209bb3f19a" transform="translate(-261.04 -2948.48)"><rect class="3e7c9c0a-984a-47af-8aaf-c4fe3520d6ec" x="253.65" y="2974.96" width="145" height="216"/></clipPath><clipPath id="dad8392c-6c93-419b-9596-1d43d8757d53" transform="translate(-261.04 -2948.48)"><rect class="3e7c9c0a-984a-47af-8aaf-c4fe3520d6ec" x="300.65" y="2974.96" width="145" height="216"/></clipPath></defs><title>pt2_graph1</title><g class="888cb6d9-f58f-4500-8bd2-8d5bf7206d0d"><path class="b993f884-e93a-4909-a7a2-5fc8c46d6c6c" d="M586,3014.46v152" transform="translate(-261.04 -2948.48)"/></g><g class="2cfffa63-73d3-4973-b45e-059b60fd6252"><rect class="7a475484-1d6c-4dbb-bc52-8d71c0d8ffaa" x="273.43" y="199.48" width="78" height="11"/></g><g class="2cfffa63-73d3-4973-b45e-059b60fd6252"><rect class="7a475484-1d6c-4dbb-bc52-8d71c0d8ffaa" x="273.43" y="174.48" width="82" height="10"/></g><g class="2cfffa63-73d3-4973-b45e-059b60fd6252"><rect class="9311d1ef-965e-4daa-8200-59f0dd6e43b2" x="273.43" y="149.48" width="51" height="10"/></g><g class="2cfffa63-73d3-4973-b45e-059b60fd6252"><rect class="9311d1ef-965e-4daa-8200-59f0dd6e43b2" x="273.43" y="124.48" width="55" height="10"/></g><g class="2cfffa63-73d3-4973-b45e-059b60fd6252"><rect class="9c8f6006-f64e-493c-ada6-9d7ea0840485" x="273.43" y="98.48" width="29" height="10"/></g><g class="2cfffa63-73d3-4973-b45e-059b60fd6252"><rect class="9c8f6006-f64e-493c-ada6-9d7ea0840485" x="273.43" y="73.48" width="31" height="10"/></g><g class="2cfffa63-73d3-4973-b45e-059b60fd6252"><path class="9f736924-06f9-41ea-bd67-d44344a254ba" d="M739.47,3032h-174v-10h174v10Zm0,25h-176v-10h176v10Zm0,26h-150v-10h150v10Zm0,25h-154v-10h154v10Zm0,25h-123v-10h123v10Zm0,26h-127v-11h127v11Z" transform="translate(-261.04 -2948.48)"/></g><g class="888cb6d9-f58f-4500-8bd2-8d5bf7206d0d"><text class="8e22d89d-29d3-42b5-b5d2-0130958f3f25" transform="translate(305.9 49.48)">200<tspan x="26.97" y="0">5</tspan></text></g><g class="f77eea39-5cbe-4fc9-bdc2-39a1a38f277e"><path class="b993f884-e93a-4909-a7a2-5fc8c46d6c6c" d="M755.43,3015v152" transform="translate(-261.04 -2948.48)"/></g><g class="bf0b77cd-00a1-4d9c-8fcb-76d716d1f770"><rect class="7a475484-1d6c-4dbb-bc52-8d71c0d8ffaa" x="443.89" y="199.98" width="82" height="11"/></g><g class="bf0b77cd-00a1-4d9c-8fcb-76d716d1f770"><rect class="7a475484-1d6c-4dbb-bc52-8d71c0d8ffaa" x="443.89" y="174.98" width="88" height="10"/></g><g class="bf0b77cd-00a1-4d9c-8fcb-76d716d1f770"><rect class="9311d1ef-965e-4daa-8200-59f0dd6e43b2" x="443.89" y="149.98" width="59" height="10"/></g><g class="bf0b77cd-00a1-4d9c-8fcb-76d716d1f770"><rect class="9311d1ef-965e-4daa-8200-59f0dd6e43b2" x="443.89" y="124.98" width="71" height="10"/></g><g class="bf0b77cd-00a1-4d9c-8fcb-76d716d1f770"><rect class="9c8f6006-f64e-493c-ada6-9d7ea0840485" x="443.89" y="98.98" width="28" height="10"/></g><g class="bf0b77cd-00a1-4d9c-8fcb-76d716d1f770"><rect class="9c8f6006-f64e-493c-ada6-9d7ea0840485" x="443.89" y="73.98" width="41" height="10"/></g><g class="bf0b77cd-00a1-4d9c-8fcb-76d716d1f770"><path class="9f736924-06f9-41ea-bd67-d44344a254ba" d="M909.93,3032.46h-164v-10h164v10Zm0,25h-177v-10h177v10Zm0,26h-134v-10h134v10Zm0,25h-146v-10h146v10Zm0,25h-117v-10h117v10Zm0,26h-123v-11h123v11Z" transform="translate(-261.04 -2948.48)"/></g><g class="f77eea39-5cbe-4fc9-bdc2-39a1a38f277e"><text class="8e22d89d-29d3-42b5-b5d2-0130958f3f25" transform="translate(476.91 49.98)">2<tspan x="8.99" y="0">01</tspan><tspan x="24.98" y="0">0</tspan></text></g><g class="ac169e60-7830-4d6a-81df-8b2ee80b5544"><path class="b993f884-e93a-4909-a7a2-5fc8c46d6c6c" d="M924.4,3015v152" transform="translate(-261.04 -2948.48)"/></g><g class="1c04ff80-3642-43ac-b4a6-ffdf5be66272"><rect class="7a475484-1d6c-4dbb-bc52-8d71c0d8ffaa" x="611.86" y="199.98" width="90" height="10"/></g><g class="1c04ff80-3642-43ac-b4a6-ffdf5be66272"><rect class="7a475484-1d6c-4dbb-bc52-8d71c0d8ffaa" x="611.86" y="174.98" width="100" height="10"/></g><g class="1c04ff80-3642-43ac-b4a6-ffdf5be66272"><rect class="9311d1ef-965e-4daa-8200-59f0dd6e43b2" x="611.86" y="149.98" width="66" height="10"/></g><g class="1c04ff80-3642-43ac-b4a6-ffdf5be66272"><rect class="9311d1ef-965e-4daa-8200-59f0dd6e43b2" x="611.86" y="123.98" width="61" height="11"/></g><g class="1c04ff80-3642-43ac-b4a6-ffdf5be66272"><rect class="9c8f6006-f64e-493c-ada6-9d7ea0840485" x="611.86" y="98.98" width="33" height="10"/></g><g class="1c04ff80-3642-43ac-b4a6-ffdf5be66272"><rect class="9c8f6006-f64e-493c-ada6-9d7ea0840485" x="611.86" y="73.98" width="45" height="10"/></g><g class="1c04ff80-3642-43ac-b4a6-ffdf5be66272"><path class="9f736924-06f9-41ea-bd67-d44344a254ba" d="M1077.9,3032.46h-160v-10h160v10Zm0,25h-172v-10h172v10Zm0,26h-144v-11h144v11Zm0,25h-139v-10h139v10Zm0,25h-105v-10h105v10Zm0,25h-115v-10h115v10Z" transform="translate(-261.04 -2948.48)"/></g><g class="ac169e60-7830-4d6a-81df-8b2ee80b5544"><text class="8e22d89d-29d3-42b5-b5d2-0130958f3f25" transform="translate(645.27 49.98)">2<tspan x="8.99" y="0">01</tspan><tspan x="24.98" y="0">6</tspan></text></g><g class="12b70371-fd93-4726-bda2-aa0afae8ecd4"><path class="b993f884-e93a-4909-a7a2-5fc8c46d6c6c" d="M419.15,3013.46v153" transform="translate(-261.04 -2948.48)"/></g><g class="29bf5a71-e855-4bb4-9d13-e036d0069b88"><rect class="7a475484-1d6c-4dbb-bc52-8d71c0d8ffaa" x="106.61" y="200.48" width="68" height="10"/></g><g class="29bf5a71-e855-4bb4-9d13-e036d0069b88"><rect class="7a475484-1d6c-4dbb-bc52-8d71c0d8ffaa" x="106.61" y="175.48" width="63" height="10"/></g><g class="29bf5a71-e855-4bb4-9d13-e036d0069b88"><rect class="9311d1ef-965e-4daa-8200-59f0dd6e43b2" x="106.61" y="149.48" width="49" height="10"/></g><g class="29bf5a71-e855-4bb4-9d13-e036d0069b88"><rect class="9311d1ef-965e-4daa-8200-59f0dd6e43b2" x="106.61" y="124.48" width="57" height="10"/></g><g class="29bf5a71-e855-4bb4-9d13-e036d0069b88"><rect class="9c8f6006-f64e-493c-ada6-9d7ea0840485" x="106.61" y="98.48" width="29" height="10"/></g><g class="29bf5a71-e855-4bb4-9d13-e036d0069b88"><rect class="9c8f6006-f64e-493c-ada6-9d7ea0840485" x="106.61" y="73.48" width="33" height="10"/></g><g class="29bf5a71-e855-4bb4-9d13-e036d0069b88"><path class="9f736924-06f9-41ea-bd67-d44344a254ba" d="M572.65,3032h-172v-10h172v10Zm0,25h-176v-10h176v10Zm0,26h-148v-10h148v10Zm0,25h-156v-10h156v10Zm0,26h-142v-10h142v10Zm0,25h-137v-10h137v10Z" transform="translate(-261.04 -2948.48)"/></g><g class="12b70371-fd93-4726-bda2-aa0afae8ecd4"><text class="3f73c864-a569-4ce9-8fb1-2e627ca62c1f" transform="translate(99.61 233.48)">0<tspan x="6" y="0">%</tspan></text></g><g class="12b70371-fd93-4726-bda2-aa0afae8ecd4"><text class="3f73c864-a569-4ce9-8fb1-2e627ca62c1f" transform="translate(148.07 233.48)">2<tspan x="6" y="0">5</tspan><tspan x="11" y="0">%</tspan></text></g><g class="12b70371-fd93-4726-bda2-aa0afae8ecd4"><text class="3f73c864-a569-4ce9-8fb1-2e627ca62c1f" transform="translate(199.3 233.48)">5<tspan x="6" y="0">0</tspan><tspan x="11" y="0">%</tspan></text></g><g class="ce629e7c-652d-4878-9d24-f3cbfa3acccf"><text class="3f73c864-a569-4ce9-8fb1-2e627ca62c1f" transform="translate(33.35 208.48)">NYU Humanities</text></g><g class="cd41fdea-eb8b-4d53-8e88-6c31efb82db8"><text class="3f73c864-a569-4ce9-8fb1-2e627ca62c1f" transform="translate(14.44 182.48)">Columbia Humanities</text></g><g class="78003b5e-0b65-4c1d-a351-96cdbdf2ddd5"><text class="3f73c864-a569-4ce9-8fb1-2e627ca62c1f" transform="translate(19.44 157.48)">NYU Social Science</text></g><g class="cd5a17c1-46f7-496f-802d-abdce76b702c"><text class="3f73c864-a569-4ce9-8fb1-2e627ca62c1f" transform="translate(0 131.48)">Columbia Social Science</text></g><g class="3e3bcae2-51df-418f-8fd4-1176a5463ca2"><text class="3f73c864-a569-4ce9-8fb1-2e627ca62c1f" transform="translate(47 106.48)">NYU Science</text></g><g class="12b70371-fd93-4726-bda2-aa0afae8ecd4"><text class="8e22d89d-29d3-42b5-b5d2-0130958f3f25" transform="translate(138.92 49.48)">200<tspan x="26.97" y="0">0</tspan></text></g><text class="e37d3a6c-fa5c-4cd4-b68a-6683696d0969" transform="translate(67.55 15)">P<tspan x="8.46" y="0">e</tspan><tspan x="17.14" y="0">r</tspan><tspan x="22.55" y="0">centage of </tspan><tspan x="102.42" y="0">T</tspan><tspan x="109.4" y="0">enu</tspan><tspan x="135.52" y="0">r</tspan><tspan x="140.94" y="0">e</tspan><tspan x="150.55" y="0">-eligible or </tspan><tspan x="232.99" y="0">T</tspan><tspan x="239.97" y="0">enu</tspan><tspan x="266.09" y="0">r</tspan><tspan x="271.51" y="0">ed </tspan><tspan x="293.92" y="0">F</tspan><tspan x="301.66" y="0">emale </tspan><tspan x="349.37" y="0">F</tspan><tspan x="357.02" y="0">acul</tspan><tspan x="386.83" y="0">t</tspan><tspan x="391.55" y="0">y </tspan><tspan x="404.42" y="0">b</tspan><tspan x="413.78" y="0">y Discipline, NYU &amp; Columbia </tspan></text><text class="197c7a1d-4fe9-47b4-9963-5a54b57d888a" transform="translate(28.96 79.75)">Columbia Science</text></svg>