<svg id="6d992c17-7be2-46c3-b128-fa4c0a95680c" data-name="board 3" xmlns="http://www.w3.org/2000/svg" viewBox="0 0 613.7 806.76"><defs><style>.f4df2d5f-c0d6-4040-b1b7-53199970b93c{fill:#4d4d4d;}.\33 1834fb9-8355-44f4-8370-128ec3864818{fill:#ff0;}.\34 4b78837-2c12-4c96-a8b2-b43bc2984a1e{fill:#f7931e;}.\37 7eff788-604b-47db-bfcf-c375a35d2ad9{fill:#f15a24;}.\35 88e5db6-8041-434c-ae8c-bf6cbaf306cb{fill:#d4145a;}.\33 5524169-4edc-4127-9e63-d901dc65cbfe{font-size:18px;fill:#fff;font-family:Futura PT;}.\37 7683e7e-cea5-4916-8acf-982b4ac76980{letter-spacing:-2px;}.\34 73cc437-7624-44b9-b8d4-935d556ab51c{letter-spacing:-1px;}</style></defs><title>pt2_graph2</title><path class="f4df2d5f-c0d6-4040-b1b7-53199970b93c" d="M130.77,1923.94l1.51,43.29a43.31,43.31,0,1,1-3-86.57l1.51,0v43.31Z" transform="translate(-25.01 -1790)"/><path class="f4df2d5f-c0d6-4040-b1b7-53199970b93c" d="M257.82,1924.31l41.63,11.94A43.31,43.31,0,1,1,257.82,1881v43.31Z" transform="translate(-25.01 -1790)"/><path class="f4df2d5f-c0d6-4040-b1b7-53199970b93c" d="M384.82,1924.31l22.31-37.13A43.31,43.31,0,1,1,347.69,1902a42.59,42.59,0,0,1,37.13-21v43.31Z" transform="translate(-25.01 -1790)"/><path class="f4df2d5f-c0d6-4040-b1b7-53199970b93c" d="M511.82,1924.31l21-37.88a43.31,43.31,0,1,1-58.88,16.88A42.77,42.77,0,0,1,511.82,1881v43.31Z" transform="translate(-25.01 -1790)"/><path class="31834fb9-8355-44f4-8370-128ec3864818" d="M130.77,1923.94v-43.31a43.31,43.31,0,0,1,1.51,86.6Z" transform="translate(-25.01 -1790)"/><path class="44b78837-2c12-4c96-a8b2-b43bc2984a1e" d="M257.82,1924.31V1881a43.31,43.31,0,0,1,43.31,43.31,38.94,38.94,0,0,1-1.68,11.94Z" transform="translate(-25.01 -1790)"/><path class="77eff788-604b-47db-bfcf-c375a35d2ad9" d="M384.82,1924.31V1881a40.54,40.54,0,0,1,22.31,6.19Z" transform="translate(-25.01 -1790)"/><path class="588e5db6-8041-434c-ae8c-bf6cbaf306cb" d="M511.82,1924.31V1881a40.18,40.18,0,0,1,21,5.43Z" transform="translate(-25.01 -1790)"/><path class="f4df2d5f-c0d6-4040-b1b7-53199970b93c" d="M130.39,2175.88L120,2217.48A42.87,42.87,0,0,1,130.39,2133v42.88Z" transform="translate(-25.01 -1790)"/><path class="f4df2d5f-c0d6-4040-b1b7-53199970b93c" d="M257.38,2175.57l23.35,36a42.87,42.87,0,1,1-46.7-71.92,41.74,41.74,0,0,1,23.35-6.92v42.88Z" transform="translate(-25.01 -1790)"/><path class="f4df2d5f-c0d6-4040-b1b7-53199970b93c" d="M385,2176l42.56,3A42.66,42.66,0,1,1,385,2133.34V2176Z" transform="translate(-25.01 -1790)"/><path class="f4df2d5f-c0d6-4040-b1b7-53199970b93c" d="M511.38,2175.57l27-33.32a42.87,42.87,0,1,1-60.3,6.34,41.93,41.93,0,0,1,33.32-15.89v42.88Z" transform="translate(-25.01 -1790)"/><path class="31834fb9-8355-44f4-8370-128ec3864818" d="M130.39,2175.88V2133a42.88,42.88,0,1,1,0,85.75,39.59,39.59,0,0,1-10.37-1.27Z" transform="translate(-25.01 -1790)"/><path class="44b78837-2c12-4c96-a8b2-b43bc2984a1e" d="M257.38,2175.57v-42.87a42.87,42.87,0,0,1,42.88,42.88c0,15.15-6.81,27.7-19.52,36Z" transform="translate(-25.01 -1790)"/><path class="77eff788-604b-47db-bfcf-c375a35d2ad9" d="M385,2176v-42.66A42.66,42.66,0,0,1,427.66,2176c0,1.18,0,1.8-.1,3Z" transform="translate(-25.01 -1790)"/><path class="588e5db6-8041-434c-ae8c-bf6cbaf306cb" d="M511.38,2175.57v-42.87a40.57,40.57,0,0,1,27,9.55Z" transform="translate(-25.01 -1790)"/><text class="35524169-4edc-4127-9e63-d901dc65cbfe" transform="translate(0 15)">P<tspan x="8.46" y="0">e</tspan><tspan x="17.14" y="0">r</tspan><tspan x="22.55" y="0">centage of </tspan><tspan x="102.42" y="0">W</tspan><tspan x="118.8" y="0">omen in t</tspan><tspan x="183.85" y="0">h</tspan><tspan x="192.4" y="0">e Sciences in Each L</tspan><tspan x="333.48" y="0">e</tspan><tspan x="341.96" y="0">v</tspan><tspan x="349.81" y="0">el of t</tspan><tspan x="389.62" y="0">h</tspan><tspan x="398.17" y="0">e Academic Ladde</tspan><tspan x="530.94" y="0">r</tspan><tspan x="536.16" y="0">, Columbia</tspan></text><text class="35524169-4edc-4127-9e63-d901dc65cbfe" transform="translate(3.98 139.08)"><tspan class="77683e7e-cea5-4916-8acf-982b4ac76980">1</tspan><tspan x="7.74" y="0">990</tspan></text><text class="35524169-4edc-4127-9e63-d901dc65cbfe" transform="translate(47.67 71)">Unde<tspan x="38.72" y="0">r</tspan><tspan x="44.14" y="0">g</tspan><tspan x="53.68" y="0">r</tspan><tspan x="59.27" y="0">aduates</tspan></text><text class="35524169-4edc-4127-9e63-d901dc65cbfe" transform="translate(181.47 71)">G<tspan x="13.46" y="0">r</tspan><tspan x="19.06" y="0">ad Students</tspan></text><text class="35524169-4edc-4127-9e63-d901dc65cbfe" transform="translate(304.48 48.95)">T<tspan x="6.98" y="0">enu</tspan><tspan x="33.1" y="0">r</tspan><tspan x="38.52" y="0">e</tspan><tspan x="48.13" y="0">-eligible </tspan><tspan x="30" y="21.6">F</tspan><tspan x="37.65" y="21.6">acul</tspan><tspan x="67.46" y="21.6">t</tspan><tspan x="72.18" y="21.6">y</tspan></text><text class="35524169-4edc-4127-9e63-d901dc65cbfe" transform="translate(432.1 71)">T<tspan x="6.98" y="0">enu</tspan><tspan x="33.1" y="0">r</tspan><tspan x="38.52" y="0">ed </tspan><tspan x="60.93" y="0">F</tspan><tspan x="68.58" y="0">acul</tspan><tspan x="98.39" y="0">t</tspan><tspan x="103.1" y="0">y</tspan></text><path class="f4df2d5f-c0d6-4040-b1b7-53199970b93c" d="M131.57,2049.88l-0.75,42.87a42.88,42.88,0,0,1,.75-85.74v42.88Z" transform="translate(-25.01 -1790)"/><path class="f4df2d5f-c0d6-4040-b1b7-53199970b93c" d="M258,2050l37.13,21.44a42.88,42.88,0,1,1-74.26-42.87A41.92,41.92,0,0,1,258,2007.12V2050Z" transform="translate(-25.01 -1790)"/><path class="f4df2d5f-c0d6-4040-b1b7-53199970b93c" d="M385,2050l42.64-4.48a42.87,42.87,0,1,1-47.12-38.16,42.35,42.35,0,0,1,4.48-.23V2050Z" transform="translate(-25.01 -1790)"/><path class="f4df2d5f-c0d6-4040-b1b7-53199970b93c" d="M512,2050l27.56-32.84a42.88,42.88,0,1,1-60.4,5.28A41.7,41.7,0,0,1,512,2007.12V2050Z" transform="translate(-25.01 -1790)"/><path class="31834fb9-8355-44f4-8370-128ec3864818" d="M131.57,2049.88V2007a42.88,42.88,0,1,1,0,85.75h-0.75Z" transform="translate(-25.01 -1790)"/><path class="44b78837-2c12-4c96-a8b2-b43bc2984a1e" d="M258,2050v-42.87A42.88,42.88,0,0,1,300.88,2050a40.64,40.64,0,0,1-5.74,21.44Z" transform="translate(-25.01 -1790)"/><path class="77eff788-604b-47db-bfcf-c375a35d2ad9" d="M385,2050v-42.87a42.56,42.56,0,0,1,42.64,38.39Z" transform="translate(-25.01 -1790)"/><path class="588e5db6-8041-434c-ae8c-bf6cbaf306cb" d="M512,2050v-42.87a40.87,40.87,0,0,1,27.56,10Z" transform="translate(-25.01 -1790)"/><text class="35524169-4edc-4127-9e63-d901dc65cbfe" transform="translate(1.31 265.21)">2000</text><text class="35524169-4edc-4127-9e63-d901dc65cbfe" transform="translate(1.31 391.1)">2005</text><path class="f4df2d5f-c0d6-4040-b1b7-53199970b93c" d="M130.39,2301.88L120,2343.48A42.87,42.87,0,0,1,130.39,2259v42.88Z" transform="translate(-25.01 -1790)"/><path class="f4df2d5f-c0d6-4040-b1b7-53199970b93c" d="M258,2302l23.35,36a42.87,42.87,0,1,1-46.7-71.92,41.74,41.74,0,0,1,23.35-6.92V2302Z" transform="translate(-25.01 -1790)"/><path class="f4df2d5f-c0d6-4040-b1b7-53199970b93c" d="M385,2302l25.2,34.69a42.87,42.87,0,1,1-50.4-69.37,41.08,41.08,0,0,1,25.2-8.19V2302Z" transform="translate(-25.01 -1790)"/><path class="f4df2d5f-c0d6-4040-b1b7-53199970b93c" d="M511.78,2302l32.84-27.56a42.88,42.88,0,1,1-60.4-5.28,41.57,41.57,0,0,1,27.56-10V2302Z" transform="translate(-25.01 -1790)"/><path class="31834fb9-8355-44f4-8370-128ec3864818" d="M130.39,2301.88V2259a42.88,42.88,0,1,1,0,85.75,39.59,39.59,0,0,1-10.37-1.27Z" transform="translate(-25.01 -1790)"/><path class="44b78837-2c12-4c96-a8b2-b43bc2984a1e" d="M258,2302v-42.87A42.87,42.87,0,0,1,300.88,2302c0,15.15-6.81,27.7-19.52,36Z" transform="translate(-25.01 -1790)"/><path class="77eff788-604b-47db-bfcf-c375a35d2ad9" d="M385,2302v-42.87A42.88,42.88,0,0,1,427.88,2302a41.58,41.58,0,0,1-17.67,34.69Z" transform="translate(-25.01 -1790)"/><path class="588e5db6-8041-434c-ae8c-bf6cbaf306cb" d="M511.78,2302v-42.87a41.16,41.16,0,0,1,32.84,15.32Z" transform="translate(-25.01 -1790)"/><text class="35524169-4edc-4127-9e63-d901dc65cbfe" transform="translate(4.48 516.91)">2<tspan class="473cc437-7624-44b9-b8d4-935d556ab51c" x="10.22" y="0">0</tspan><tspan class="473cc437-7624-44b9-b8d4-935d556ab51c" x="18.88" y="0">1</tspan><tspan x="27.76" y="0">0</tspan></text><path class="f4df2d5f-c0d6-4040-b1b7-53199970b93c" d="M130.38,2427.88l3,42.77a42.88,42.88,0,0,1-6-85.54c0.94-.07,2-0.1,3-0.1v42.88Z" transform="translate(-25.01 -1790)"/><path class="f4df2d5f-c0d6-4040-b1b7-53199970b93c" d="M258,2428l23.35,36a42.87,42.87,0,1,1-46.7-71.92,41.74,41.74,0,0,1,23.35-6.92V2428Z" transform="translate(-25.01 -1790)"/><path class="f4df2d5f-c0d6-4040-b1b7-53199970b93c" d="M385,2428l42.46-6A42.87,42.87,0,1,1,379,2385.54a45.18,45.18,0,0,1,6-.42V2428Z" transform="translate(-25.01 -1790)"/><path class="f4df2d5f-c0d6-4040-b1b7-53199970b93c" d="M512,2428l39.75-16.06a42.87,42.87,0,1,1-55.81-23.69,41.55,41.55,0,0,1,16.06-3.12V2428Z" transform="translate(-25.01 -1790)"/><path class="31834fb9-8355-44f4-8370-128ec3864818" d="M130.38,2427.88V2385a42.88,42.88,0,0,1,3,85.65Z" transform="translate(-25.01 -1790)"/><path class="44b78837-2c12-4c96-a8b2-b43bc2984a1e" d="M258,2428v-42.87A42.87,42.87,0,0,1,300.88,2428c0,15.15-6.81,27.7-19.52,36Z" transform="translate(-25.01 -1790)"/><path class="77eff788-604b-47db-bfcf-c375a35d2ad9" d="M385,2428v-42.87A42.27,42.27,0,0,1,427.46,2422Z" transform="translate(-25.01 -1790)"/><path class="588e5db6-8041-434c-ae8c-bf6cbaf306cb" d="M512,2428v-42.87c18,0,33,10.13,39.75,26.81Z" transform="translate(-25.01 -1790)"/><text class="35524169-4edc-4127-9e63-d901dc65cbfe" transform="translate(4.96 643.22)">2<tspan class="473cc437-7624-44b9-b8d4-935d556ab51c" x="10.22" y="0">0</tspan><tspan class="473cc437-7624-44b9-b8d4-935d556ab51c" x="18.88" y="0">1</tspan><tspan x="27.31" y="0">3</tspan></text><path class="f4df2d5f-c0d6-4040-b1b7-53199970b93c" d="M385.1,2553.88l40.78-13.25a42.88,42.88,0,1,1-54-27.53,40.76,40.76,0,0,1,13.25-2.1v42.88Z" transform="translate(-25.01 -1790)"/><path class="f4df2d5f-c0d6-4040-b1b7-53199970b93c" d="M511.39,2553.88l41.41-11.1a42.88,42.88,0,1,1-52.51-30.32,42.41,42.41,0,0,1,11.1-1.46v42.88Z" transform="translate(-25.01 -1790)"/><path class="77eff788-604b-47db-bfcf-c375a35d2ad9" d="M385.1,2553.88V2511a42.2,42.2,0,0,1,40.78,29.63Z" transform="translate(-25.01 -1790)"/><path class="588e5db6-8041-434c-ae8c-bf6cbaf306cb" d="M511.39,2553.88V2511c19.89,0,36.27,12.57,41.41,31.78Z" transform="translate(-25.01 -1790)"/><text class="35524169-4edc-4127-9e63-d901dc65cbfe" transform="translate(5.07 769.18)">2<tspan class="473cc437-7624-44b9-b8d4-935d556ab51c" x="10.22" y="0">0</tspan><tspan class="77683e7e-cea5-4916-8acf-982b4ac76980" x="18.88" y="0">1</tspan><tspan x="27.07" y="0">5</tspan></text></svg>