<svg id="slide_7" data-name="slide 7" xmlns="http://www.w3.org/2000/svg" xmlns:xlink="http://www.w3.org/1999/xlink" viewBox="0 0 820.87 221.08"><defs><style>.cls-1,.cls-3{fill:none;}.cls-2{clip-path:url(#clip-path);}.cls-3{stroke:#d9d9d9;stroke-linejoin:round;stroke-width:0.48px;}.cls-4{clip-path:url(#clip-path-2);}.cls-5{fill:#ff0;}.cls-6{fill:#ed7d31;}.cls-7{fill:#d4145a;}.cls-8{fill:#4d4d4d;}.cls-9{fill:#fff;}.cls-10{clip-path:url(#clip-path-10);}.cls-11{clip-path:url(#clip-path-11);}.cls-12{clip-path:url(#clip-path-19);}.cls-13{clip-path:url(#clip-path-20);}.cls-14{clip-path:url(#clip-path-28);}.cls-15{clip-path:url(#clip-path-29);}.cls-16{clip-path:url(#clip-path-39);}.cls-17{clip-path:url(#clip-path-40);}.cls-18{clip-path:url(#clip-path-41);}.cls-19{clip-path:url(#clip-path-42);}.cls-20{clip-path:url(#clip-path-43);}</style><clipPath id="clip-path" transform="translate(-121.39 -5384.83)"><rect class="cls-1" x="404.31" y="5408.47" width="137.25" height="204.92"/></clipPath><clipPath id="clip-path-2" transform="translate(-121.39 -5384.83)"><rect class="cls-1" x="424.32" y="5445.64" width="98.17" height="144.87"/></clipPath><clipPath id="clip-path-10" transform="translate(-121.39 -5384.83)"><rect class="cls-1" x="565.82" y="5408.94" width="137.25" height="204.92"/></clipPath><clipPath id="clip-path-11" transform="translate(-121.39 -5384.83)"><rect class="cls-1" x="585.83" y="5446.11" width="98.17" height="144.87"/></clipPath><clipPath id="clip-path-19" transform="translate(-121.39 -5384.83)"><rect class="cls-1" x="725.91" y="5408.94" width="138.2" height="204.92"/></clipPath><clipPath id="clip-path-20" transform="translate(-121.39 -5384.83)"><rect class="cls-1" x="746.88" y="5446.11" width="98.17" height="144.87"/></clipPath><clipPath id="clip-path-28" transform="translate(-121.39 -5384.83)"><rect class="cls-1" x="244.36" y="5408.47" width="138.2" height="205.87"/></clipPath><clipPath id="clip-path-29" transform="translate(-121.39 -5384.83)"><rect class="cls-1" x="264.38" y="5444.68" width="99.12" height="146.78"/></clipPath><clipPath id="clip-path-39" transform="translate(-121.39 -5384.83)"><rect class="cls-1" x="158.46" y="5408.47" width="138.2" height="205.87"/></clipPath><clipPath id="clip-path-40" transform="translate(-121.39 -5384.83)"><rect class="cls-1" x="111.61" y="5408.47" width="174.03" height="205.87"/></clipPath><clipPath id="clip-path-41" transform="translate(-121.39 -5384.83)"><rect class="cls-1" x="110.61" y="5408.47" width="180.79" height="205.87"/></clipPath><clipPath id="clip-path-42" transform="translate(-121.39 -5384.83)"><rect class="cls-1" x="88.19" y="5408.47" width="168.68" height="201.07"/></clipPath><clipPath id="clip-path-43" transform="translate(-121.39 -5384.83)"><rect class="cls-1" x="177.47" y="5408.47" width="138.2" height="205.87"/></clipPath></defs><title>pt2_graph1</title><g class="cls-2"><path class="cls-3" d="M473.41,5446.11V5591" transform="translate(-121.39 -5384.83)"/></g><g class="cls-4"><rect class="cls-5" x="302.93" y="188.52" width="74.34" height="10.48"/></g><g class="cls-4"><rect class="cls-5" x="302.93" y="164.69" width="78.15" height="9.53"/></g><g class="cls-4"><rect class="cls-6" x="302.93" y="140.86" width="48.61" height="9.53"/></g><g class="cls-4"><rect class="cls-6" x="302.93" y="117.04" width="52.42" height="9.53"/></g><g class="cls-4"><rect class="cls-7" x="302.93" y="92.25" width="27.64" height="9.53"/></g><g class="cls-4"><rect class="cls-7" x="302.93" y="68.43" width="29.55" height="9.53"/></g><g class="cls-4"><path class="cls-8" d="M619.71,5462.79H453.87v-9.53H619.71v9.53Zm0,23.83H452v-9.53H619.71v9.53Zm0,24.78h-143v-9.53h143v9.53Zm0,23.83H472.93v-9.53H619.71v9.53Zm0,23.83H502.48v-9.53H619.71v9.53Zm0,24.78h-121v-10.48h121v10.48Z" transform="translate(-121.39 -5384.83)"/></g><g class="cls-2"><path class="cls-9" d="M462,5430.39h-6.28l3.24-3.92c0.32-.39.81-1,1.12-1.46a2.31,2.31,0,0,0,.49-1.34,1.46,1.46,0,0,0-1.55-1.51,1.66,1.66,0,0,0-1.65,1.69H456a3.37,3.37,0,0,1,.78-2,3,3,0,0,1,5.2,1.91,3.44,3.44,0,0,1-.67,2,18.87,18.87,0,0,1-1.33,1.68l-1.46,1.72H462v1.32Z" transform="translate(-121.39 -5384.83)"/><path class="cls-9" d="M465.44,5429.53a5.68,5.68,0,0,1-1.19-3.81,5.73,5.73,0,0,1,1.19-3.82,2.72,2.72,0,0,1,4.23,0,5.73,5.73,0,0,1,1.19,3.82,5.68,5.68,0,0,1-1.19,3.81A2.72,2.72,0,0,1,465.44,5429.53Zm0.85-6.61a6.38,6.38,0,0,0,0,5.59,1.42,1.42,0,0,0,2.52,0,6.38,6.38,0,0,0,0-5.59A1.42,1.42,0,0,0,466.29,5422.92Z" transform="translate(-121.39 -5384.83)"/><path class="cls-9" d="M473.74,5429.53a5.68,5.68,0,0,1-1.19-3.81,5.73,5.73,0,0,1,1.19-3.82,2.72,2.72,0,0,1,4.23,0,5.73,5.73,0,0,1,1.19,3.82,5.68,5.68,0,0,1-1.19,3.81A2.72,2.72,0,0,1,473.74,5429.53Zm0.85-6.61a6.38,6.38,0,0,0,0,5.59,1.42,1.42,0,0,0,2.52,0,6.38,6.38,0,0,0,0-5.59A1.42,1.42,0,0,0,474.59,5422.92Z" transform="translate(-121.39 -5384.83)"/><path class="cls-9" d="M486.86,5422.36H484l-0.46,1.55,0.43,0a3.08,3.08,0,0,1,2.16.83,3.19,3.19,0,0,1,.91,2.4,3.35,3.35,0,0,1-1,2.48,4,4,0,0,1-4.38.53,3.39,3.39,0,0,1-1.11-1.08l1.08-.9a2,2,0,0,0,1.93,1.13,2,2,0,0,0,1.43-.52,2.17,2.17,0,0,0,.6-1.58,2,2,0,0,0-.56-1.51,2.2,2.2,0,0,0-1.53-.52,2.91,2.91,0,0,0-1.09.2,3.81,3.81,0,0,0-.83.42L483,5421h3.87v1.32Z" transform="translate(-121.39 -5384.83)"/></g><g class="cls-10"><path class="cls-3" d="M634.92,5446.59v144.87" transform="translate(-121.39 -5384.83)"/></g><g class="cls-11"><rect class="cls-5" x="465.4" y="188.99" width="78.15" height="10.48"/></g><g class="cls-11"><rect class="cls-5" x="465.4" y="165.17" width="83.87" height="9.53"/></g><g class="cls-11"><rect class="cls-6" x="465.4" y="141.34" width="56.23" height="9.53"/></g><g class="cls-11"><rect class="cls-6" x="465.4" y="117.51" width="67.67" height="9.53"/></g><g class="cls-11"><rect class="cls-7" x="465.4" y="92.73" width="26.69" height="9.53"/></g><g class="cls-11"><rect class="cls-7" x="465.4" y="68.9" width="39.08" height="9.53"/></g><g class="cls-11"><path class="cls-8" d="M782.17,5463.27H625.86v-9.53H782.17v9.53Zm0,23.83H613.47v-9.53h168.7v9.53Zm0,24.78H654.45v-9.53H782.17v9.53Zm0,23.83H643v-9.53H782.17v9.53Zm0,23.83H670.66V5550H782.17v9.53Zm0,24.78H664.94v-10.48H782.17v10.48Z" transform="translate(-121.39 -5384.83)"/></g><g class="cls-10"><path class="cls-9" d="M625,5430.86h-6.28l3.24-3.92c0.32-.39.81-1,1.12-1.46a2.32,2.32,0,0,0,.49-1.34,1.46,1.46,0,0,0-1.56-1.51,1.66,1.66,0,0,0-1.65,1.69H619a3.37,3.37,0,0,1,.78-2,3,3,0,0,1,5.2,1.91,3.44,3.44,0,0,1-.67,2,18.77,18.77,0,0,1-1.33,1.68l-1.46,1.72H625v1.32Z" transform="translate(-121.39 -5384.83)"/><path class="cls-9" d="M628.42,5430a5.68,5.68,0,0,1-1.19-3.81,5.73,5.73,0,0,1,1.19-3.82,2.72,2.72,0,0,1,4.23,0,5.73,5.73,0,0,1,1.19,3.82,5.68,5.68,0,0,1-1.19,3.81A2.72,2.72,0,0,1,628.42,5430Zm0.85-6.61a6.38,6.38,0,0,0,0,5.59,1.42,1.42,0,0,0,2.52,0,6.39,6.39,0,0,0,0-5.59A1.42,1.42,0,0,0,629.27,5423.4Z" transform="translate(-121.39 -5384.83)"/><path class="cls-9" d="M637.37,5422.84h-1.62l0.78-1.32h2.27v9.34h-1.43v-8Z" transform="translate(-121.39 -5384.83)"/><path class="cls-9" d="M643,5430a5.68,5.68,0,0,1-1.19-3.81,5.74,5.74,0,0,1,1.19-3.82,2.72,2.72,0,0,1,4.23,0,5.73,5.73,0,0,1,1.19,3.82,5.68,5.68,0,0,1-1.19,3.81A2.72,2.72,0,0,1,643,5430Zm0.85-6.61a6.38,6.38,0,0,0,0,5.59,1.42,1.42,0,0,0,2.52,0,6.39,6.39,0,0,0,0-5.59A1.42,1.42,0,0,0,643.89,5423.4Z" transform="translate(-121.39 -5384.83)"/></g><g class="cls-12"><path class="cls-3" d="M796,5446.59v144.87" transform="translate(-121.39 -5384.83)"/></g><g class="cls-13"><rect class="cls-5" x="625.49" y="188.99" width="85.78" height="9.53"/></g><g class="cls-13"><rect class="cls-5" x="625.49" y="165.17" width="95.31" height="9.53"/></g><g class="cls-13"><rect class="cls-6" x="625.49" y="141.34" width="62.9" height="9.53"/></g><g class="cls-13"><rect class="cls-6" x="625.49" y="116.56" width="58.14" height="10.48"/></g><g class="cls-13"><rect class="cls-7" x="625.49" y="92.73" width="31.45" height="9.53"/></g><g class="cls-13"><rect class="cls-7" x="625.49" y="68.9" width="42.89" height="9.53"/></g><g class="cls-13"><path class="cls-8" d="M942.26,5463.27H789.77v-9.53h152.5v9.53Zm0,23.83H778.33v-9.53H942.26v9.53Zm0,24.78H805v-10.48H942.26v10.48Zm0,23.83H809.78v-9.53H942.26v9.53Zm0,23.83H842.19V5550H942.26v9.53Zm0,23.83H832.66v-9.53H942.26v9.53Z" transform="translate(-121.39 -5384.83)"/></g><g class="cls-12"><path class="cls-9" d="M782.23,5429.37h3.93v1.5h-7.09l3.66-4.44q0.54-.66.91-1.15a8.71,8.71,0,0,0,.56-0.81,2.29,2.29,0,0,0,.39-1.16,1.65,1.65,0,0,0-.52-1.24,1.78,1.78,0,0,0-1.29-.5q-1.6,0-1.83,1.89h-1.59q0.38-3.34,3.37-3.34a3.4,3.4,0,0,1,2.42.92,3,3,0,0,1,1,2.27,3.45,3.45,0,0,1-.46,1.69,8.4,8.4,0,0,1-.68,1q-0.45.59-1.13,1.4Z" transform="translate(-121.39 -5384.83)"/><path class="cls-9" d="M788.31,5425.52a6.36,6.36,0,0,1,1.18-4,3.07,3.07,0,0,1,5.1,0,7.71,7.71,0,0,1,0,8.18A3.13,3.13,0,0,1,792,5431a3.16,3.16,0,0,1-2.56-1.36A6.59,6.59,0,0,1,788.31,5425.52Zm1.57,0a6.26,6.26,0,0,0,.61,2.92,1.63,1.63,0,0,0,3.1,0,7,7,0,0,0,0-5.74,1.62,1.62,0,0,0-3.1,0A5.83,5.83,0,0,0,789.87,5425.52Z" transform="translate(-121.39 -5384.83)"/><path class="cls-9" d="M799.5,5421.8h-1.83l0.88-1.49h2.54v10.55H799.5v-9.06Z" transform="translate(-121.39 -5384.83)"/><path class="cls-9" d="M809.2,5419.94l1.17,0.88-2.52,3.43,0.35,0h0.23a3,3,0,0,1,2.22,1,3.26,3.26,0,0,1,.93,2.34,3.54,3.54,0,0,1-3.52,3.52,3.55,3.55,0,0,1-2.52-1,3.24,3.24,0,0,1-1.06-2.41,4.54,4.54,0,0,1,1-2.65Zm0.82,7.68a2,2,0,1,0-2,2A2,2,0,0,0,810,5427.62Z" transform="translate(-121.39 -5384.83)"/></g><g class="cls-14"><path class="cls-3" d="M314.41,5445.16V5591" transform="translate(-121.39 -5384.83)"/></g><g class="cls-15"><rect class="cls-5" x="143.94" y="189.47" width="64.81" height="9.53"/></g><g class="cls-15"><rect class="cls-5" x="143.94" y="165.64" width="60.05" height="9.53"/></g><g class="cls-15"><rect class="cls-6" x="143.94" y="140.86" width="46.7" height="9.53"/></g><g class="cls-15"><rect class="cls-6" x="143.94" y="117.04" width="54.33" height="9.53"/></g><g class="cls-15"><rect class="cls-7" x="143.94" y="92.25" width="27.64" height="9.53"/></g><g class="cls-15"><rect class="cls-7" x="143.94" y="68.43" width="31.45" height="9.53"/></g><g class="cls-15"><path class="cls-8" d="M460.71,5462.79H296.78v-9.53H460.71v9.53Zm0,23.83H293v-9.53H460.71v9.53Zm0,24.78H319.66v-9.53H460.71v9.53Zm0,23.83H312v-9.53H460.71v9.53Zm0,24.78H325.37v-9.53H460.71V5560Zm0,23.83H330.14v-9.53H460.71v9.53Z" transform="translate(-121.39 -5384.83)"/></g><g class="cls-14"><path class="cls-9" d="M260.52,5604.9a5.68,5.68,0,0,1-1.19-3.81,5.73,5.73,0,0,1,1.19-3.82,2.72,2.72,0,0,1,4.23,0,5.73,5.73,0,0,1,1.19,3.82,5.68,5.68,0,0,1-1.19,3.81A2.72,2.72,0,0,1,260.52,5604.9Zm0.85-6.61a6.38,6.38,0,0,0,0,5.59,1.42,1.42,0,0,0,2.52,0,6.38,6.38,0,0,0,0-5.59A1.42,1.42,0,0,0,261.37,5598.29Z" transform="translate(-121.39 -5384.83)"/><path class="cls-9" d="M272.27,5598.53a2.26,2.26,0,1,1-2.26-2.2A2.24,2.24,0,0,1,272.27,5598.53Zm-1.09,0a1.16,1.16,0,1,0-1.16,1.19A1.16,1.16,0,0,0,271.17,5598.53Zm4.13-2.27,0.66,0.38-5.34,9.27-0.66-.41Zm2.87,7.4a2.26,2.26,0,1,1-2.26-2.2A2.24,2.24,0,0,1,278.18,5603.66Zm-1.09,0a1.16,1.16,0,1,0-1.16,1.19A1.16,1.16,0,0,0,277.08,5603.66Z" transform="translate(-121.39 -5384.83)"/></g><g class="cls-14"><path class="cls-9" d="M311.59,5605.76h-6.28l3.24-3.92c0.32-.39.81-1,1.12-1.46a2.31,2.31,0,0,0,.49-1.34,1.46,1.46,0,0,0-1.55-1.51,1.66,1.66,0,0,0-1.65,1.69h-1.37a3.37,3.37,0,0,1,.78-2,3,3,0,0,1,5.2,1.91,3.44,3.44,0,0,1-.67,2,18.87,18.87,0,0,1-1.33,1.68l-1.46,1.72h3.49v1.32Z" transform="translate(-121.39 -5384.83)"/><path class="cls-9" d="M320.16,5597.73h-2.89l-0.46,1.55,0.43,0a3.08,3.08,0,0,1,2.16.83,3.19,3.19,0,0,1,.91,2.4,3.35,3.35,0,0,1-1,2.48,4,4,0,0,1-4.38.53,3.4,3.4,0,0,1-1.11-1.08l1.08-.9a2,2,0,0,0,1.93,1.13,2,2,0,0,0,1.43-.52,2.17,2.17,0,0,0,.6-1.58,2,2,0,0,0-.56-1.51,2.2,2.2,0,0,0-1.53-.52,2.91,2.91,0,0,0-1.09.2,3.81,3.81,0,0,0-.83.42l1.39-4.72h3.87v1.32Z" transform="translate(-121.39 -5384.83)"/><path class="cls-9" d="M325.55,5598.53a2.26,2.26,0,1,1-2.26-2.2A2.24,2.24,0,0,1,325.55,5598.53Zm-1.09,0a1.16,1.16,0,1,0-1.16,1.19A1.16,1.16,0,0,0,324.46,5598.53Zm4.13-2.27,0.66,0.38-5.34,9.27-0.66-.41Zm2.87,7.4a2.26,2.26,0,1,1-2.25-2.2A2.24,2.24,0,0,1,331.46,5603.66Zm-1.09,0a1.16,1.16,0,1,0-1.16,1.19A1.16,1.16,0,0,0,330.37,5603.66Z" transform="translate(-121.39 -5384.83)"/></g><g class="cls-14"><path class="cls-9" d="M360.35,5597.73h-2.89l-0.46,1.55,0.43,0a3.08,3.08,0,0,1,2.16.83,3.19,3.19,0,0,1,.91,2.4,3.35,3.35,0,0,1-1,2.48,4,4,0,0,1-4.38.53,3.4,3.4,0,0,1-1.11-1.08l1.08-.9a2,2,0,0,0,1.93,1.13,2,2,0,0,0,1.43-.52,2.17,2.17,0,0,0,.6-1.58,2,2,0,0,0-.56-1.51,2.2,2.2,0,0,0-1.53-.52,2.91,2.91,0,0,0-1.09.2,3.81,3.81,0,0,0-.83.42l1.39-4.72h3.87v1.32Z" transform="translate(-121.39 -5384.83)"/><path class="cls-9" d="M364.17,5604.9a5.68,5.68,0,0,1-1.19-3.81,5.73,5.73,0,0,1,1.19-3.82,2.72,2.72,0,0,1,4.23,0,5.73,5.73,0,0,1,1.19,3.82,5.68,5.68,0,0,1-1.19,3.81A2.72,2.72,0,0,1,364.17,5604.9Zm0.85-6.61a6.38,6.38,0,0,0,0,5.59,1.42,1.42,0,0,0,2.52,0,6.38,6.38,0,0,0,0-5.59A1.42,1.42,0,0,0,365,5598.29Z" transform="translate(-121.39 -5384.83)"/><path class="cls-9" d="M374.38,5598.53a2.26,2.26,0,1,1-2.26-2.2A2.24,2.24,0,0,1,374.38,5598.53Zm-1.09,0a1.16,1.16,0,1,0-1.16,1.19A1.16,1.16,0,0,0,373.29,5598.53Zm4.13-2.27,0.66,0.38-5.34,9.27-0.66-.41Zm2.87,7.4a2.26,2.26,0,1,1-2.25-2.2A2.24,2.24,0,0,1,380.29,5603.66Zm-1.09,0a1.16,1.16,0,1,0-1.16,1.19A1.16,1.16,0,0,0,379.2,5603.66Z" transform="translate(-121.39 -5384.83)"/></g><g class="cls-16"><path class="cls-9" d="M166.62,5581.93v-10l6.78,7.1v-6.47h1.43v9.92l-6.78-7.1v6.53h-1.43Z" transform="translate(-121.39 -5384.83)"/><path class="cls-9" d="M179,5577.9l-3.07-5.31h1.63l2.16,3.74,2.16-3.74h1.62l-3.07,5.31v4H179v-4Z" transform="translate(-121.39 -5384.83)"/><path class="cls-9" d="M186.06,5572.59v5.63a3.26,3.26,0,0,0,.29,1.61,2,2,0,0,0,3.47,0,3.26,3.26,0,0,0,.29-1.61v-5.63h1.43v6a3.46,3.46,0,0,1-.87,2.42,3.62,3.62,0,0,1-5.18,0,3.46,3.46,0,0,1-.87-2.42v-6h1.43Z" transform="translate(-121.39 -5384.83)"/><path class="cls-9" d="M198.47,5576.28h4v-3.7h1.43v9.34h-1.43v-4.3h-4v4.3H197v-9.34h1.43v3.7Z" transform="translate(-121.39 -5384.83)"/><path class="cls-9" d="M207.27,5576v3.38a1.7,1.7,0,0,0,.25,1.06,1.19,1.19,0,0,0,1.79,0,1.7,1.7,0,0,0,.25-1.06V5576h1.37v3.42a2.47,2.47,0,0,1-.63,1.93,2.69,2.69,0,0,1-1.92.73,2.59,2.59,0,0,1-1.86-.73,2.47,2.47,0,0,1-.63-1.93V5576h1.37Z" transform="translate(-121.39 -5384.83)"/><path class="cls-9" d="M212.67,5576H214v0.55a1.82,1.82,0,0,1,1.46-.7,1.73,1.73,0,0,1,1.53.87,2.09,2.09,0,0,1,1.75-.87,1.89,1.89,0,0,1,1.68.92,2.91,2.91,0,0,1,.31,1.49v3.64h-1.37v-3.25a2.73,2.73,0,0,0-.13-1.05,0.78,0.78,0,0,0-.78-0.52,1,1,0,0,0-.81.43,2.39,2.39,0,0,0-.27,1.34v3H216v-3.25a2.73,2.73,0,0,0-.13-1.05,0.78,0.78,0,0,0-.78-0.52,1,1,0,0,0-.81.43,2.39,2.39,0,0,0-.27,1.34v3h-1.37V5576Z" transform="translate(-121.39 -5384.83)"/><path class="cls-9" d="M226.81,5576h1.37v5.9h-1.37v-0.62a2.26,2.26,0,0,1-1.76.8,2.92,2.92,0,0,1-2.86-3.14,2.88,2.88,0,0,1,2.87-3.09,2.15,2.15,0,0,1,1.75.84V5576Zm-3.22,3a1.72,1.72,0,0,0,1.64,1.88,1.9,1.9,0,0,0,0-3.77A1.72,1.72,0,0,0,223.59,5579Z" transform="translate(-121.39 -5384.83)"/><path class="cls-9" d="M229.9,5576h1.37v0.55a2,2,0,0,1,1.6-.7,2,2,0,0,1,1.74.8,2.63,2.63,0,0,1,.36,1.64v3.61H233.6v-3.28c0-1.5-.56-1.54-1.08-1.54s-1.25.08-1.25,2v2.83H229.9V5576Z" transform="translate(-121.39 -5384.83)"/><path class="cls-9" d="M237.39,5572.71a0.88,0.88,0,1,1-.88.88A0.86,0.86,0,0,1,237.39,5572.71Zm0.69,3.32v5.9h-1.37V5576h1.37Z" transform="translate(-121.39 -5384.83)"/><path class="cls-9" d="M241.23,5577.29v4.64h-1.37v-4.64h-0.57V5576h0.57v-2.16h1.37V5576h1.05v1.26h-1.05Z" transform="translate(-121.39 -5384.83)"/><path class="cls-9" d="M243.89,5572.71a0.88,0.88,0,1,1-.88.88A0.86,0.86,0,0,1,243.89,5572.71Zm0.69,3.32v5.9H243.2V5576h1.37Z" transform="translate(-121.39 -5384.83)"/><path class="cls-9" d="M251.59,5580.58a3.08,3.08,0,0,1-1,1.08,3.24,3.24,0,0,1-1.74.45,2.61,2.61,0,0,1-2-.76,3.17,3.17,0,0,1-.87-2.25,3.46,3.46,0,0,1,.94-2.42,2.69,2.69,0,0,1,2-.8,2.54,2.54,0,0,1,1.89.77,3.54,3.54,0,0,1,.83,2.49v0.17H247.4a2,2,0,0,0,.5,1.19,1.4,1.4,0,0,0,1.05.38,1.45,1.45,0,0,0,.94-0.29,2.12,2.12,0,0,0,.55-0.64Zm-1.36-2.4a1.42,1.42,0,0,0-.42-0.8,1.43,1.43,0,0,0-1.89,0,1.54,1.54,0,0,0-.42.76h2.73Z" transform="translate(-121.39 -5384.83)"/><path class="cls-9" d="M255.63,5577.59a1,1,0,0,0-.84-0.5,0.58,0.58,0,0,0-.42.15,0.44,0.44,0,0,0-.13.31,0.38,0.38,0,0,0,.2.34c0.08,0.06.17,0.08,0.46,0.24l0.7,0.35a2.85,2.85,0,0,1,.83.55,1.46,1.46,0,0,1,.43,1.09,2,2,0,0,1-.52,1.34,2.1,2.1,0,0,1-1.65.66,2,2,0,0,1-1.27-.38,2.3,2.3,0,0,1-.76-1.08l1.12-.53a1.55,1.55,0,0,0,.32.56,0.84,0.84,0,0,0,.6.22,0.83,0.83,0,0,0,.56-0.2,0.69,0.69,0,0,0,.2-0.46,0.64,0.64,0,0,0-.18-0.45,1.8,1.8,0,0,0-.59-0.36l-0.5-.24a2.92,2.92,0,0,1-.81-0.5,1.29,1.29,0,0,1-.42-1,1.84,1.84,0,0,1,.49-1.26,1.9,1.9,0,0,1,1.44-.56,1.85,1.85,0,0,1,1.09.31,2,2,0,0,1,.67.73Z" transform="translate(-121.39 -5384.83)"/></g><g class="cls-17"><path class="cls-9" d="M147.52,5550a3.64,3.64,0,0,0-2.54-1,3.34,3.34,0,0,0-3.4,3.56A3.37,3.37,0,0,0,145,5556a3.71,3.71,0,0,0,2.52-1.08v1.69a5.1,5.1,0,0,1-2.56.7,4.68,4.68,0,0,1-3.31-1.29,4.58,4.58,0,0,1-1.5-3.53,4.89,4.89,0,0,1,1.5-3.66,4.63,4.63,0,0,1,3.38-1.22,4.44,4.44,0,0,1,2.49.67V5550Z" transform="translate(-121.39 -5384.83)"/><path class="cls-9" d="M155,5554.21a3.15,3.15,0,1,1-3.15-3.11A3.06,3.06,0,0,1,155,5554.21Zm-1.4,0a1.76,1.76,0,1,0-1.75,1.88A1.71,1.71,0,0,0,153.62,5554.22Z" transform="translate(-121.39 -5384.83)"/><path class="cls-9" d="M157.82,5546.94v10.21h-1.37v-10.21h1.37Z" transform="translate(-121.39 -5384.83)"/><path class="cls-9" d="M160.93,5551.25v3.38a1.7,1.7,0,0,0,.25,1.06,1.19,1.19,0,0,0,1.79,0,1.7,1.7,0,0,0,.25-1.06v-3.38h1.37v3.42a2.47,2.47,0,0,1-.63,1.93,2.69,2.69,0,0,1-1.92.73,2.59,2.59,0,0,1-1.86-.73,2.47,2.47,0,0,1-.63-1.93v-3.42h1.37Z" transform="translate(-121.39 -5384.83)"/><path class="cls-9" d="M166.33,5551.25h1.37v0.55a1.82,1.82,0,0,1,1.46-.7,1.73,1.73,0,0,1,1.53.87,2.09,2.09,0,0,1,1.75-.87,1.89,1.89,0,0,1,1.68.92,2.91,2.91,0,0,1,.31,1.49v3.64h-1.37v-3.25a2.73,2.73,0,0,0-.13-1.05,0.78,0.78,0,0,0-.78-0.52,1,1,0,0,0-.81.43,2.39,2.39,0,0,0-.27,1.34v3h-1.37v-3.25a2.73,2.73,0,0,0-.13-1.05,0.78,0.78,0,0,0-.78-0.52,1,1,0,0,0-.81.43,2.39,2.39,0,0,0-.27,1.34v3h-1.37v-5.9Z" transform="translate(-121.39 -5384.83)"/><path class="cls-9" d="M177.53,5551.94a2.15,2.15,0,0,1,1.75-.84,2.88,2.88,0,0,1,2.87,3.09,2.92,2.92,0,0,1-2.86,3.14,2.26,2.26,0,0,1-1.77-.8v0.62h-1.37v-10.21h1.37v5Zm-0.08,2.3a1.68,1.68,0,0,0,1.67,1.86,1.9,1.9,0,0,0,0-3.77A1.69,1.69,0,0,0,177.45,5554.24Z" transform="translate(-121.39 -5384.83)"/><path class="cls-9" d="M184.27,5547.93a0.88,0.88,0,1,1-.88.88A0.86,0.86,0,0,1,184.27,5547.93Zm0.69,3.32v5.9h-1.37v-5.9H185Z" transform="translate(-121.39 -5384.83)"/><path class="cls-9" d="M191,5551.25h1.37v5.9H191v-0.62a2.26,2.26,0,0,1-1.76.8,2.92,2.92,0,0,1-2.86-3.14,2.88,2.88,0,0,1,2.87-3.09,2.15,2.15,0,0,1,1.75.84v-0.69Zm-3.22,3a1.72,1.72,0,0,0,1.64,1.88,1.9,1.9,0,0,0,0-3.77A1.72,1.72,0,0,0,187.78,5554.22Z" transform="translate(-121.39 -5384.83)"/><path class="cls-9" d="M199.05,5551.5h4v-3.7h1.43v9.34h-1.43v-4.3h-4v4.3h-1.43v-9.34h1.43v3.7Z" transform="translate(-121.39 -5384.83)"/><path class="cls-9" d="M207.84,5551.25v3.38a1.7,1.7,0,0,0,.25,1.06,1.19,1.19,0,0,0,1.79,0,1.7,1.7,0,0,0,.25-1.06v-3.38h1.37v3.42a2.47,2.47,0,0,1-.63,1.93,2.69,2.69,0,0,1-1.92.73,2.59,2.59,0,0,1-1.86-.73,2.47,2.47,0,0,1-.63-1.93v-3.42h1.37Z" transform="translate(-121.39 -5384.83)"/><path class="cls-9" d="M213.25,5551.25h1.37v0.55a1.82,1.82,0,0,1,1.46-.7,1.73,1.73,0,0,1,1.53.87,2.09,2.09,0,0,1,1.75-.87,1.89,1.89,0,0,1,1.68.92,2.91,2.91,0,0,1,.31,1.49v3.64H220v-3.25a2.73,2.73,0,0,0-.13-1.05,0.78,0.78,0,0,0-.78-0.52,1,1,0,0,0-.81.43,2.39,2.39,0,0,0-.27,1.34v3h-1.37v-3.25a2.73,2.73,0,0,0-.13-1.05,0.78,0.78,0,0,0-.78-0.52,1,1,0,0,0-.81.43,2.39,2.39,0,0,0-.27,1.34v3h-1.37v-5.9Z" transform="translate(-121.39 -5384.83)"/><path class="cls-9" d="M227.39,5551.25h1.37v5.9h-1.37v-0.62a2.26,2.26,0,0,1-1.76.8,2.92,2.92,0,0,1-2.86-3.14,2.88,2.88,0,0,1,2.87-3.09,2.15,2.15,0,0,1,1.75.84v-0.69Zm-3.22,3a1.72,1.72,0,0,0,1.64,1.88,1.9,1.9,0,0,0,0-3.77A1.72,1.72,0,0,0,224.17,5554.22Z" transform="translate(-121.39 -5384.83)"/><path class="cls-9" d="M230.48,5551.25h1.37v0.55a2,2,0,0,1,1.6-.7,2,2,0,0,1,1.74.8,2.63,2.63,0,0,1,.36,1.64v3.61h-1.37v-3.28c0-1.5-.56-1.54-1.08-1.54s-1.25.08-1.25,2v2.83h-1.37v-5.9Z" transform="translate(-121.39 -5384.83)"/><path class="cls-9" d="M238,5547.93a0.88,0.88,0,1,1-.88.88A0.86,0.86,0,0,1,238,5547.93Zm0.69,3.32v5.9h-1.37v-5.9h1.37Z" transform="translate(-121.39 -5384.83)"/><path class="cls-9" d="M241.81,5552.51v4.64h-1.37v-4.64h-0.57v-1.26h0.57v-2.16h1.37v2.16h1.05v1.26h-1.05Z" transform="translate(-121.39 -5384.83)"/><path class="cls-9" d="M244.47,5547.93a0.88,0.88,0,1,1-.88.88A0.86,0.86,0,0,1,244.47,5547.93Zm0.69,3.32v5.9h-1.37v-5.9h1.37Z" transform="translate(-121.39 -5384.83)"/><path class="cls-9" d="M252.17,5555.81a3.08,3.08,0,0,1-1,1.08,3.24,3.24,0,0,1-1.74.45,2.61,2.61,0,0,1-2-.76,3.17,3.17,0,0,1-.87-2.25,3.46,3.46,0,0,1,.94-2.42,2.69,2.69,0,0,1,2-.8,2.54,2.54,0,0,1,1.89.77,3.54,3.54,0,0,1,.83,2.49v0.17H248a2,2,0,0,0,.5,1.19,1.4,1.4,0,0,0,1.05.38,1.45,1.45,0,0,0,.94-0.29,2.12,2.12,0,0,0,.55-0.64Zm-1.36-2.4a1.42,1.42,0,0,0-.42-0.8,1.43,1.43,0,0,0-1.89,0,1.54,1.54,0,0,0-.42.76h2.73Z" transform="translate(-121.39 -5384.83)"/><path class="cls-9" d="M256.21,5552.81a1,1,0,0,0-.84-0.5,0.58,0.58,0,0,0-.42.15,0.44,0.44,0,0,0-.13.31,0.38,0.38,0,0,0,.2.34c0.08,0.06.17,0.08,0.46,0.24l0.7,0.35a2.85,2.85,0,0,1,.83.55,1.46,1.46,0,0,1,.43,1.09,2,2,0,0,1-.52,1.34,2.1,2.1,0,0,1-1.65.66A2,2,0,0,1,254,5557a2.3,2.3,0,0,1-.76-1.08l1.12-.53a1.55,1.55,0,0,0,.32.56,0.84,0.84,0,0,0,.6.22,0.83,0.83,0,0,0,.56-0.2,0.69,0.69,0,0,0,.2-0.46,0.64,0.64,0,0,0-.18-0.45,1.8,1.8,0,0,0-.59-0.36l-0.5-.24a2.92,2.92,0,0,1-.81-0.5,1.29,1.29,0,0,1-.42-1,1.84,1.84,0,0,1,.49-1.26,1.9,1.9,0,0,1,1.44-.56,1.85,1.85,0,0,1,1.09.31,2,2,0,0,1,.67.73Z" transform="translate(-121.39 -5384.83)"/></g><g class="cls-18"><path class="cls-9" d="M148.36,5533.32v-10l6.78,7.1V5524h1.43v9.92l-6.78-7.1v6.53h-1.43Z" transform="translate(-121.39 -5384.83)"/><path class="cls-9" d="M160.76,5529.29l-3.07-5.31h1.63l2.16,3.74,2.16-3.74h1.62l-3.07,5.31v4h-1.43v-4Z" transform="translate(-121.39 -5384.83)"/><path class="cls-9" d="M167.8,5524v5.63a3.26,3.26,0,0,0,.29,1.61,2,2,0,0,0,3.47,0,3.26,3.26,0,0,0,.29-1.61V5524h1.43v6a3.46,3.46,0,0,1-.87,2.42,3.62,3.62,0,0,1-5.18,0,3.46,3.46,0,0,1-.87-2.42v-6h1.43Z" transform="translate(-121.39 -5384.83)"/><path class="cls-9" d="M182.82,5526.05a1.45,1.45,0,0,0-1.43-.92,1.16,1.16,0,0,0-1.32,1.12,1.24,1.24,0,0,0,1,1.13l0.94,0.38c1.72,0.7,2.2,1.68,2.2,2.75a2.88,2.88,0,0,1-3,3,2.73,2.73,0,0,1-2.2-.94,3,3,0,0,1-.78-1.82l1.41-.31a2,2,0,0,0,.39,1.19,1.47,1.47,0,0,0,1.22.56,1.5,1.5,0,0,0,1.54-1.57,1.75,1.75,0,0,0-1.34-1.6l-0.9-.38a2.64,2.64,0,0,1-1.91-2.37,2.52,2.52,0,0,1,2.73-2.46,2.76,2.76,0,0,1,1.88.63,3.17,3.17,0,0,1,.71.94Z" transform="translate(-121.39 -5384.83)"/><path class="cls-9" d="M191.75,5530.38a3.15,3.15,0,1,1-3.15-3.11A3.06,3.06,0,0,1,191.75,5530.38Zm-1.4,0a1.76,1.76,0,1,0-1.75,1.88A1.71,1.71,0,0,0,190.35,5530.39Z" transform="translate(-121.39 -5384.83)"/><path class="cls-9" d="M197.74,5529.23a2.31,2.31,0,0,0-1.67-.73,1.77,1.77,0,0,0-1.3.52,1.89,1.89,0,0,0-.5,1.36,2,2,0,0,0,.53,1.42,1.78,1.78,0,0,0,1.25.48,2.3,2.3,0,0,0,1.69-.76V5533a3.23,3.23,0,0,1-1.79.46,2.87,2.87,0,0,1-2.24-.87,3.06,3.06,0,0,1-.84-2.21,3.15,3.15,0,0,1,.9-2.28,3.2,3.2,0,0,1,2.37-.87,3.16,3.16,0,0,1,1.61.42v1.54Z" transform="translate(-121.39 -5384.83)"/><path class="cls-9" d="M199.74,5524.11a0.88,0.88,0,1,1-.88.88A0.86,0.86,0,0,1,199.74,5524.11Zm0.69,3.32v5.9h-1.37v-5.9h1.37Z" transform="translate(-121.39 -5384.83)"/><path class="cls-9" d="M206.48,5527.42h1.37v5.9h-1.37v-0.62a2.26,2.26,0,0,1-1.76.8,2.92,2.92,0,0,1-2.86-3.14,2.88,2.88,0,0,1,2.87-3.09,2.15,2.15,0,0,1,1.75.84v-0.69Zm-3.22,3a1.72,1.72,0,0,0,1.64,1.88,1.9,1.9,0,0,0,0-3.77A1.72,1.72,0,0,0,203.26,5530.39Z" transform="translate(-121.39 -5384.83)"/><path class="cls-9" d="M211,5523.11v10.21h-1.37v-10.21H211Z" transform="translate(-121.39 -5384.83)"/><path class="cls-9" d="M220.24,5526.05a1.45,1.45,0,0,0-1.43-.92,1.16,1.16,0,0,0-1.32,1.12,1.24,1.24,0,0,0,1,1.13l0.94,0.38c1.72,0.7,2.2,1.68,2.2,2.75a2.88,2.88,0,0,1-3,3,2.73,2.73,0,0,1-2.2-.94,3,3,0,0,1-.78-1.82l1.42-.31a2,2,0,0,0,.39,1.19,1.47,1.47,0,0,0,1.22.56,1.5,1.5,0,0,0,1.54-1.57,1.75,1.75,0,0,0-1.34-1.6l-0.9-.38a2.64,2.64,0,0,1-1.91-2.37,2.52,2.52,0,0,1,2.73-2.46,2.76,2.76,0,0,1,1.88.63,3.17,3.17,0,0,1,.71.94Z" transform="translate(-121.39 -5384.83)"/><path class="cls-9" d="M227.75,5529.23a2.31,2.31,0,0,0-1.67-.73,1.77,1.77,0,0,0-1.3.52,1.89,1.89,0,0,0-.5,1.36,2,2,0,0,0,.53,1.42,1.78,1.78,0,0,0,1.25.48,2.3,2.3,0,0,0,1.69-.76V5533a3.23,3.23,0,0,1-1.79.46,2.87,2.87,0,0,1-2.24-.87,3.06,3.06,0,0,1-.84-2.21,3.15,3.15,0,0,1,.9-2.28,3.2,3.2,0,0,1,2.37-.87,3.16,3.16,0,0,1,1.61.42v1.54Z" transform="translate(-121.39 -5384.83)"/><path class="cls-9" d="M229.74,5524.11a0.88,0.88,0,1,1-.88.88A0.86,0.86,0,0,1,229.74,5524.11Zm0.69,3.32v5.9h-1.37v-5.9h1.37Z" transform="translate(-121.39 -5384.83)"/><path class="cls-9" d="M237.45,5532a3.08,3.08,0,0,1-1,1.08,3.24,3.24,0,0,1-1.74.45,2.61,2.61,0,0,1-2-.76,3.17,3.17,0,0,1-.87-2.25,3.46,3.46,0,0,1,.94-2.42,2.69,2.69,0,0,1,2-.8,2.54,2.54,0,0,1,1.89.77,3.54,3.54,0,0,1,.83,2.49v0.17h-4.23a2,2,0,0,0,.5,1.19,1.4,1.4,0,0,0,1.05.38,1.45,1.45,0,0,0,.94-0.29,2.12,2.12,0,0,0,.55-0.64Zm-1.36-2.4a1.42,1.42,0,0,0-.42-0.8,1.43,1.43,0,0,0-1.89,0,1.54,1.54,0,0,0-.42.76h2.73Z" transform="translate(-121.39 -5384.83)"/><path class="cls-9" d="M238.9,5527.42h1.37V5528a2,2,0,0,1,1.6-.7,2,2,0,0,1,1.74.8,2.63,2.63,0,0,1,.36,1.64v3.61H242.6V5530c0-1.5-.56-1.54-1.08-1.54s-1.25.08-1.25,2v2.83H238.9v-5.9Z" transform="translate(-121.39 -5384.83)"/><path class="cls-9" d="M250.27,5529.23a2.31,2.31,0,0,0-1.67-.73,1.77,1.77,0,0,0-1.3.52,1.89,1.89,0,0,0-.5,1.36,2,2,0,0,0,.53,1.42,1.78,1.78,0,0,0,1.25.48,2.3,2.3,0,0,0,1.69-.76V5533a3.23,3.23,0,0,1-1.79.46,2.87,2.87,0,0,1-2.24-.87,3.06,3.06,0,0,1-.84-2.21,3.15,3.15,0,0,1,.9-2.28,3.2,3.2,0,0,1,2.37-.87,3.16,3.16,0,0,1,1.61.42v1.54Z" transform="translate(-121.39 -5384.83)"/><path class="cls-9" d="M256.87,5532a3.08,3.08,0,0,1-1,1.08,3.24,3.24,0,0,1-1.74.45,2.61,2.61,0,0,1-2-.76,3.17,3.17,0,0,1-.87-2.25,3.46,3.46,0,0,1,.94-2.42,2.69,2.69,0,0,1,2-.8,2.54,2.54,0,0,1,1.89.77,3.54,3.54,0,0,1,.83,2.49v0.17h-4.23a2,2,0,0,0,.5,1.19,1.4,1.4,0,0,0,1.05.38,1.45,1.45,0,0,0,.94-0.29,2.12,2.12,0,0,0,.55-0.64Zm-1.36-2.4a1.42,1.42,0,0,0-.42-0.8,1.43,1.43,0,0,0-1.89,0,1.54,1.54,0,0,0-.42.76h2.73Z" transform="translate(-121.39 -5384.83)"/></g><g class="cls-19"><path class="cls-9" d="M128.76,5501.38a3.64,3.64,0,0,0-2.54-1,3.34,3.34,0,0,0-3.4,3.56,3.37,3.37,0,0,0,3.42,3.5,3.71,3.71,0,0,0,2.52-1.08V5508a5.1,5.1,0,0,1-2.56.7,4.68,4.68,0,0,1-3.31-1.29,4.58,4.58,0,0,1-1.5-3.53,4.89,4.89,0,0,1,1.5-3.66,4.63,4.63,0,0,1,3.38-1.22,4.44,4.44,0,0,1,2.49.67v1.68Z" transform="translate(-121.39 -5384.83)"/><path class="cls-9" d="M136.26,5505.6a3.15,3.15,0,1,1-3.15-3.11A3.06,3.06,0,0,1,136.26,5505.6Zm-1.4,0a1.76,1.76,0,1,0-1.75,1.88A1.71,1.71,0,0,0,134.86,5505.61Z" transform="translate(-121.39 -5384.83)"/><path class="cls-9" d="M139.06,5498.33v10.21h-1.37v-10.21h1.37Z" transform="translate(-121.39 -5384.83)"/><path class="cls-9" d="M142.17,5502.64V5506a1.7,1.7,0,0,0,.25,1.06,1.19,1.19,0,0,0,1.79,0,1.7,1.7,0,0,0,.25-1.06v-3.38h1.37v3.42a2.47,2.47,0,0,1-.63,1.93,2.69,2.69,0,0,1-1.92.73,2.59,2.59,0,0,1-1.86-.73,2.47,2.47,0,0,1-.63-1.93v-3.42h1.37Z" transform="translate(-121.39 -5384.83)"/><path class="cls-9" d="M147.57,5502.64h1.37v0.55a1.82,1.82,0,0,1,1.46-.7,1.73,1.73,0,0,1,1.53.87,2.09,2.09,0,0,1,1.75-.87,1.89,1.89,0,0,1,1.68.92,2.91,2.91,0,0,1,.31,1.49v3.64h-1.37v-3.25a2.73,2.73,0,0,0-.13-1.05,0.78,0.78,0,0,0-.78-0.52,1,1,0,0,0-.81.43,2.39,2.39,0,0,0-.27,1.34v3h-1.37v-3.25a2.73,2.73,0,0,0-.13-1.05,0.78,0.78,0,0,0-.78-0.52,1,1,0,0,0-.81.43,2.39,2.39,0,0,0-.27,1.34v3h-1.37v-5.9Z" transform="translate(-121.39 -5384.83)"/><path class="cls-9" d="M158.77,5503.33a2.15,2.15,0,0,1,1.75-.84,2.88,2.88,0,0,1,2.87,3.09,2.92,2.92,0,0,1-2.86,3.14,2.26,2.26,0,0,1-1.77-.8v0.62H157.4v-10.21h1.37v5Zm-0.08,2.3a1.68,1.68,0,0,0,1.67,1.86,1.9,1.9,0,0,0,0-3.77A1.69,1.69,0,0,0,158.69,5505.63Z" transform="translate(-121.39 -5384.83)"/><path class="cls-9" d="M165.5,5499.32a0.88,0.88,0,1,1-.88.88A0.86,0.86,0,0,1,165.5,5499.32Zm0.69,3.32v5.9h-1.37v-5.9h1.37Z" transform="translate(-121.39 -5384.83)"/><path class="cls-9" d="M172.24,5502.64h1.37v5.9h-1.37v-0.62a2.26,2.26,0,0,1-1.76.8,2.92,2.92,0,0,1-2.86-3.14,2.88,2.88,0,0,1,2.87-3.09,2.15,2.15,0,0,1,1.75.84v-0.69Zm-3.22,3a1.72,1.72,0,0,0,1.64,1.88,1.9,1.9,0,0,0,0-3.77A1.72,1.72,0,0,0,169,5505.61Z" transform="translate(-121.39 -5384.83)"/><path class="cls-9" d="M182.89,5501.27a1.45,1.45,0,0,0-1.43-.92,1.16,1.16,0,0,0-1.32,1.12,1.24,1.24,0,0,0,1,1.13l0.94,0.38c1.72,0.7,2.2,1.68,2.2,2.75a2.88,2.88,0,0,1-3,3,2.73,2.73,0,0,1-2.2-.94,3,3,0,0,1-.78-1.82l1.41-.31a2,2,0,0,0,.39,1.19,1.47,1.47,0,0,0,1.22.56,1.5,1.5,0,0,0,1.54-1.57,1.75,1.75,0,0,0-1.34-1.6l-0.9-.38a2.64,2.64,0,0,1-1.91-2.37,2.52,2.52,0,0,1,2.73-2.46,2.76,2.76,0,0,1,1.88.63,3.17,3.17,0,0,1,.71.94Z" transform="translate(-121.39 -5384.83)"/><path class="cls-9" d="M191.83,5505.6a3.15,3.15,0,1,1-3.15-3.11A3.06,3.06,0,0,1,191.83,5505.6Zm-1.4,0a1.76,1.76,0,1,0-1.75,1.88A1.71,1.71,0,0,0,190.43,5505.61Z" transform="translate(-121.39 -5384.83)"/><path class="cls-9" d="M197.82,5504.45a2.31,2.31,0,0,0-1.67-.73,1.77,1.77,0,0,0-1.3.52,1.89,1.89,0,0,0-.5,1.36,2,2,0,0,0,.53,1.42,1.78,1.78,0,0,0,1.25.48,2.3,2.3,0,0,0,1.69-.76v1.53a3.23,3.23,0,0,1-1.79.46,2.87,2.87,0,0,1-2.24-.87,3.06,3.06,0,0,1-.84-2.21,3.15,3.15,0,0,1,.9-2.28,3.2,3.2,0,0,1,2.37-.87,3.16,3.16,0,0,1,1.61.42v1.54Z" transform="translate(-121.39 -5384.83)"/><path class="cls-9" d="M199.82,5499.32a0.88,0.88,0,1,1-.88.88A0.86,0.86,0,0,1,199.82,5499.32Zm0.69,3.32v5.9h-1.37v-5.9h1.37Z" transform="translate(-121.39 -5384.83)"/><path class="cls-9" d="M206.55,5502.64h1.37v5.9h-1.37v-0.62a2.26,2.26,0,0,1-1.76.8,2.92,2.92,0,0,1-2.86-3.14,2.88,2.88,0,0,1,2.87-3.09,2.15,2.15,0,0,1,1.75.84v-0.69Zm-3.22,3a1.72,1.72,0,0,0,1.64,1.88,1.9,1.9,0,0,0,0-3.77A1.72,1.72,0,0,0,203.33,5505.61Z" transform="translate(-121.39 -5384.83)"/><path class="cls-9" d="M211,5498.33v10.21h-1.37v-10.21H211Z" transform="translate(-121.39 -5384.83)"/><path class="cls-9" d="M220.31,5501.27a1.45,1.45,0,0,0-1.43-.92,1.16,1.16,0,0,0-1.32,1.12,1.24,1.24,0,0,0,1,1.13l0.94,0.38c1.72,0.7,2.2,1.68,2.2,2.75a2.88,2.88,0,0,1-3,3,2.73,2.73,0,0,1-2.2-.94,3,3,0,0,1-.78-1.82l1.42-.31a2,2,0,0,0,.39,1.19,1.47,1.47,0,0,0,1.22.56,1.5,1.5,0,0,0,1.54-1.57,1.75,1.75,0,0,0-1.34-1.6l-0.9-.38a2.64,2.64,0,0,1-1.91-2.37,2.52,2.52,0,0,1,2.73-2.46,2.76,2.76,0,0,1,1.88.63,3.17,3.17,0,0,1,.71.94Z" transform="translate(-121.39 -5384.83)"/><path class="cls-9" d="M227.82,5504.45a2.31,2.31,0,0,0-1.67-.73,1.77,1.77,0,0,0-1.3.52,1.89,1.89,0,0,0-.5,1.36,2,2,0,0,0,.53,1.42,1.78,1.78,0,0,0,1.25.48,2.3,2.3,0,0,0,1.69-.76v1.53a3.23,3.23,0,0,1-1.79.46,2.87,2.87,0,0,1-2.24-.87,3.06,3.06,0,0,1-.84-2.21,3.15,3.15,0,0,1,.9-2.28,3.2,3.2,0,0,1,2.37-.87,3.16,3.16,0,0,1,1.61.42v1.54Z" transform="translate(-121.39 -5384.83)"/><path class="cls-9" d="M229.82,5499.32a0.88,0.88,0,1,1-.88.88A0.86,0.86,0,0,1,229.82,5499.32Zm0.69,3.32v5.9h-1.37v-5.9h1.37Z" transform="translate(-121.39 -5384.83)"/><path class="cls-9" d="M237.52,5507.2a3.08,3.08,0,0,1-1,1.08,3.24,3.24,0,0,1-1.74.45,2.61,2.61,0,0,1-2-.76,3.17,3.17,0,0,1-.87-2.25,3.46,3.46,0,0,1,.94-2.42,2.69,2.69,0,0,1,2-.8,2.54,2.54,0,0,1,1.89.77,3.54,3.54,0,0,1,.83,2.49v0.17h-4.23a2,2,0,0,0,.5,1.19,1.4,1.4,0,0,0,1.05.38,1.45,1.45,0,0,0,.94-0.29,2.12,2.12,0,0,0,.55-0.64Zm-1.36-2.4a1.42,1.42,0,0,0-.42-0.8,1.43,1.43,0,0,0-1.89,0,1.54,1.54,0,0,0-.42.76h2.73Z" transform="translate(-121.39 -5384.83)"/><path class="cls-9" d="M239,5502.64h1.37v0.55a2,2,0,0,1,1.6-.7,2,2,0,0,1,1.74.8,2.63,2.63,0,0,1,.36,1.64v3.61h-1.37v-3.28c0-1.5-.56-1.54-1.08-1.54s-1.25.08-1.25,2v2.83H239v-5.9Z" transform="translate(-121.39 -5384.83)"/><path class="cls-9" d="M250.34,5504.45a2.31,2.31,0,0,0-1.67-.73,1.77,1.77,0,0,0-1.3.52,1.89,1.89,0,0,0-.5,1.36,2,2,0,0,0,.53,1.42,1.79,1.79,0,0,0,1.25.48,2.3,2.3,0,0,0,1.69-.76v1.53a3.23,3.23,0,0,1-1.79.46,2.87,2.87,0,0,1-2.24-.87,3.06,3.06,0,0,1-.84-2.21,3.15,3.15,0,0,1,.9-2.28,3.2,3.2,0,0,1,2.37-.87,3.16,3.16,0,0,1,1.61.42v1.54Z" transform="translate(-121.39 -5384.83)"/><path class="cls-9" d="M256.94,5507.2a3.08,3.08,0,0,1-1,1.08,3.24,3.24,0,0,1-1.74.45,2.61,2.61,0,0,1-2-.76,3.17,3.17,0,0,1-.87-2.25,3.46,3.46,0,0,1,.94-2.42,2.69,2.69,0,0,1,2-.8,2.54,2.54,0,0,1,1.89.77,3.54,3.54,0,0,1,.83,2.49v0.17h-4.23a2,2,0,0,0,.5,1.19,1.4,1.4,0,0,0,1.05.38,1.45,1.45,0,0,0,.94-0.29,2.12,2.12,0,0,0,.55-0.64Zm-1.36-2.4a1.42,1.42,0,0,0-.42-0.8,1.43,1.43,0,0,0-1.89,0,1.54,1.54,0,0,0-.42.76h2.73Z" transform="translate(-121.39 -5384.83)"/></g><g class="cls-20"><path class="cls-9" d="M185.63,5484.71v-10l6.78,7.1v-6.47h1.43v9.92l-6.78-7.1v6.53h-1.43Z" transform="translate(-121.39 -5384.83)"/><path class="cls-9" d="M198,5480.68l-3.07-5.31h1.63l2.16,3.74,2.16-3.74h1.62l-3.07,5.31v4H198v-4Z" transform="translate(-121.39 -5384.83)"/><path class="cls-9" d="M205.07,5475.37V5481a3.26,3.26,0,0,0,.29,1.61,2,2,0,0,0,3.47,0,3.26,3.26,0,0,0,.29-1.61v-5.63h1.43v6a3.46,3.46,0,0,1-.87,2.42,3.62,3.62,0,0,1-5.18,0,3.46,3.46,0,0,1-.87-2.42v-6h1.43Z" transform="translate(-121.39 -5384.83)"/><path class="cls-9" d="M220.09,5477.44a1.45,1.45,0,0,0-1.43-.92,1.16,1.16,0,0,0-1.32,1.12,1.24,1.24,0,0,0,1,1.13l0.94,0.38c1.72,0.7,2.2,1.68,2.2,2.75a2.88,2.88,0,0,1-3,3,2.73,2.73,0,0,1-2.2-.94,3,3,0,0,1-.78-1.82l1.41-.31a2,2,0,0,0,.39,1.19,1.47,1.47,0,0,0,1.22.56,1.5,1.5,0,0,0,1.54-1.57,1.75,1.75,0,0,0-1.34-1.6l-0.9-.38a2.64,2.64,0,0,1-1.91-2.37,2.52,2.52,0,0,1,2.73-2.46,2.76,2.76,0,0,1,1.88.63,3.17,3.17,0,0,1,.71.94Z" transform="translate(-121.39 -5384.83)"/><path class="cls-9" d="M227.59,5480.62a2.32,2.32,0,0,0-1.67-.73,1.77,1.77,0,0,0-1.3.52,1.89,1.89,0,0,0-.5,1.36,2,2,0,0,0,.53,1.42,1.78,1.78,0,0,0,1.25.48,2.3,2.3,0,0,0,1.69-.76v1.53a3.23,3.23,0,0,1-1.79.46,2.87,2.87,0,0,1-2.24-.87,3.06,3.06,0,0,1-.84-2.21,3.15,3.15,0,0,1,.9-2.28,3.2,3.2,0,0,1,2.37-.87,3.16,3.16,0,0,1,1.61.42v1.54Z" transform="translate(-121.39 -5384.83)"/><path class="cls-9" d="M229.59,5475.5a0.88,0.88,0,1,1-.88.88A0.86,0.86,0,0,1,229.59,5475.5Zm0.69,3.32v5.9h-1.37v-5.9h1.37Z" transform="translate(-121.39 -5384.83)"/><path class="cls-9" d="M237.3,5483.37a3.08,3.08,0,0,1-1,1.08,3.24,3.24,0,0,1-1.74.45,2.61,2.61,0,0,1-2-.76,3.17,3.17,0,0,1-.87-2.25,3.46,3.46,0,0,1,.94-2.42,2.69,2.69,0,0,1,2-.8,2.54,2.54,0,0,1,1.89.77,3.54,3.54,0,0,1,.83,2.49v0.17h-4.23a2,2,0,0,0,.5,1.19,1.4,1.4,0,0,0,1.05.38,1.45,1.45,0,0,0,.94-0.29,2.12,2.12,0,0,0,.55-0.64Zm-1.36-2.4a1.42,1.42,0,0,0-.42-0.8,1.43,1.43,0,0,0-1.89,0,1.54,1.54,0,0,0-.42.76h2.73Z" transform="translate(-121.39 -5384.83)"/><path class="cls-9" d="M238.75,5478.82h1.37v0.55a2,2,0,0,1,1.6-.7,2,2,0,0,1,1.74.8,2.63,2.63,0,0,1,.36,1.64v3.61h-1.37v-3.28c0-1.5-.56-1.54-1.08-1.54s-1.25.08-1.25,2v2.83h-1.37v-5.9Z" transform="translate(-121.39 -5384.83)"/><path class="cls-9" d="M250.12,5480.62a2.32,2.32,0,0,0-1.67-.73,1.77,1.77,0,0,0-1.3.52,1.89,1.89,0,0,0-.5,1.36,2,2,0,0,0,.53,1.42,1.78,1.78,0,0,0,1.25.48,2.3,2.3,0,0,0,1.69-.76v1.53a3.23,3.23,0,0,1-1.79.46,2.87,2.87,0,0,1-2.24-.87,3.06,3.06,0,0,1-.84-2.21,3.15,3.15,0,0,1,.9-2.28,3.2,3.2,0,0,1,2.37-.87,3.16,3.16,0,0,1,1.61.42v1.54Z" transform="translate(-121.39 -5384.83)"/><path class="cls-9" d="M256.71,5483.37a3.08,3.08,0,0,1-1,1.08,3.24,3.24,0,0,1-1.74.45,2.61,2.61,0,0,1-2-.76,3.17,3.17,0,0,1-.87-2.25,3.46,3.46,0,0,1,.94-2.42,2.69,2.69,0,0,1,2-.8,2.54,2.54,0,0,1,1.89.77,3.54,3.54,0,0,1,.83,2.49v0.17h-4.23a2,2,0,0,0,.5,1.19,1.4,1.4,0,0,0,1.05.38,1.45,1.45,0,0,0,.94-0.29,2.12,2.12,0,0,0,.55-0.64Zm-1.36-2.4a1.42,1.42,0,0,0-.42-0.8,1.43,1.43,0,0,0-1.89,0,1.54,1.54,0,0,0-.42.76h2.73Z" transform="translate(-121.39 -5384.83)"/></g><g class="cls-14"><path class="cls-9" d="M302.87,5430.39H296.6l3.24-3.92c0.32-.39.81-1,1.12-1.46a2.31,2.31,0,0,0,.49-1.34,1.46,1.46,0,0,0-1.55-1.51,1.66,1.66,0,0,0-1.65,1.69h-1.37a3.37,3.37,0,0,1,.78-2,3,3,0,0,1,5.2,1.91,3.44,3.44,0,0,1-.67,2,18.87,18.87,0,0,1-1.33,1.68l-1.46,1.72h3.49v1.32Z" transform="translate(-121.39 -5384.83)"/><path class="cls-9" d="M306.29,5429.53a5.68,5.68,0,0,1-1.19-3.81,5.73,5.73,0,0,1,1.19-3.82,2.72,2.72,0,0,1,4.23,0,5.73,5.73,0,0,1,1.19,3.82,5.68,5.68,0,0,1-1.19,3.81A2.72,2.72,0,0,1,306.29,5429.53Zm0.85-6.61a6.38,6.38,0,0,0,0,5.59,1.42,1.42,0,0,0,2.52,0,6.38,6.38,0,0,0,0-5.59A1.42,1.42,0,0,0,307.14,5422.92Z" transform="translate(-121.39 -5384.83)"/><path class="cls-9" d="M314.59,5429.53a5.68,5.68,0,0,1-1.19-3.81,5.73,5.73,0,0,1,1.19-3.82,2.72,2.72,0,0,1,4.23,0,5.73,5.73,0,0,1,1.19,3.82,5.68,5.68,0,0,1-1.19,3.81A2.72,2.72,0,0,1,314.59,5429.53Zm0.85-6.61a6.38,6.38,0,0,0,0,5.59,1.42,1.42,0,0,0,2.52,0,6.38,6.38,0,0,0,0-5.59A1.42,1.42,0,0,0,315.44,5422.92Z" transform="translate(-121.39 -5384.83)"/><path class="cls-9" d="M322.89,5429.53a5.68,5.68,0,0,1-1.19-3.81,5.73,5.73,0,0,1,1.19-3.82,2.72,2.72,0,0,1,4.23,0,5.73,5.73,0,0,1,1.19,3.82,5.68,5.68,0,0,1-1.19,3.81A2.72,2.72,0,0,1,322.89,5429.53Zm0.85-6.61a6.38,6.38,0,0,0,0,5.59,1.42,1.42,0,0,0,2.52,0,6.38,6.38,0,0,0,0-5.59A1.42,1.42,0,0,0,323.74,5422.92Z" transform="translate(-121.39 -5384.83)"/></g><path class="cls-9" d="M232,5386.08a4.47,4.47,0,0,1,2.5.62,3.31,3.31,0,0,1,1.42,2.78,3.2,3.2,0,0,1-1.11,2.5,4.13,4.13,0,0,1-2.8.89h-0.79v4.65h-1.75v-11.44H232Zm-0.77,5.18H232c1.51,0,2.23-.74,2.23-1.8,0-.63-0.26-1.77-2.25-1.77h-0.77v3.57Z" transform="translate(-121.39 -5384.83)"/><path class="cls-9" d="M243.69,5395.88a3.78,3.78,0,0,1-1.22,1.32,4,4,0,0,1-2.13.55,3.2,3.2,0,0,1-2.44-.93,3.88,3.88,0,0,1-1.06-2.76,4.23,4.23,0,0,1,1.15-3,3.29,3.29,0,0,1,2.42-1,3.11,3.11,0,0,1,2.32.94,4.33,4.33,0,0,1,1,3.05v0.21h-5.18a2.39,2.39,0,0,0,.62,1.46,1.72,1.72,0,0,0,1.29.46,1.77,1.77,0,0,0,1.15-.36,2.61,2.61,0,0,0,.67-0.79Zm-1.66-2.93a1.75,1.75,0,0,0-.51-1,1.75,1.75,0,0,0-2.32.05,1.9,1.9,0,0,0-.51.93H242Z" transform="translate(-121.39 -5384.83)"/><path class="cls-9" d="M245.5,5390.3h1.68V5391a2.88,2.88,0,0,1,.7-0.6,1.94,1.94,0,0,1,1-.24,2.49,2.49,0,0,1,1.32.34l-0.69,1.53a1.52,1.52,0,0,0-.86-0.26,1.31,1.31,0,0,0-1,.39,2.33,2.33,0,0,0-.46,1.66v3.74H245.5v-7.22Z" transform="translate(-121.39 -5384.83)"/><path class="cls-9" d="M256.25,5392.52a2.83,2.83,0,0,0-2-.89,2.16,2.16,0,0,0-1.6.63,2.31,2.31,0,0,0-.62,1.66,2.39,2.39,0,0,0,.65,1.73,2.18,2.18,0,0,0,1.53.58,2.81,2.81,0,0,0,2.08-.93v1.87a4,4,0,0,1-2.2.57,3.52,3.52,0,0,1-2.74-1.06,3.75,3.75,0,0,1-1-2.71,3.86,3.86,0,0,1,1.1-2.8,3.92,3.92,0,0,1,2.9-1.06,3.88,3.88,0,0,1,2,.51v1.89Z" transform="translate(-121.39 -5384.83)"/><path class="cls-9" d="M264.33,5395.88a3.78,3.78,0,0,1-1.22,1.32,4,4,0,0,1-2.13.55,3.2,3.2,0,0,1-2.44-.93,3.88,3.88,0,0,1-1.06-2.76,4.23,4.23,0,0,1,1.15-3,3.29,3.29,0,0,1,2.42-1,3.11,3.11,0,0,1,2.32.94,4.33,4.33,0,0,1,1,3.05v0.21H259.2a2.39,2.39,0,0,0,.62,1.46,1.72,1.72,0,0,0,1.29.46,1.77,1.77,0,0,0,1.15-.36,2.61,2.61,0,0,0,.67-0.79Zm-1.66-2.93a1.75,1.75,0,0,0-.51-1,1.75,1.75,0,0,0-2.32.05,1.9,1.9,0,0,0-.51.93h3.34Z" transform="translate(-121.39 -5384.83)"/><path class="cls-9" d="M266.12,5390.3h1.68V5391a2.49,2.49,0,0,1,2-.86,2.41,2.41,0,0,1,2.13,1,3.23,3.23,0,0,1,.45,2v4.42h-1.68v-4c0-1.83-.69-1.89-1.32-1.89s-1.53.1-1.53,2.43v3.46h-1.68v-7.22Z" transform="translate(-121.39 -5384.83)"/><path class="cls-9" d="M276.19,5391.85v5.68h-1.68v-5.68h-0.7v-1.54h0.7v-2.64h1.68v2.64h1.29v1.54h-1.29Z" transform="translate(-121.39 -5384.83)"/><path class="cls-9" d="M283.89,5390.3h1.68v7.22h-1.68v-0.75a2.77,2.77,0,0,1-2.16,1,3.57,3.57,0,0,1-3.5-3.84,3.53,3.53,0,0,1,3.52-3.79,2.63,2.63,0,0,1,2.14,1v-0.84Zm-3.94,3.64a2.11,2.11,0,0,0,2,2.3,2.32,2.32,0,0,0,0-4.61A2.1,2.1,0,0,0,279.95,5393.94Z" transform="translate(-121.39 -5384.83)"/><path class="cls-9" d="M293,5390.3h1.68v6.64c0,1.7-.19,2.92-1.18,3.76a3.67,3.67,0,0,1-2.4.77,3.19,3.19,0,0,1-2.37-.89,4.06,4.06,0,0,1-1.06-2.25h1.63a2.4,2.4,0,0,0,.53,1.13,1.72,1.72,0,0,0,1.3.5,1.8,1.8,0,0,0,1.32-.48,2.38,2.38,0,0,0,.55-1.82v-0.94a2.61,2.61,0,0,1-2.2,1,3.06,3.06,0,0,1-2.38-1,4.08,4.08,0,0,1-1.08-2.86,3.83,3.83,0,0,1,1.06-2.79,3.28,3.28,0,0,1,2.45-1,2.72,2.72,0,0,1,2.14,1v-0.79Zm-3.21,1.8a2.51,2.51,0,0,0-.74,1.83,2.48,2.48,0,0,0,.72,1.82,2,2,0,0,0,1.29.48,1.83,1.83,0,0,0,1.41-.58,2.67,2.67,0,0,0-.05-3.52,1.79,1.79,0,0,0-1.35-.51A1.74,1.74,0,0,0,289.78,5392.1Z" transform="translate(-121.39 -5384.83)"/><path class="cls-9" d="M303.26,5395.88a3.78,3.78,0,0,1-1.22,1.32,4,4,0,0,1-2.13.55,3.2,3.2,0,0,1-2.44-.93,3.88,3.88,0,0,1-1.06-2.76,4.23,4.23,0,0,1,1.15-3,3.29,3.29,0,0,1,2.42-1,3.11,3.11,0,0,1,2.32.94,4.33,4.33,0,0,1,1,3.05v0.21h-5.18a2.39,2.39,0,0,0,.62,1.46,1.72,1.72,0,0,0,1.29.46,1.77,1.77,0,0,0,1.15-.36,2.61,2.61,0,0,0,.67-0.79Zm-1.66-2.93a1.75,1.75,0,0,0-.51-1,1.75,1.75,0,0,0-2.32.05,1.9,1.9,0,0,0-.51.93h3.34Z" transform="translate(-121.39 -5384.83)"/><path class="cls-9" d="M316.4,5393.92a3.86,3.86,0,1,1-3.86-3.81A3.75,3.75,0,0,1,316.4,5393.92Zm-1.71,0a2.15,2.15,0,1,0-2.14,2.3A2.09,2.09,0,0,0,314.68,5393.94Z" transform="translate(-121.39 -5384.83)"/><path class="cls-9" d="M320,5391.85v5.68h-1.68v-5.68H317.6v-1.54h0.72v-2.5a3.2,3.2,0,0,1,.7-2.26,2.26,2.26,0,0,1,1.72-.7,2.67,2.67,0,0,1,1.08.21v1.66a1.45,1.45,0,0,0-.81-0.26,1,1,0,0,0-.74.27,1.19,1.19,0,0,0-.27.86v2.73h1.82v1.54H320Z" transform="translate(-121.39 -5384.83)"/><path class="cls-9" d="M330.26,5387.73v9.79h-1.75v-9.79h-2.62v-1.65h7v1.65h-2.62Z" transform="translate(-121.39 -5384.83)"/><path class="cls-9" d="M339.9,5395.88a3.78,3.78,0,0,1-1.22,1.32,4,4,0,0,1-2.13.55,3.2,3.2,0,0,1-2.44-.93,3.88,3.88,0,0,1-1.06-2.76,4.23,4.23,0,0,1,1.15-3,3.29,3.29,0,0,1,2.42-1,3.11,3.11,0,0,1,2.32.94,4.33,4.33,0,0,1,1,3.05v0.21h-5.18a2.39,2.39,0,0,0,.62,1.46,1.72,1.72,0,0,0,1.29.46,1.77,1.77,0,0,0,1.15-.36,2.61,2.61,0,0,0,.67-0.79Zm-1.66-2.93a1.75,1.75,0,0,0-.51-1,1.75,1.75,0,0,0-2.32.05,1.9,1.9,0,0,0-.51.93h3.34Z" transform="translate(-121.39 -5384.83)"/><path class="cls-9" d="M341.69,5390.3h1.68V5391a2.49,2.49,0,0,1,2-.86,2.41,2.41,0,0,1,2.13,1,3.23,3.23,0,0,1,.45,2v4.42h-1.68v-4c0-1.83-.69-1.89-1.32-1.89s-1.53.1-1.53,2.43v3.46h-1.68v-7.22Z" transform="translate(-121.39 -5384.83)"/><path class="cls-9" d="M351.71,5390.3v4.13a2.08,2.08,0,0,0,.31,1.3,1.46,1.46,0,0,0,2.2,0,2.08,2.08,0,0,0,.31-1.3v-4.13h1.68v4.18a3,3,0,0,1-.77,2.37,3.29,3.29,0,0,1-2.35.89,3.17,3.17,0,0,1-2.28-.89,3,3,0,0,1-.77-2.37v-4.18h1.68Z" transform="translate(-121.39 -5384.83)"/><path class="cls-9" d="M358.33,5390.3H360V5391a2.88,2.88,0,0,1,.7-0.6,1.94,1.94,0,0,1,1-.24,2.49,2.49,0,0,1,1.32.34l-0.69,1.53a1.52,1.52,0,0,0-.86-0.26,1.31,1.31,0,0,0-1,.39,2.33,2.33,0,0,0-.46,1.66v3.74h-1.68v-7.22Z" transform="translate(-121.39 -5384.83)"/><path class="cls-9" d="M370,5395.88a3.78,3.78,0,0,1-1.22,1.32,4,4,0,0,1-2.13.55,3.2,3.2,0,0,1-2.44-.93,3.88,3.88,0,0,1-1.06-2.76,4.23,4.23,0,0,1,1.15-3,3.29,3.29,0,0,1,2.42-1,3.11,3.11,0,0,1,2.32.94,4.33,4.33,0,0,1,1,3.05v0.21h-5.18a2.39,2.39,0,0,0,.62,1.46,1.72,1.72,0,0,0,1.29.46,1.77,1.77,0,0,0,1.15-.36,2.61,2.61,0,0,0,.67-0.79Zm-1.66-2.93a1.75,1.75,0,0,0-.51-1,1.75,1.75,0,0,0-2.32.05,1.9,1.9,0,0,0-.51.93h3.34Z" transform="translate(-121.39 -5384.83)"/><path class="cls-9" d="M372.45,5393h4.12v1.75h-4.12V5393Z" transform="translate(-121.39 -5384.83)"/><path class="cls-9" d="M385,5395.88a3.78,3.78,0,0,1-1.22,1.32,4,4,0,0,1-2.13.55,3.2,3.2,0,0,1-2.44-.93,3.88,3.88,0,0,1-1.06-2.76,4.23,4.23,0,0,1,1.15-3,3.29,3.29,0,0,1,2.42-1,3.11,3.11,0,0,1,2.32.94,4.33,4.33,0,0,1,1,3.05v0.21h-5.18a2.39,2.39,0,0,0,.62,1.46,1.72,1.72,0,0,0,1.29.46,1.77,1.77,0,0,0,1.15-.36,2.61,2.61,0,0,0,.67-0.79Zm-1.66-2.93a1.75,1.75,0,0,0-.51-1,1.75,1.75,0,0,0-2.32.05,1.9,1.9,0,0,0-.51.93h3.34Z" transform="translate(-121.39 -5384.83)"/><path class="cls-9" d="M388.44,5385v12.5h-1.68V5385h1.68Z" transform="translate(-121.39 -5384.83)"/><path class="cls-9" d="M391.4,5386.24a1.08,1.08,0,1,1-1.08,1.08A1.06,1.06,0,0,1,391.4,5386.24Zm0.84,4.06v7.22h-1.68v-7.22h1.68Z" transform="translate(-121.39 -5384.83)"/><path class="cls-9" d="M399.65,5390.3h1.68v6.64c0,1.7-.19,2.92-1.18,3.76a3.67,3.67,0,0,1-2.4.77,3.19,3.19,0,0,1-2.37-.89,4.06,4.06,0,0,1-1.06-2.25h1.63a2.4,2.4,0,0,0,.53,1.13,1.72,1.72,0,0,0,1.3.5,1.8,1.8,0,0,0,1.32-.48,2.38,2.38,0,0,0,.55-1.82v-0.94a2.61,2.61,0,0,1-2.2,1,3.06,3.06,0,0,1-2.38-1,4.08,4.08,0,0,1-1.08-2.86,3.83,3.83,0,0,1,1.06-2.79,3.28,3.28,0,0,1,2.45-1,2.72,2.72,0,0,1,2.14,1v-0.79Zm-3.21,1.8a2.51,2.51,0,0,0-.74,1.83,2.48,2.48,0,0,0,.72,1.82,2,2,0,0,0,1.29.48,1.83,1.83,0,0,0,1.41-.58,2.67,2.67,0,0,0-.05-3.52,1.79,1.79,0,0,0-1.35-.51A1.74,1.74,0,0,0,396.45,5392.1Z" transform="translate(-121.39 -5384.83)"/><path class="cls-9" d="M404.3,5386.24a1.08,1.08,0,1,1-1.08,1.08A1.06,1.06,0,0,1,404.3,5386.24Zm0.84,4.06v7.22h-1.68v-7.22h1.68Z" transform="translate(-121.39 -5384.83)"/><path class="cls-9" d="M409,5391.14a2.63,2.63,0,0,1,2.14-1,3.53,3.53,0,0,1,3.52,3.79,3.57,3.57,0,0,1-3.5,3.84,2.77,2.77,0,0,1-2.16-1v0.75h-1.68V5385H409v6.12Zm-0.1,2.81a2.06,2.06,0,0,0,2,2.28,2.33,2.33,0,0,0,0-4.61A2.07,2.07,0,0,0,408.85,5394Z" transform="translate(-121.39 -5384.83)"/><path class="cls-9" d="M418,5385v12.5h-1.68V5385H418Z" transform="translate(-121.39 -5384.83)"/><path class="cls-9" d="M426.64,5395.88a3.78,3.78,0,0,1-1.22,1.32,4,4,0,0,1-2.13.55,3.2,3.2,0,0,1-2.44-.93,3.88,3.88,0,0,1-1.06-2.76,4.23,4.23,0,0,1,1.15-3,3.29,3.29,0,0,1,2.42-1,3.11,3.11,0,0,1,2.32.94,4.33,4.33,0,0,1,1,3.05v0.21h-5.18a2.39,2.39,0,0,0,.62,1.46,1.72,1.72,0,0,0,1.29.46,1.77,1.77,0,0,0,1.15-.36,2.61,2.61,0,0,0,.67-0.79Zm-1.66-2.93a1.75,1.75,0,0,0-.51-1,1.75,1.75,0,0,0-2.32.05,1.9,1.9,0,0,0-.51.93H425Z" transform="translate(-121.39 -5384.83)"/><path class="cls-9" d="M439.78,5393.92a3.86,3.86,0,1,1-3.86-3.81A3.75,3.75,0,0,1,439.78,5393.92Zm-1.71,0a2.15,2.15,0,1,0-2.14,2.3A2.09,2.09,0,0,0,438.06,5393.94Z" transform="translate(-121.39 -5384.83)"/><path class="cls-9" d="M441.53,5390.3h1.68V5391a2.88,2.88,0,0,1,.7-0.6,1.94,1.94,0,0,1,1-.24,2.49,2.49,0,0,1,1.32.34l-0.69,1.53a1.52,1.52,0,0,0-.86-0.26,1.31,1.31,0,0,0-1,.39,2.33,2.33,0,0,0-.46,1.66v3.74h-1.68v-7.22Z" transform="translate(-121.39 -5384.83)"/><path class="cls-9" d="M454.71,5387.73v9.79H453v-9.79h-2.62v-1.65h7v1.65h-2.62Z" transform="translate(-121.39 -5384.83)"/><path class="cls-9" d="M464.35,5395.88a3.78,3.78,0,0,1-1.22,1.32,4,4,0,0,1-2.13.55,3.2,3.2,0,0,1-2.44-.93,3.88,3.88,0,0,1-1.06-2.76,4.23,4.23,0,0,1,1.15-3,3.29,3.29,0,0,1,2.42-1,3.11,3.11,0,0,1,2.32.94,4.33,4.33,0,0,1,1,3.05v0.21h-5.18a2.39,2.39,0,0,0,.62,1.46,1.72,1.72,0,0,0,1.29.46,1.77,1.77,0,0,0,1.15-.36,2.61,2.61,0,0,0,.67-0.79Zm-1.66-2.93a1.75,1.75,0,0,0-.51-1,1.75,1.75,0,0,0-2.32.05,1.9,1.9,0,0,0-.51.93h3.34Z" transform="translate(-121.39 -5384.83)"/><path class="cls-9" d="M466.13,5390.3h1.68V5391a2.49,2.49,0,0,1,2-.86,2.41,2.41,0,0,1,2.13,1,3.23,3.23,0,0,1,.45,2v4.42h-1.68v-4c0-1.83-.69-1.89-1.32-1.89s-1.53.1-1.53,2.43v3.46h-1.68v-7.22Z" transform="translate(-121.39 -5384.83)"/><path class="cls-9" d="M476.15,5390.3v4.13a2.08,2.08,0,0,0,.31,1.3,1.46,1.46,0,0,0,2.2,0,2.08,2.08,0,0,0,.31-1.3v-4.13h1.68v4.18a3,3,0,0,1-.77,2.37,3.29,3.29,0,0,1-2.35.89,3.17,3.17,0,0,1-2.28-.89,3,3,0,0,1-.77-2.37v-4.18h1.68Z" transform="translate(-121.39 -5384.83)"/><path class="cls-9" d="M482.77,5390.3h1.68V5391a2.88,2.88,0,0,1,.7-0.6,1.94,1.94,0,0,1,1-.24,2.49,2.49,0,0,1,1.32.34l-0.69,1.53a1.52,1.52,0,0,0-.86-0.26,1.31,1.31,0,0,0-1,.39,2.33,2.33,0,0,0-.46,1.66v3.74h-1.68v-7.22Z" transform="translate(-121.39 -5384.83)"/><path class="cls-9" d="M494.4,5395.88a3.78,3.78,0,0,1-1.22,1.32,4,4,0,0,1-2.13.55,3.2,3.2,0,0,1-2.44-.93,3.88,3.88,0,0,1-1.06-2.76,4.23,4.23,0,0,1,1.15-3,3.29,3.29,0,0,1,2.42-1,3.11,3.11,0,0,1,2.32.94,4.33,4.33,0,0,1,1,3.05v0.21h-5.18a2.39,2.39,0,0,0,.62,1.46,1.72,1.72,0,0,0,1.29.46,1.77,1.77,0,0,0,1.15-.36,2.61,2.61,0,0,0,.67-0.79Zm-1.66-2.93a1.75,1.75,0,0,0-.51-1,1.75,1.75,0,0,0-2.32.05,1.9,1.9,0,0,0-.51.93h3.34Z" transform="translate(-121.39 -5384.83)"/><path class="cls-9" d="M501.49,5385h1.68v12.5h-1.68v-0.75a2.77,2.77,0,0,1-2.16,1,3.57,3.57,0,0,1-3.5-3.84,3.53,3.53,0,0,1,3.52-3.79,2.63,2.63,0,0,1,2.14,1V5385Zm-3.94,8.92a2.11,2.11,0,0,0,2,2.3,2.32,2.32,0,0,0,0-4.61A2.1,2.1,0,0,0,497.54,5393.94Z" transform="translate(-121.39 -5384.83)"/><path class="cls-9" d="M515.33,5387.73h-4v2.9h3.84v1.65h-3.84v5.25H509.6v-11.44h5.73v1.65Z" transform="translate(-121.39 -5384.83)"/><path class="cls-9" d="M523.14,5395.88a3.78,3.78,0,0,1-1.22,1.32,4,4,0,0,1-2.13.55,3.2,3.2,0,0,1-2.44-.93,3.88,3.88,0,0,1-1.06-2.76,4.23,4.23,0,0,1,1.15-3,3.29,3.29,0,0,1,2.42-1,3.11,3.11,0,0,1,2.31.94,4.33,4.33,0,0,1,1,3.05v0.21H518a2.39,2.39,0,0,0,.62,1.46,1.72,1.72,0,0,0,1.29.46,1.77,1.77,0,0,0,1.15-.36,2.61,2.61,0,0,0,.67-0.79Zm-1.66-2.93a1.75,1.75,0,0,0-.51-1,1.75,1.75,0,0,0-2.32.05,1.9,1.9,0,0,0-.51.93h3.34Z" transform="translate(-121.39 -5384.83)"/><path class="cls-9" d="M524.94,5390.3h1.68V5391a2.23,2.23,0,0,1,1.78-.86,2.12,2.12,0,0,1,1.87,1.06,2.56,2.56,0,0,1,2.14-1.06,2.31,2.31,0,0,1,2.06,1.13,3.56,3.56,0,0,1,.38,1.82v4.46h-1.68v-4a3.36,3.36,0,0,0-.15-1.29,1,1,0,0,0-1-.63,1.24,1.24,0,0,0-1,.53,2.93,2.93,0,0,0-.33,1.65v3.72h-1.68v-4a3.36,3.36,0,0,0-.15-1.29,1,1,0,0,0-1-.63,1.24,1.24,0,0,0-1,.53,2.93,2.93,0,0,0-.33,1.65v3.72h-1.68v-7.22Z" transform="translate(-121.39 -5384.83)"/><path class="cls-9" d="M542.27,5390.3h1.68v7.22h-1.68v-0.75a2.77,2.77,0,0,1-2.16,1,3.57,3.57,0,0,1-3.5-3.84,3.53,3.53,0,0,1,3.52-3.79,2.63,2.63,0,0,1,2.14,1v-0.84Zm-3.94,3.64a2.11,2.11,0,0,0,2,2.3,2.32,2.32,0,0,0,0-4.61A2.1,2.1,0,0,0,538.32,5393.94Z" transform="translate(-121.39 -5384.83)"/><path class="cls-9" d="M547.76,5385v12.5h-1.68V5385h1.68Z" transform="translate(-121.39 -5384.83)"/><path class="cls-9" d="M556.35,5395.88a3.78,3.78,0,0,1-1.22,1.32,4,4,0,0,1-2.13.55,3.2,3.2,0,0,1-2.44-.93,3.88,3.88,0,0,1-1.06-2.76,4.23,4.23,0,0,1,1.15-3,3.29,3.29,0,0,1,2.42-1,3.11,3.11,0,0,1,2.31.94,4.33,4.33,0,0,1,1,3.05v0.21h-5.18a2.39,2.39,0,0,0,.62,1.46,1.72,1.72,0,0,0,1.29.46,1.77,1.77,0,0,0,1.15-.36,2.61,2.61,0,0,0,.67-0.79Zm-1.66-2.93a1.75,1.75,0,0,0-.51-1,1.75,1.75,0,0,0-2.32.05,1.9,1.9,0,0,0-.51.93h3.34Z" transform="translate(-121.39 -5384.83)"/><path class="cls-9" d="M568.19,5387.73h-4v2.9h3.84v1.65h-3.84v5.25h-1.75v-11.44h5.73v1.65Z" transform="translate(-121.39 -5384.83)"/><path class="cls-9" d="M574.73,5390.3h1.68v7.22h-1.68v-0.75a2.77,2.77,0,0,1-2.16,1,3.57,3.57,0,0,1-3.5-3.84,3.53,3.53,0,0,1,3.52-3.79,2.63,2.63,0,0,1,2.14,1v-0.84Zm-3.94,3.64a2.11,2.11,0,0,0,2,2.3,2.32,2.32,0,0,0,0-4.61A2.1,2.1,0,0,0,570.78,5393.94Z" transform="translate(-121.39 -5384.83)"/><path class="cls-9" d="M584.13,5392.52a2.83,2.83,0,0,0-2-.89,2.16,2.16,0,0,0-1.59.63,2.31,2.31,0,0,0-.62,1.66,2.39,2.39,0,0,0,.65,1.73,2.18,2.18,0,0,0,1.53.58,2.81,2.81,0,0,0,2.08-.93v1.87a4,4,0,0,1-2.2.57,3.52,3.52,0,0,1-2.74-1.06,3.75,3.75,0,0,1-1-2.71,3.86,3.86,0,0,1,1.1-2.8,3.92,3.92,0,0,1,2.9-1.06,3.87,3.87,0,0,1,2,.51v1.89Z" transform="translate(-121.39 -5384.83)"/><path class="cls-9" d="M587.42,5390.3v4.13a2.08,2.08,0,0,0,.31,1.3,1.46,1.46,0,0,0,2.2,0,2.07,2.07,0,0,0,.31-1.3v-4.13h1.68v4.18a3,3,0,0,1-.77,2.37,3.29,3.29,0,0,1-2.35.89,3.17,3.17,0,0,1-2.28-.89,3,3,0,0,1-.77-2.37v-4.18h1.68Z" transform="translate(-121.39 -5384.83)"/><path class="cls-9" d="M595.72,5385v12.5H594V5385h1.68Z" transform="translate(-121.39 -5384.83)"/><path class="cls-9" d="M599.58,5391.85v5.68H597.9v-5.68h-0.7v-1.54h0.7v-2.64h1.68v2.64h1.29v1.54h-1.29Z" transform="translate(-121.39 -5384.83)"/><path class="cls-9" d="M604.47,5396.39l-3.09-6.09h2l2.06,4.22,2.09-4.22h1.89l-5.75,11.15h-1.89Z" transform="translate(-121.39 -5384.83)"/><path class="cls-9" d="M616.29,5391.14a2.63,2.63,0,0,1,2.14-1,3.53,3.53,0,0,1,3.52,3.79,3.57,3.57,0,0,1-3.5,3.84,2.77,2.77,0,0,1-2.16-1v0.75h-1.68V5385h1.68v6.12Zm-0.1,2.81a2.06,2.06,0,0,0,2,2.28,2.33,2.33,0,0,0,0-4.61A2.07,2.07,0,0,0,616.19,5394Z" transform="translate(-121.39 -5384.83)"/><path class="cls-9" d="M625.66,5396.39l-3.09-6.09h2l2.06,4.22,2.09-4.22h1.89l-5.75,11.15H623Z" transform="translate(-121.39 -5384.83)"/><path class="cls-9" d="M638.51,5386.08a6.66,6.66,0,0,1,4.25,1.11,5.66,5.66,0,0,1,2.2,4.61,5.46,5.46,0,0,1-2.3,4.61,6.56,6.56,0,0,1-4.18,1.1h-2.37v-11.44h2.4Zm-0.65,9.79h0.75a5,5,0,0,0,3-.81,4,4,0,0,0,1.56-3.26,4.07,4.07,0,0,0-1.54-3.29,5.12,5.12,0,0,0-3.05-.79h-0.75v8.15Z" transform="translate(-121.39 -5384.83)"/><path class="cls-9" d="M647.69,5386.24a1.08,1.08,0,1,1-1.08,1.08A1.05,1.05,0,0,1,647.69,5386.24Zm0.84,4.06v7.22h-1.68v-7.22h1.68Z" transform="translate(-121.39 -5384.83)"/><path class="cls-9" d="M653.81,5392.21a1.21,1.21,0,0,0-1-.62,0.71,0.71,0,0,0-.51.19,0.54,0.54,0,0,0-.15.38,0.46,0.46,0,0,0,.24.41c0.1,0.07.21,0.1,0.57,0.29l0.86,0.43a3.44,3.44,0,0,1,1,.67,1.78,1.78,0,0,1,.53,1.34,2.4,2.4,0,0,1-.63,1.65,2.58,2.58,0,0,1-2,.81,2.48,2.48,0,0,1-1.56-.46,2.81,2.81,0,0,1-.93-1.32l1.37-.65a1.91,1.91,0,0,0,.39.69,1,1,0,0,0,.74.27,1,1,0,0,0,.69-0.24,0.85,0.85,0,0,0,.24-0.57,0.78,0.78,0,0,0-.22-0.55,2.2,2.2,0,0,0-.72-0.45l-0.62-.29a3.57,3.57,0,0,1-1-.62,1.57,1.57,0,0,1-.51-1.22,2.25,2.25,0,0,1,.6-1.54,2.33,2.33,0,0,1,1.77-.69,2.26,2.26,0,0,1,1.34.38,2.47,2.47,0,0,1,.82.89Z" transform="translate(-121.39 -5384.83)"/><path class="cls-9" d="M662.42,5392.52a2.83,2.83,0,0,0-2-.89,2.16,2.16,0,0,0-1.59.63,2.31,2.31,0,0,0-.62,1.66,2.39,2.39,0,0,0,.65,1.73,2.18,2.18,0,0,0,1.53.58,2.81,2.81,0,0,0,2.08-.93v1.87a4,4,0,0,1-2.2.57,3.52,3.52,0,0,1-2.74-1.06,3.75,3.75,0,0,1-1-2.71,3.86,3.86,0,0,1,1.1-2.8,3.92,3.92,0,0,1,2.9-1.06,3.87,3.87,0,0,1,2,.51v1.89Z" transform="translate(-121.39 -5384.83)"/><path class="cls-9" d="M664.88,5386.24a1.08,1.08,0,1,1-1.08,1.08A1.05,1.05,0,0,1,664.88,5386.24Zm0.84,4.06v7.22H664v-7.22h1.68Z" transform="translate(-121.39 -5384.83)"/><path class="cls-9" d="M669.53,5401.45h-1.68V5390.3h1.68v0.79a2.72,2.72,0,0,1,2.14-1,3.53,3.53,0,0,1,3.52,3.76,3.65,3.65,0,0,1-3.5,3.88,2.87,2.87,0,0,1-2.16-1.06v4.77Zm-0.1-7.5a2.06,2.06,0,0,0,2,2.28,2.33,2.33,0,0,0,0-4.61A2.07,2.07,0,0,0,669.42,5394Z" transform="translate(-121.39 -5384.83)"/><path class="cls-9" d="M678.62,5385v12.5h-1.68V5385h1.68Z" transform="translate(-121.39 -5384.83)"/><path class="cls-9" d="M681.59,5386.24a1.08,1.08,0,1,1-1.08,1.08A1.05,1.05,0,0,1,681.59,5386.24Zm0.84,4.06v7.22h-1.68v-7.22h1.68Z" transform="translate(-121.39 -5384.83)"/><path class="cls-9" d="M684.54,5390.3h1.68V5391a2.49,2.49,0,0,1,2-.86,2.41,2.41,0,0,1,2.13,1,3.23,3.23,0,0,1,.45,2v4.42h-1.68v-4c0-1.83-.69-1.89-1.32-1.89s-1.53.1-1.53,2.43v3.46h-1.68v-7.22Z" transform="translate(-121.39 -5384.83)"/><path class="cls-9" d="M699.34,5395.88a3.78,3.78,0,0,1-1.22,1.32,4,4,0,0,1-2.13.55,3.2,3.2,0,0,1-2.44-.93,3.88,3.88,0,0,1-1.06-2.76,4.23,4.23,0,0,1,1.15-3,3.29,3.29,0,0,1,2.42-1,3.11,3.11,0,0,1,2.31.94,4.33,4.33,0,0,1,1,3.05v0.21h-5.18a2.39,2.39,0,0,0,.62,1.46,1.72,1.72,0,0,0,1.29.46,1.77,1.77,0,0,0,1.15-.36,2.61,2.61,0,0,0,.67-0.79Zm-1.66-2.93a1.75,1.75,0,0,0-.51-1,1.75,1.75,0,0,0-2.32.05,1.9,1.9,0,0,0-.51.93h3.34Z" transform="translate(-121.39 -5384.83)"/><path class="cls-9" d="M701.75,5395.38l1.51,0.58-2.13,4.24-1.13-.46Z" transform="translate(-121.39 -5384.83)"/><path class="cls-9" d="M709.48,5397.52v-12.21l8.3,8.7v-7.92h1.75v12.14l-8.3-8.7v8h-1.75Z" transform="translate(-121.39 -5384.83)"/><path class="cls-9" d="M724.66,5392.58l-3.76-6.5h2l2.64,4.58,2.64-4.58h2l-3.76,6.5v4.94h-1.75v-4.94Z" transform="translate(-121.39 -5384.83)"/><path class="cls-9" d="M733.29,5386.08V5393a4,4,0,0,0,.36,2,2.5,2.5,0,0,0,4.25,0,4,4,0,0,0,.36-2v-6.89H740v7.36a4.23,4.23,0,0,1-1.06,3,4.43,4.43,0,0,1-6.35,0,4.23,4.23,0,0,1-1.06-3v-7.36h1.75Z" transform="translate(-121.39 -5384.83)"/><path class="cls-9" d="M755.71,5393.32l-1.36,1.56,2.11,2.64h-2.13l-1.13-1.41a6.73,6.73,0,0,1-1,.84,4,4,0,0,1-2.5.79,3.18,3.18,0,0,1-3.43-3.28,3.43,3.43,0,0,1,1.65-3l0.91-.63a3.55,3.55,0,0,1-1.13-2.37,2.73,2.73,0,0,1,5.45-.17,2.41,2.41,0,0,1-.5,1.49,6.91,6.91,0,0,1-1.42,1.32l2,2.47,1.3-1.47Zm-5.81-1.18a5.38,5.38,0,0,0-1.25.94,2.12,2.12,0,0,0-.62,1.46,1.72,1.72,0,0,0,1.78,1.73,2.24,2.24,0,0,0,1.29-.45,10.41,10.41,0,0,0,1.06-.94Zm1-2.66a1.46,1.46,0,0,0,.69-1.13,1,1,0,0,0-1.13-1,1,1,0,0,0-1.1,1,1.64,1.64,0,0,0,.39,1l0.51,0.62Z" transform="translate(-121.39 -5384.83)"/><path class="cls-9" d="M770.31,5388.76a4.46,4.46,0,0,0-3.1-1.27,4.09,4.09,0,0,0-4.17,4.36,4.13,4.13,0,0,0,4.19,4.29,4.54,4.54,0,0,0,3.09-1.32v2.08a6.24,6.24,0,0,1-3.14.86,5.74,5.74,0,0,1-4-1.58,5.61,5.61,0,0,1-1.83-4.32,6,6,0,0,1,1.83-4.48,5.66,5.66,0,0,1,4.13-1.49,5.44,5.44,0,0,1,3.05.82v2.06Z" transform="translate(-121.39 -5384.83)"/><path class="cls-9" d="M779.51,5393.92a3.86,3.86,0,1,1-3.86-3.81A3.75,3.75,0,0,1,779.51,5393.92Zm-1.72,0a2.15,2.15,0,1,0-2.14,2.3A2.09,2.09,0,0,0,777.79,5393.94Z" transform="translate(-121.39 -5384.83)"/><path class="cls-9" d="M782.94,5385v12.5h-1.68V5385h1.68Z" transform="translate(-121.39 -5384.83)"/><path class="cls-9" d="M786.75,5390.3v4.13a2.08,2.08,0,0,0,.31,1.3,1.46,1.46,0,0,0,2.2,0,2.07,2.07,0,0,0,.31-1.3v-4.13h1.68v4.18a3,3,0,0,1-.77,2.37,3.29,3.29,0,0,1-2.35.89,3.17,3.17,0,0,1-2.28-.89,3,3,0,0,1-.77-2.37v-4.18h1.68Z" transform="translate(-121.39 -5384.83)"/><path class="cls-9" d="M793.37,5390.3h1.68V5391a2.23,2.23,0,0,1,1.78-.86,2.12,2.12,0,0,1,1.87,1.06,2.56,2.56,0,0,1,2.14-1.06,2.31,2.31,0,0,1,2.06,1.13,3.56,3.56,0,0,1,.38,1.82v4.46H801.6v-4a3.36,3.36,0,0,0-.15-1.29,1,1,0,0,0-1-.63,1.24,1.24,0,0,0-1,.53,2.93,2.93,0,0,0-.33,1.65v3.72h-1.68v-4a3.36,3.36,0,0,0-.15-1.29,1,1,0,0,0-1-.63,1.24,1.24,0,0,0-1,.53,2.93,2.93,0,0,0-.33,1.65v3.72h-1.68v-7.22Z" transform="translate(-121.39 -5384.83)"/><path class="cls-9" d="M807.1,5391.14a2.63,2.63,0,0,1,2.14-1,3.53,3.53,0,0,1,3.52,3.79,3.57,3.57,0,0,1-3.5,3.84,2.77,2.77,0,0,1-2.16-1v0.75h-1.68V5385h1.68v6.12ZM807,5394a2.06,2.06,0,0,0,2,2.28,2.33,2.33,0,0,0,0-4.61A2.07,2.07,0,0,0,807,5394Z" transform="translate(-121.39 -5384.83)"/><path class="cls-9" d="M815.35,5386.24a1.08,1.08,0,1,1-1.08,1.08A1.05,1.05,0,0,1,815.35,5386.24Zm0.84,4.06v7.22h-1.68v-7.22h1.68Z" transform="translate(-121.39 -5384.83)"/><path class="cls-9" d="M823.6,5390.3h1.68v7.22H823.6v-0.75a2.77,2.77,0,0,1-2.16,1,3.57,3.57,0,0,1-3.5-3.84,3.53,3.53,0,0,1,3.52-3.79,2.63,2.63,0,0,1,2.14,1v-0.84Zm-3.94,3.64a2.11,2.11,0,0,0,2,2.3,2.32,2.32,0,0,0,0-4.61A2.1,2.1,0,0,0,819.65,5393.94Z" transform="translate(-121.39 -5384.83)"/><path class="cls-9" d="M164.36,5454.08a3.64,3.64,0,0,0-2.54-1,3.34,3.34,0,0,0-3.4,3.56,3.37,3.37,0,0,0,3.42,3.5,3.71,3.71,0,0,0,2.52-1.08v1.69a5.1,5.1,0,0,1-2.56.7,4.68,4.68,0,0,1-3.31-1.29,4.58,4.58,0,0,1-1.5-3.53,4.89,4.89,0,0,1,1.5-3.66,4.63,4.63,0,0,1,3.38-1.22,4.44,4.44,0,0,1,2.49.67v1.68Z" transform="translate(-121.39 -5384.83)"/><path class="cls-9" d="M171.87,5458.29a3.15,3.15,0,1,1-3.15-3.11A3.06,3.06,0,0,1,171.87,5458.29Zm-1.4,0a1.76,1.76,0,1,0-1.75,1.88A1.71,1.71,0,0,0,170.46,5458.31Z" transform="translate(-121.39 -5384.83)"/><path class="cls-9" d="M174.66,5451v10.21h-1.37V5451h1.37Z" transform="translate(-121.39 -5384.83)"/><path class="cls-9" d="M177.77,5455.34v3.38a1.7,1.7,0,0,0,.25,1.06,1.19,1.19,0,0,0,1.79,0,1.7,1.7,0,0,0,.25-1.06v-3.38h1.37v3.42a2.47,2.47,0,0,1-.63,1.93,2.69,2.69,0,0,1-1.92.73,2.59,2.59,0,0,1-1.86-.73,2.47,2.47,0,0,1-.63-1.93v-3.42h1.37Z" transform="translate(-121.39 -5384.83)"/><path class="cls-9" d="M183.17,5455.34h1.37v0.55a1.82,1.82,0,0,1,1.46-.7,1.73,1.73,0,0,1,1.53.87,2.09,2.09,0,0,1,1.75-.87,1.89,1.89,0,0,1,1.68.92,2.91,2.91,0,0,1,.31,1.49v3.64H189.9V5458a2.73,2.73,0,0,0-.13-1.05,0.78,0.78,0,0,0-.78-0.52,1,1,0,0,0-.81.43,2.39,2.39,0,0,0-.27,1.34v3h-1.37V5458a2.73,2.73,0,0,0-.13-1.05,0.78,0.78,0,0,0-.78-0.52,1,1,0,0,0-.81.43,2.39,2.39,0,0,0-.27,1.34v3h-1.37v-5.9Z" transform="translate(-121.39 -5384.83)"/><path class="cls-9" d="M194.37,5456a2.15,2.15,0,0,1,1.75-.84,2.88,2.88,0,0,1,2.87,3.09,2.92,2.92,0,0,1-2.86,3.14,2.26,2.26,0,0,1-1.77-.8v0.62H193V5451h1.37v5Zm-0.08,2.3a1.68,1.68,0,0,0,1.67,1.86,1.9,1.9,0,0,0,0-3.77A1.69,1.69,0,0,0,194.29,5458.32Z" transform="translate(-121.39 -5384.83)"/><path class="cls-9" d="M201.11,5452a0.88,0.88,0,1,1-.88.88A0.86,0.86,0,0,1,201.11,5452Zm0.69,3.32v5.9h-1.37v-5.9h1.37Z" transform="translate(-121.39 -5384.83)"/><path class="cls-9" d="M207.84,5455.34h1.37v5.9h-1.37v-0.62a2.26,2.26,0,0,1-1.76.8,2.92,2.92,0,0,1-2.86-3.14,2.88,2.88,0,0,1,2.87-3.09,2.15,2.15,0,0,1,1.75.84v-0.69Zm-3.22,3a1.72,1.72,0,0,0,1.64,1.88,1.9,1.9,0,0,0,0-3.77A1.72,1.72,0,0,0,204.62,5458.31Z" transform="translate(-121.39 -5384.83)"/><path class="cls-9" d="M218.5,5454a1.45,1.45,0,0,0-1.43-.92,1.16,1.16,0,0,0-1.32,1.12,1.24,1.24,0,0,0,1,1.13l0.94,0.38c1.72,0.7,2.2,1.68,2.2,2.75a2.88,2.88,0,0,1-3,3,2.73,2.73,0,0,1-2.2-.94,3,3,0,0,1-.78-1.82l1.41-.31a2,2,0,0,0,.39,1.19,1.47,1.47,0,0,0,1.22.56,1.5,1.5,0,0,0,1.54-1.57,1.75,1.75,0,0,0-1.34-1.6l-0.9-.38a2.64,2.64,0,0,1-1.91-2.37,2.52,2.52,0,0,1,2.73-2.46,2.76,2.76,0,0,1,1.88.63,3.17,3.17,0,0,1,.71.94Z" transform="translate(-121.39 -5384.83)"/><path class="cls-9" d="M226,5457.14a2.31,2.31,0,0,0-1.67-.73,1.77,1.77,0,0,0-1.3.52,1.89,1.89,0,0,0-.5,1.36,2,2,0,0,0,.53,1.42,1.78,1.78,0,0,0,1.25.48,2.3,2.3,0,0,0,1.69-.76V5461a3.23,3.23,0,0,1-1.79.46,2.87,2.87,0,0,1-2.24-.87,3.06,3.06,0,0,1-.84-2.21,3.15,3.15,0,0,1,.9-2.28,3.2,3.2,0,0,1,2.37-.87,3.16,3.16,0,0,1,1.61.42v1.54Z" transform="translate(-121.39 -5384.83)"/><path class="cls-9" d="M228,5452a0.88,0.88,0,1,1-.88.88A0.86,0.86,0,0,1,228,5452Zm0.69,3.32v5.9h-1.37v-5.9h1.37Z" transform="translate(-121.39 -5384.83)"/><path class="cls-9" d="M235.7,5459.89a3.08,3.08,0,0,1-1,1.08,3.24,3.24,0,0,1-1.74.45,2.61,2.61,0,0,1-2-.76,3.17,3.17,0,0,1-.87-2.25,3.46,3.46,0,0,1,.94-2.42,2.69,2.69,0,0,1,2-.8,2.54,2.54,0,0,1,1.89.77,3.54,3.54,0,0,1,.83,2.49v0.17h-4.23a2,2,0,0,0,.5,1.19,1.4,1.4,0,0,0,1.05.38,1.45,1.45,0,0,0,.94-0.29,2.12,2.12,0,0,0,.55-0.64Zm-1.36-2.4a1.42,1.42,0,0,0-.42-0.8,1.43,1.43,0,0,0-1.89,0,1.54,1.54,0,0,0-.42.76h2.73Z" transform="translate(-121.39 -5384.83)"/><path class="cls-9" d="M237.16,5455.34h1.37v0.55a2,2,0,0,1,1.6-.7,2,2,0,0,1,1.74.8,2.63,2.63,0,0,1,.36,1.64v3.61h-1.37V5458c0-1.5-.56-1.54-1.08-1.54s-1.25.08-1.25,2v2.83h-1.37v-5.9Z" transform="translate(-121.39 -5384.83)"/><path class="cls-9" d="M248.53,5457.14a2.31,2.31,0,0,0-1.67-.73,1.77,1.77,0,0,0-1.3.52,1.89,1.89,0,0,0-.5,1.36,2,2,0,0,0,.53,1.42,1.78,1.78,0,0,0,1.25.48,2.3,2.3,0,0,0,1.69-.76V5461a3.23,3.23,0,0,1-1.79.46,2.87,2.87,0,0,1-2.24-.87,3.06,3.06,0,0,1-.84-2.21,3.15,3.15,0,0,1,.9-2.28,3.2,3.2,0,0,1,2.37-.87,3.16,3.16,0,0,1,1.61.42v1.54Z" transform="translate(-121.39 -5384.83)"/><path class="cls-9" d="M255.12,5459.89a3.08,3.08,0,0,1-1,1.08,3.24,3.24,0,0,1-1.74.45,2.61,2.61,0,0,1-2-.76,3.17,3.17,0,0,1-.87-2.25,3.46,3.46,0,0,1,.94-2.42,2.69,2.69,0,0,1,2-.8,2.54,2.54,0,0,1,1.89.77,3.54,3.54,0,0,1,.83,2.49v0.17h-4.23a2,2,0,0,0,.5,1.19,1.4,1.4,0,0,0,1.05.38,1.45,1.45,0,0,0,.94-0.29,2.12,2.12,0,0,0,.55-0.64Zm-1.36-2.4a1.42,1.42,0,0,0-.42-0.8,1.43,1.43,0,0,0-1.89,0,1.54,1.54,0,0,0-.42.76h2.73Z" transform="translate(-121.39 -5384.83)"/></svg>