<svg id="slide_7" data-name="slide 7" xmlns="http://www.w3.org/2000/svg" viewBox="0 0 550.03 724.58"><defs><style>.cls-1{fill:#4d4d4d;}.cls-2{fill:#ff0;}.cls-3{fill:#f7931e;}.cls-4{fill:#f15a24;}.cls-5{fill:#d4145a;}.cls-6{fill:#fff;}</style></defs><title>pt2_graph2_before</title><path class="cls-1" d="M464.44,6150.44l1.36,39a39,39,0,1,1-2.72-77.92l1.36,0v39Z" transform="translate(-370.55 -6031.41)"/><path class="cls-1" d="M578.79,6150.78l37.47,10.74a39,39,0,1,1-37.47-49.73v39Z" transform="translate(-370.55 -6031.41)"/><path class="cls-1" d="M693.09,6150.78l20.08-33.41a39,39,0,1,1-53.49,13.34,38.33,38.33,0,0,1,33.41-18.9v39Z" transform="translate(-370.55 -6031.41)"/><path class="cls-1" d="M807.39,6150.78l18.9-34.09a39,39,0,1,1-53,15.2,38.49,38.49,0,0,1,34.09-20.08v39Z" transform="translate(-370.55 -6031.41)"/><path class="cls-2" d="M464.44,6150.44v-39a39,39,0,0,1,1.36,77.94Z" transform="translate(-370.55 -6031.41)"/><path class="cls-3" d="M578.79,6150.78v-39a39,39,0,0,1,39,39,35,35,0,0,1-1.51,10.74Z" transform="translate(-370.55 -6031.41)"/><path class="cls-4" d="M693.09,6150.78v-39a36.48,36.48,0,0,1,20.08,5.57Z" transform="translate(-370.55 -6031.41)"/><path class="cls-5" d="M807.39,6150.78v-39a36.16,36.16,0,0,1,18.9,4.89Z" transform="translate(-370.55 -6031.41)"/><path class="cls-1" d="M464.1,6377.19l-9.34,37.44a38.59,38.59,0,0,1,9.34-76v38.59Z" transform="translate(-370.55 -6031.41)"/><path class="cls-1" d="M578.39,6376.91l21,32.36a38.59,38.59,0,0,1-42-64.72,37.56,37.56,0,0,1,21-6.23v38.59Z" transform="translate(-370.55 -6031.41)"/><path class="cls-1" d="M693.25,6377.3l38.3,2.68a38.39,38.39,0,1,1-38.3-41.07v38.39Z" transform="translate(-370.55 -6031.41)"/><path class="cls-1" d="M807,6376.91l24.28-30a38.59,38.59,0,1,1-54.27,5.7,37.74,37.74,0,0,1,30-14.3v38.59Z" transform="translate(-370.55 -6031.41)"/><path class="cls-2" d="M464.1,6377.19V6338.6a38.59,38.59,0,0,1,0,77.18,35.63,35.63,0,0,1-9.34-1.15Z" transform="translate(-370.55 -6031.41)"/><path class="cls-3" d="M578.39,6376.91v-38.59A38.59,38.59,0,0,1,617,6376.91a37.17,37.17,0,0,1-17.57,32.36Z" transform="translate(-370.55 -6031.41)"/><path class="cls-4" d="M693.25,6377.3v-38.39a38.39,38.39,0,0,1,38.39,38.39c0,1.06,0,1.62-.09,2.68Z" transform="translate(-370.55 -6031.41)"/><path class="cls-5" d="M807,6376.91v-38.59a36.51,36.51,0,0,1,24.28,8.6Z" transform="translate(-370.55 -6031.41)"/><path class="cls-6" d="M372.93,6032.59a4.22,4.22,0,0,1,2.37.58,3.13,3.13,0,0,1,1.35,2.63,3,3,0,0,1-1.05,2.37,3.9,3.9,0,0,1-2.64.84H372.2v4.39h-1.65v-10.81h2.38Zm-0.73,4.89h0.75c1.43,0,2.11-.7,2.11-1.7,0-.6-0.24-1.67-2.12-1.67H372.2v3.37Z" transform="translate(-370.55 -6031.41)"/><path class="cls-6" d="M384,6041.85a3.58,3.58,0,0,1-1.15,1.25,3.76,3.76,0,0,1-2,.52,3,3,0,0,1-2.3-.87,3.66,3.66,0,0,1-1-2.61,4,4,0,0,1,1.09-2.8,3.11,3.11,0,0,1,2.28-.92,2.94,2.94,0,0,1,2.19.89,4.1,4.1,0,0,1,1,2.88v0.19h-4.89a2.25,2.25,0,0,0,.58,1.38,1.62,1.62,0,0,0,1.21.44,1.67,1.67,0,0,0,1.09-.34,2.47,2.47,0,0,0,.63-0.75Zm-1.57-2.77a1.65,1.65,0,0,0-.49-0.92,1.52,1.52,0,0,0-1.07-.39,1.53,1.53,0,0,0-1.12.44,1.79,1.79,0,0,0-.49.88h3.16Z" transform="translate(-370.55 -6031.41)"/><path class="cls-6" d="M385.68,6036.58h1.59v0.62a2.76,2.76,0,0,1,.66-0.57,1.83,1.83,0,0,1,1-.23,2.36,2.36,0,0,1,1.25.32l-0.65,1.44a1.44,1.44,0,0,0-.81-0.24,1.24,1.24,0,0,0-1,.37,2.2,2.2,0,0,0-.44,1.57v3.53h-1.59v-6.82Z" transform="translate(-370.55 -6031.41)"/><path class="cls-6" d="M395.84,6038.67a2.67,2.67,0,0,0-1.93-.84,2,2,0,0,0-1.51.6,2.18,2.18,0,0,0-.58,1.57,2.26,2.26,0,0,0,.62,1.64,2.06,2.06,0,0,0,1.44.55,2.66,2.66,0,0,0,2-.87v1.77a3.73,3.73,0,0,1-2.07.54,3.32,3.32,0,0,1-2.59-1,3.55,3.55,0,0,1-1-2.56,3.64,3.64,0,0,1,1-2.64,3.71,3.71,0,0,1,2.74-1,3.66,3.66,0,0,1,1.86.49v1.78Z" transform="translate(-370.55 -6031.41)"/><path class="cls-6" d="M403.47,6041.85a3.58,3.58,0,0,1-1.15,1.25,3.76,3.76,0,0,1-2,.52,3,3,0,0,1-2.3-.87,3.66,3.66,0,0,1-1-2.61,4,4,0,0,1,1.09-2.8,3.11,3.11,0,0,1,2.28-.92,2.94,2.94,0,0,1,2.19.89,4.1,4.1,0,0,1,1,2.88v0.19h-4.89a2.25,2.25,0,0,0,.58,1.38,1.62,1.62,0,0,0,1.21.44,1.67,1.67,0,0,0,1.09-.34,2.47,2.47,0,0,0,.63-0.75Zm-1.57-2.77a1.65,1.65,0,0,0-.49-0.92,1.52,1.52,0,0,0-1.07-.39,1.53,1.53,0,0,0-1.12.44,1.79,1.79,0,0,0-.49.88h3.16Z" transform="translate(-370.55 -6031.41)"/><path class="cls-6" d="M405.15,6036.58h1.59v0.63a2.35,2.35,0,0,1,1.85-.81,2.28,2.28,0,0,1,2,.92,3.05,3.05,0,0,1,.42,1.9v4.18h-1.59v-3.79c0-1.73-.65-1.78-1.25-1.78s-1.44.1-1.44,2.3v3.27h-1.59v-6.82Z" transform="translate(-370.55 -6031.41)"/><path class="cls-6" d="M414.66,6038v5.36h-1.59V6038h-0.67v-1.46h0.67v-2.5h1.59v2.5h1.21V6038h-1.21Z" transform="translate(-370.55 -6031.41)"/><path class="cls-6" d="M421.94,6036.58h1.59v6.82h-1.59v-0.71a2.62,2.62,0,0,1-2,.92,3.38,3.38,0,0,1-3.31-3.63,3.33,3.33,0,0,1,3.32-3.58,2.49,2.49,0,0,1,2,1v-0.79Zm-3.73,3.44a2,2,0,0,0,1.9,2.17,2.2,2.2,0,0,0,0-4.36A2,2,0,0,0,418.21,6040Z" transform="translate(-370.55 -6031.41)"/><path class="cls-6" d="M430.52,6036.58h1.59v6.27c0,1.6-.18,2.75-1.12,3.55a3.47,3.47,0,0,1-2.27.73,3,3,0,0,1-2.24-.84,3.84,3.84,0,0,1-1-2.12H427a2.26,2.26,0,0,0,.5,1.07,1.62,1.62,0,0,0,1.23.47,1.71,1.71,0,0,0,1.25-.45,2.25,2.25,0,0,0,.52-1.72v-0.89a2.47,2.47,0,0,1-2.07,1,2.89,2.89,0,0,1-2.25-.92,3.86,3.86,0,0,1-1-2.71,3.62,3.62,0,0,1,1-2.64,3.1,3.1,0,0,1,2.32-.94,2.57,2.57,0,0,1,2,.92v-0.75Zm-3,1.7a2.37,2.37,0,0,0-.7,1.73,2.34,2.34,0,0,0,.68,1.72,1.86,1.86,0,0,0,1.22.45,1.73,1.73,0,0,0,1.33-.55,2.52,2.52,0,0,0,0-3.32,1.69,1.69,0,0,0-1.28-.49A1.64,1.64,0,0,0,427.49,6038.28Z" transform="translate(-370.55 -6031.41)"/><path class="cls-6" d="M440.23,6041.85a3.57,3.57,0,0,1-1.15,1.25,3.75,3.75,0,0,1-2,.52,3,3,0,0,1-2.3-.87,3.66,3.66,0,0,1-1-2.61,4,4,0,0,1,1.09-2.8,3.11,3.11,0,0,1,2.28-.92,2.94,2.94,0,0,1,2.19.89,4.1,4.1,0,0,1,1,2.88v0.19h-4.89a2.25,2.25,0,0,0,.58,1.38,1.62,1.62,0,0,0,1.22.44,1.67,1.67,0,0,0,1.09-.34,2.47,2.47,0,0,0,.63-0.75Zm-1.57-2.77a1.65,1.65,0,0,0-.49-0.92,1.52,1.52,0,0,0-1.07-.39,1.53,1.53,0,0,0-1.12.44,1.79,1.79,0,0,0-.49.88h3.16Z" transform="translate(-370.55 -6031.41)"/><path class="cls-6" d="M452.64,6040a3.65,3.65,0,1,1-3.65-3.6A3.54,3.54,0,0,1,452.64,6040Zm-1.62,0a2,2,0,1,0-2,2.17A2,2,0,0,0,451,6040Z" transform="translate(-370.55 -6031.41)"/><path class="cls-6" d="M456,6038v5.36h-1.59V6038h-0.68v-1.46h0.68v-2.37a3,3,0,0,1,.66-2.14,2.14,2.14,0,0,1,1.62-.66,2.53,2.53,0,0,1,1,.19v1.57a1.37,1.37,0,0,0-.76-0.24,0.92,0.92,0,0,0-.7.26,1.13,1.13,0,0,0-.26.81v2.58h1.72V6038H456Z" transform="translate(-370.55 -6031.41)"/><path class="cls-6" d="M463.28,6032.59l2.85,7.23,2.92-7.75,2.82,7.75,2.95-7.23h1.78l-4.83,11.51-2.82-7.67-2.85,7.67-4.6-11.51h1.78Z" transform="translate(-370.55 -6031.41)"/><path class="cls-6" d="M484.11,6040a3.65,3.65,0,1,1-3.65-3.6A3.54,3.54,0,0,1,484.11,6040Zm-1.62,0a2,2,0,1,0-2,2.17A2,2,0,0,0,482.49,6040Z" transform="translate(-370.55 -6031.41)"/><path class="cls-6" d="M485.76,6036.58h1.59v0.63a2.1,2.1,0,0,1,1.69-.81,2,2,0,0,1,1.77,1,2.42,2.42,0,0,1,2-1,2.18,2.18,0,0,1,1.94,1.07,3.36,3.36,0,0,1,.36,1.72v4.21h-1.59v-3.76a3.14,3.14,0,0,0-.15-1.21,0.9,0.9,0,0,0-.91-0.6,1.17,1.17,0,0,0-.94.5,2.77,2.77,0,0,0-.31,1.56v3.52h-1.59v-3.76a3.17,3.17,0,0,0-.15-1.21,0.9,0.9,0,0,0-.91-0.6,1.17,1.17,0,0,0-.94.5,2.77,2.77,0,0,0-.31,1.56v3.52h-1.59v-6.82Z" transform="translate(-370.55 -6031.41)"/><path class="cls-6" d="M503.25,6041.85a3.57,3.57,0,0,1-1.15,1.25,3.75,3.75,0,0,1-2,.52,3,3,0,0,1-2.3-.87,3.66,3.66,0,0,1-1-2.61,4,4,0,0,1,1.09-2.8,3.11,3.11,0,0,1,2.28-.92,2.94,2.94,0,0,1,2.19.89,4.1,4.1,0,0,1,1,2.88v0.19H498.4a2.25,2.25,0,0,0,.58,1.38,1.62,1.62,0,0,0,1.22.44,1.67,1.67,0,0,0,1.09-.34,2.47,2.47,0,0,0,.63-0.75Zm-1.57-2.77a1.65,1.65,0,0,0-.49-0.92,1.52,1.52,0,0,0-1.07-.39,1.53,1.53,0,0,0-1.12.44,1.79,1.79,0,0,0-.49.88h3.16Z" transform="translate(-370.55 -6031.41)"/><path class="cls-6" d="M504.93,6036.58h1.59v0.63a2.35,2.35,0,0,1,1.85-.81,2.28,2.28,0,0,1,2,.92,3.05,3.05,0,0,1,.42,1.9v4.18h-1.59v-3.79c0-1.73-.65-1.78-1.25-1.78s-1.44.1-1.44,2.3v3.27h-1.59v-6.82Z" transform="translate(-370.55 -6031.41)"/><path class="cls-6" d="M517.37,6032.74a1,1,0,1,1-1,1A1,1,0,0,1,517.37,6032.74Zm0.79,3.84v6.82h-1.59v-6.82h1.59Z" transform="translate(-370.55 -6031.41)"/><path class="cls-6" d="M520.15,6036.58h1.59v0.63a2.35,2.35,0,0,1,1.85-.81,2.28,2.28,0,0,1,2,.92,3.05,3.05,0,0,1,.42,1.9v4.18h-1.59v-3.79c0-1.73-.65-1.78-1.25-1.78s-1.44.1-1.44,2.3v3.27h-1.59v-6.82Z" transform="translate(-370.55 -6031.41)"/><path class="cls-6" d="M533.44,6038v5.36h-1.59V6038h-0.67v-1.46h0.67v-2.5h1.59v2.5h1.21V6038h-1.21Z" transform="translate(-370.55 -6031.41)"/><path class="cls-6" d="M535.72,6031.59h1.59v5.57a2.45,2.45,0,0,1,1.83-.76,2.32,2.32,0,0,1,2,.92,3.36,3.36,0,0,1,.44,1.9v4.18H540v-4a1.64,1.64,0,0,0-.31-1.18,1.2,1.2,0,0,0-.89-0.36,1.41,1.41,0,0,0-1.17.57,3.05,3.05,0,0,0-.32,1.72v3.29h-1.59v-11.81Z" transform="translate(-370.55 -6031.41)"/><path class="cls-6" d="M549.53,6041.85a3.57,3.57,0,0,1-1.15,1.25,3.75,3.75,0,0,1-2,.52,3,3,0,0,1-2.3-.87,3.66,3.66,0,0,1-1-2.61,4,4,0,0,1,1.09-2.8,3.11,3.11,0,0,1,2.28-.92,2.94,2.94,0,0,1,2.19.89,4.1,4.1,0,0,1,1,2.88v0.19h-4.89a2.25,2.25,0,0,0,.58,1.38,1.62,1.62,0,0,0,1.22.44,1.67,1.67,0,0,0,1.09-.34,2.47,2.47,0,0,0,.63-0.75Zm-1.57-2.77a1.65,1.65,0,0,0-.49-0.92,1.52,1.52,0,0,0-1.07-.39,1.53,1.53,0,0,0-1.12.44,1.79,1.79,0,0,0-.49.88H548Z" transform="translate(-370.55 -6031.41)"/><path class="cls-6" d="M560,6035a1.67,1.67,0,0,0-1.65-1.07,1.34,1.34,0,0,0-1.52,1.3,1.43,1.43,0,0,0,1.17,1.31L559,6037c2,0.81,2.54,1.95,2.54,3.18a3.33,3.33,0,0,1-3.48,3.47,3.16,3.16,0,0,1-2.54-1.09,3.5,3.5,0,0,1-.91-2.11l1.64-.36a2.34,2.34,0,0,0,.45,1.38,1.71,1.71,0,0,0,1.41.65,1.74,1.74,0,0,0,1.78-1.82,2,2,0,0,0-1.56-1.85l-1-.44a3,3,0,0,1-2.2-2.74,2.92,2.92,0,0,1,3.16-2.85,3.19,3.19,0,0,1,2.17.73,3.67,3.67,0,0,1,.83,1.08Z" transform="translate(-370.55 -6031.41)"/><path class="cls-6" d="M568.64,6038.67a2.67,2.67,0,0,0-1.93-.84,2,2,0,0,0-1.51.6,2.18,2.18,0,0,0-.58,1.57,2.26,2.26,0,0,0,.62,1.64,2.06,2.06,0,0,0,1.44.55,2.66,2.66,0,0,0,2-.87v1.77a3.73,3.73,0,0,1-2.07.54,3.32,3.32,0,0,1-2.59-1,3.55,3.55,0,0,1-1-2.56,3.64,3.64,0,0,1,1-2.64,3.71,3.71,0,0,1,2.74-1,3.66,3.66,0,0,1,1.86.49v1.78Z" transform="translate(-370.55 -6031.41)"/><path class="cls-6" d="M571,6032.74a1,1,0,1,1-1,1A1,1,0,0,1,571,6032.74Zm0.79,3.84v6.82h-1.59v-6.82h1.59Z" transform="translate(-370.55 -6031.41)"/><path class="cls-6" d="M579.87,6041.85a3.57,3.57,0,0,1-1.15,1.25,3.75,3.75,0,0,1-2,.52,3,3,0,0,1-2.3-.87,3.66,3.66,0,0,1-1-2.61,4,4,0,0,1,1.09-2.8,3.11,3.11,0,0,1,2.28-.92,2.94,2.94,0,0,1,2.19.89,4.1,4.1,0,0,1,1,2.88v0.19H575a2.25,2.25,0,0,0,.58,1.38,1.62,1.62,0,0,0,1.22.44,1.67,1.67,0,0,0,1.09-.34,2.47,2.47,0,0,0,.63-0.75Zm-1.57-2.77a1.65,1.65,0,0,0-.49-0.92,1.52,1.52,0,0,0-1.07-.39,1.53,1.53,0,0,0-1.12.44,1.79,1.79,0,0,0-.49.88h3.16Z" transform="translate(-370.55 -6031.41)"/><path class="cls-6" d="M581.55,6036.58h1.59v0.63a2.35,2.35,0,0,1,1.85-.81,2.28,2.28,0,0,1,2,.92,3.05,3.05,0,0,1,.42,1.9v4.18h-1.59v-3.79c0-1.73-.65-1.78-1.25-1.78s-1.44.1-1.44,2.3v3.27h-1.59v-6.82Z" transform="translate(-370.55 -6031.41)"/><path class="cls-6" d="M594.71,6038.67a2.67,2.67,0,0,0-1.93-.84,2,2,0,0,0-1.51.6,2.18,2.18,0,0,0-.58,1.57,2.26,2.26,0,0,0,.62,1.64,2.06,2.06,0,0,0,1.44.55,2.66,2.66,0,0,0,2-.87v1.77a3.73,3.73,0,0,1-2.07.54,3.32,3.32,0,0,1-2.59-1,3.55,3.55,0,0,1-1-2.56,3.64,3.64,0,0,1,1-2.64,3.71,3.71,0,0,1,2.74-1,3.66,3.66,0,0,1,1.86.49v1.78Z" transform="translate(-370.55 -6031.41)"/><path class="cls-6" d="M602.34,6041.85a3.58,3.58,0,0,1-1.15,1.25,3.76,3.76,0,0,1-2,.52,3,3,0,0,1-2.3-.87,3.66,3.66,0,0,1-1-2.61,4,4,0,0,1,1.09-2.8,3.11,3.11,0,0,1,2.28-.92,2.94,2.94,0,0,1,2.19.89,4.1,4.1,0,0,1,1,2.88v0.19h-4.89a2.25,2.25,0,0,0,.58,1.38,1.62,1.62,0,0,0,1.21.44,1.67,1.67,0,0,0,1.09-.34,2.47,2.47,0,0,0,.63-0.75Zm-1.57-2.77a1.65,1.65,0,0,0-.49-0.92,1.52,1.52,0,0,0-1.07-.39,1.53,1.53,0,0,0-1.12.44,1.79,1.79,0,0,0-.49.88h3.16Z" transform="translate(-370.55 -6031.41)"/><path class="cls-6" d="M607,6038.38a1.14,1.14,0,0,0-1-.58,0.67,0.67,0,0,0-.49.18,0.51,0.51,0,0,0-.15.36,0.43,0.43,0,0,0,.23.39c0.1,0.07.19,0.1,0.53,0.28l0.81,0.41a3.29,3.29,0,0,1,1,.63,1.68,1.68,0,0,1,.5,1.26,2.27,2.27,0,0,1-.6,1.56,2.44,2.44,0,0,1-1.91.76,2.35,2.35,0,0,1-1.47-.44,2.66,2.66,0,0,1-.87-1.25l1.3-.62a1.8,1.8,0,0,0,.37.65,1,1,0,0,0,.7.26,1,1,0,0,0,.65-0.23,0.81,0.81,0,0,0,.23-0.53,0.73,0.73,0,0,0-.21-0.52,2.09,2.09,0,0,0-.68-0.42l-0.58-.28a3.38,3.38,0,0,1-.94-0.58,1.49,1.49,0,0,1-.49-1.15,2.13,2.13,0,0,1,.57-1.46,2.2,2.2,0,0,1,1.67-.65,2.13,2.13,0,0,1,1.26.36,2.34,2.34,0,0,1,.78.84Z" transform="translate(-370.55 -6031.41)"/><path class="cls-6" d="M614.44,6032.74a1,1,0,1,1-1,1A1,1,0,0,1,614.44,6032.74Zm0.79,3.84v6.82h-1.59v-6.82h1.59Z" transform="translate(-370.55 -6031.41)"/><path class="cls-6" d="M617.22,6036.58h1.59v0.63a2.35,2.35,0,0,1,1.85-.81,2.28,2.28,0,0,1,2,.92,3.05,3.05,0,0,1,.42,1.9v4.18H621.5v-3.79c0-1.73-.65-1.78-1.25-1.78s-1.44.1-1.44,2.3v3.27h-1.59v-6.82Z" transform="translate(-370.55 -6031.41)"/><path class="cls-6" d="M635.13,6034.15h-4.31v2.74H635v1.56h-4.18v3.4h4.31v1.56h-6v-10.81h6v1.56Z" transform="translate(-370.55 -6031.41)"/><path class="cls-6" d="M642,6036.58h1.59v6.82H642v-0.71a2.62,2.62,0,0,1-2,.92,3.38,3.38,0,0,1-3.31-3.63,3.33,3.33,0,0,1,3.32-3.58,2.49,2.49,0,0,1,2,1v-0.79Zm-3.73,3.44a2,2,0,0,0,1.9,2.17,2.2,2.2,0,0,0,0-4.36A2,2,0,0,0,638.23,6040Z" transform="translate(-370.55 -6031.41)"/><path class="cls-6" d="M650.84,6038.67a2.67,2.67,0,0,0-1.93-.84,2,2,0,0,0-1.51.6,2.18,2.18,0,0,0-.58,1.57,2.26,2.26,0,0,0,.62,1.64,2.06,2.06,0,0,0,1.44.55,2.66,2.66,0,0,0,2-.87v1.77a3.73,3.73,0,0,1-2.07.54,3.32,3.32,0,0,1-2.59-1,3.55,3.55,0,0,1-1-2.56,3.64,3.64,0,0,1,1-2.64,3.71,3.71,0,0,1,2.74-1,3.66,3.66,0,0,1,1.86.49v1.78Z" transform="translate(-370.55 -6031.41)"/><path class="cls-6" d="M652.36,6031.59h1.59v5.57a2.45,2.45,0,0,1,1.83-.76,2.32,2.32,0,0,1,2,.92,3.36,3.36,0,0,1,.44,1.9v4.18h-1.59v-4a1.64,1.64,0,0,0-.31-1.18,1.2,1.2,0,0,0-.89-0.36,1.41,1.41,0,0,0-1.17.57,3.05,3.05,0,0,0-.32,1.72v3.29h-1.59v-11.81Z" transform="translate(-370.55 -6031.41)"/><path class="cls-6" d="M666,6032.59v9.25h3.18v1.56H664.3v-10.81H666Z" transform="translate(-370.55 -6031.41)"/><path class="cls-6" d="M676.5,6041.85a3.57,3.57,0,0,1-1.15,1.25,3.75,3.75,0,0,1-2,.52,3,3,0,0,1-2.3-.87,3.66,3.66,0,0,1-1-2.61,4,4,0,0,1,1.09-2.8,3.11,3.11,0,0,1,2.28-.92,2.94,2.94,0,0,1,2.19.89,4.1,4.1,0,0,1,1,2.88v0.19h-4.89a2.25,2.25,0,0,0,.58,1.38,1.62,1.62,0,0,0,1.22.44,1.67,1.67,0,0,0,1.09-.34,2.47,2.47,0,0,0,.63-0.75Zm-1.57-2.77a1.65,1.65,0,0,0-.49-0.92,1.52,1.52,0,0,0-1.07-.39,1.53,1.53,0,0,0-1.12.44,1.79,1.79,0,0,0-.49.88h3.16Z" transform="translate(-370.55 -6031.41)"/><path class="cls-6" d="M678.9,6036.58l1.75,3.89,1.75-3.89h1.78l-3.53,7.31-3.53-7.31h1.78Z" transform="translate(-370.55 -6031.41)"/><path class="cls-6" d="M691.19,6041.85a3.57,3.57,0,0,1-1.15,1.25,3.75,3.75,0,0,1-2,.52,3,3,0,0,1-2.3-.87,3.66,3.66,0,0,1-1-2.61,4,4,0,0,1,1.09-2.8,3.11,3.11,0,0,1,2.28-.92,2.94,2.94,0,0,1,2.19.89,4.1,4.1,0,0,1,1,2.88v0.19h-4.89a2.25,2.25,0,0,0,.58,1.38,1.62,1.62,0,0,0,1.22.44,1.67,1.67,0,0,0,1.09-.34,2.47,2.47,0,0,0,.63-0.75Zm-1.57-2.77a1.65,1.65,0,0,0-.49-0.92,1.52,1.52,0,0,0-1.07-.39,1.53,1.53,0,0,0-1.12.44,1.79,1.79,0,0,0-.49.88h3.16Z" transform="translate(-370.55 -6031.41)"/><path class="cls-6" d="M694.48,6031.59v11.81h-1.59v-11.81h1.59Z" transform="translate(-370.55 -6031.41)"/><path class="cls-6" d="M707.2,6040a3.65,3.65,0,1,1-3.65-3.6A3.54,3.54,0,0,1,707.2,6040Zm-1.62,0a2,2,0,1,0-2,2.17A2,2,0,0,0,705.58,6040Z" transform="translate(-370.55 -6031.41)"/><path class="cls-6" d="M710.6,6038v5.36H709V6038h-0.68v-1.46H709v-2.37a3,3,0,0,1,.66-2.14,2.14,2.14,0,0,1,1.62-.66,2.53,2.53,0,0,1,1,.19v1.57a1.37,1.37,0,0,0-.76-0.24,0.92,0.92,0,0,0-.7.26,1.13,1.13,0,0,0-.26.81v2.58h1.72V6038H710.6Z" transform="translate(-370.55 -6031.41)"/><path class="cls-6" d="M718.63,6038v5.36H717V6038h-0.67v-1.46H717v-2.5h1.59v2.5h1.21V6038h-1.21Z" transform="translate(-370.55 -6031.41)"/><path class="cls-6" d="M720.92,6031.59h1.59v5.57a2.45,2.45,0,0,1,1.83-.76,2.32,2.32,0,0,1,2,.92,3.36,3.36,0,0,1,.44,1.9v4.18H725.2v-4a1.64,1.64,0,0,0-.31-1.18,1.2,1.2,0,0,0-.89-0.36,1.41,1.41,0,0,0-1.17.57,3.05,3.05,0,0,0-.32,1.72v3.29h-1.59v-11.81Z" transform="translate(-370.55 -6031.41)"/><path class="cls-6" d="M734.72,6041.85a3.58,3.58,0,0,1-1.15,1.25,3.76,3.76,0,0,1-2,.52,3,3,0,0,1-2.3-.87,3.66,3.66,0,0,1-1-2.61,4,4,0,0,1,1.09-2.8,3.11,3.11,0,0,1,2.28-.92,2.94,2.94,0,0,1,2.19.89,4.1,4.1,0,0,1,1,2.88v0.19h-4.89a2.25,2.25,0,0,0,.58,1.38,1.62,1.62,0,0,0,1.21.44,1.67,1.67,0,0,0,1.09-.34,2.47,2.47,0,0,0,.63-0.75Zm-1.57-2.77a1.65,1.65,0,0,0-.49-0.92,1.52,1.52,0,0,0-1.07-.39,1.53,1.53,0,0,0-1.12.44,1.79,1.79,0,0,0-.49.88h3.16Z" transform="translate(-370.55 -6031.41)"/><path class="cls-6" d="M746.84,6040.79h-4.62L741,6043.4h-1.78l5.38-11.44,5.12,11.44H748Zm-0.66-1.56-1.6-3.66-1.67,3.66h3.27Z" transform="translate(-370.55 -6031.41)"/><path class="cls-6" d="M756.1,6038.67a2.67,2.67,0,0,0-1.93-.84,2,2,0,0,0-1.51.6,2.18,2.18,0,0,0-.58,1.57,2.26,2.26,0,0,0,.62,1.64,2.06,2.06,0,0,0,1.44.55,2.66,2.66,0,0,0,2-.87v1.77a3.73,3.73,0,0,1-2.07.54,3.32,3.32,0,0,1-2.59-1,3.55,3.55,0,0,1-1-2.56,3.64,3.64,0,0,1,1-2.64,3.71,3.71,0,0,1,2.74-1,3.66,3.66,0,0,1,1.86.49v1.78Z" transform="translate(-370.55 -6031.41)"/><path class="cls-6" d="M762.62,6036.58h1.59v6.82h-1.59v-0.71a2.62,2.62,0,0,1-2,.92,3.38,3.38,0,0,1-3.31-3.63,3.33,3.33,0,0,1,3.32-3.58,2.49,2.49,0,0,1,2,1v-0.79Zm-3.73,3.44a2,2,0,0,0,1.9,2.17,2.2,2.2,0,0,0,0-4.36A2,2,0,0,0,758.89,6040Z" transform="translate(-370.55 -6031.41)"/><path class="cls-6" d="M771.2,6031.59h1.59v11.81H771.2v-0.71a2.62,2.62,0,0,1-2,.92,3.38,3.38,0,0,1-3.31-3.63,3.33,3.33,0,0,1,3.32-3.58,2.49,2.49,0,0,1,2,1v-5.79Zm-3.73,8.43a2,2,0,0,0,1.9,2.17,2.2,2.2,0,0,0,0-4.36A2,2,0,0,0,767.47,6040Z" transform="translate(-370.55 -6031.41)"/><path class="cls-6" d="M780.91,6041.85a3.58,3.58,0,0,1-1.15,1.25,3.76,3.76,0,0,1-2,.52,3,3,0,0,1-2.3-.87,3.66,3.66,0,0,1-1-2.61,4,4,0,0,1,1.09-2.8,3.11,3.11,0,0,1,2.28-.92,2.94,2.94,0,0,1,2.19.89,4.1,4.1,0,0,1,1,2.88v0.19h-4.89a2.25,2.25,0,0,0,.58,1.38,1.62,1.62,0,0,0,1.21.44,1.67,1.67,0,0,0,1.09-.34,2.47,2.47,0,0,0,.63-0.75Zm-1.57-2.77a1.65,1.65,0,0,0-.49-0.92,1.52,1.52,0,0,0-1.07-.39,1.53,1.53,0,0,0-1.12.44,1.79,1.79,0,0,0-.49.88h3.16Z" transform="translate(-370.55 -6031.41)"/><path class="cls-6" d="M782.61,6036.58h1.59v0.63a2.1,2.1,0,0,1,1.69-.81,2,2,0,0,1,1.77,1,2.42,2.42,0,0,1,2-1,2.18,2.18,0,0,1,1.94,1.07,3.36,3.36,0,0,1,.36,1.72v4.21h-1.59v-3.76a3.14,3.14,0,0,0-.15-1.21,0.9,0.9,0,0,0-.91-0.6,1.17,1.17,0,0,0-.94.5,2.77,2.77,0,0,0-.31,1.56v3.52h-1.59v-3.76a3.17,3.17,0,0,0-.15-1.21,0.9,0.9,0,0,0-.91-0.6,1.17,1.17,0,0,0-.94.5,2.77,2.77,0,0,0-.31,1.56v3.52h-1.59v-6.82Z" transform="translate(-370.55 -6031.41)"/><path class="cls-6" d="M794.77,6032.74a1,1,0,1,1-1,1A1,1,0,0,1,794.77,6032.74Zm0.79,3.84v6.82H794v-6.82h1.59Z" transform="translate(-370.55 -6031.41)"/><path class="cls-6" d="M802.86,6038.67a2.67,2.67,0,0,0-1.93-.84,2,2,0,0,0-1.51.6,2.18,2.18,0,0,0-.58,1.57,2.26,2.26,0,0,0,.62,1.64,2.06,2.06,0,0,0,1.44.55,2.66,2.66,0,0,0,2-.87v1.77a3.73,3.73,0,0,1-2.07.54,3.32,3.32,0,0,1-2.59-1,3.55,3.55,0,0,1-1-2.56,3.64,3.64,0,0,1,1-2.64,3.71,3.71,0,0,1,2.74-1,3.66,3.66,0,0,1,1.86.49v1.78Z" transform="translate(-370.55 -6031.41)"/><path class="cls-6" d="M810.1,6032.59v9.25h3.18v1.56h-4.83v-10.81h1.65Z" transform="translate(-370.55 -6031.41)"/><path class="cls-6" d="M819.53,6036.58h1.59v6.82h-1.59v-0.71a2.62,2.62,0,0,1-2,.92,3.38,3.38,0,0,1-3.31-3.63,3.33,3.33,0,0,1,3.32-3.58,2.49,2.49,0,0,1,2,1v-0.79ZM815.8,6040a2,2,0,0,0,1.9,2.17,2.2,2.2,0,0,0,0-4.36A2,2,0,0,0,815.8,6040Z" transform="translate(-370.55 -6031.41)"/><path class="cls-6" d="M828.11,6031.59h1.59v11.81h-1.59v-0.71a2.62,2.62,0,0,1-2,.92,3.38,3.38,0,0,1-3.31-3.63,3.33,3.33,0,0,1,3.32-3.58,2.49,2.49,0,0,1,2,1v-5.79Zm-3.73,8.43a2,2,0,0,0,1.9,2.17,2.2,2.2,0,0,0,0-4.36A2,2,0,0,0,824.38,6040Z" transform="translate(-370.55 -6031.41)"/><path class="cls-6" d="M836.7,6031.59h1.59v11.81H836.7v-0.71a2.62,2.62,0,0,1-2,.92,3.38,3.38,0,0,1-3.31-3.63,3.33,3.33,0,0,1,3.32-3.58,2.49,2.49,0,0,1,2,1v-5.79ZM833,6040a2,2,0,0,0,1.9,2.17,2.2,2.2,0,0,0,0-4.36A2,2,0,0,0,833,6040Z" transform="translate(-370.55 -6031.41)"/><path class="cls-6" d="M846.4,6041.85a3.58,3.58,0,0,1-1.15,1.25,3.76,3.76,0,0,1-2,.52,3,3,0,0,1-2.3-.87,3.66,3.66,0,0,1-1-2.61,4,4,0,0,1,1.09-2.8,3.11,3.11,0,0,1,2.28-.92,2.94,2.94,0,0,1,2.19.89,4.1,4.1,0,0,1,1,2.88v0.19h-4.89a2.25,2.25,0,0,0,.58,1.38,1.62,1.62,0,0,0,1.21.44,1.67,1.67,0,0,0,1.09-.34,2.47,2.47,0,0,0,.63-0.75Zm-1.57-2.77a1.65,1.65,0,0,0-.49-0.92,1.52,1.52,0,0,0-1.07-.39,1.53,1.53,0,0,0-1.12.44,1.79,1.79,0,0,0-.49.88h3.16Z" transform="translate(-370.55 -6031.41)"/><path class="cls-6" d="M848.1,6036.58h1.59v0.62a2.76,2.76,0,0,1,.66-0.57,1.83,1.83,0,0,1,1-.23,2.36,2.36,0,0,1,1.25.32l-0.65,1.44a1.44,1.44,0,0,0-.81-0.24,1.24,1.24,0,0,0-1,.37,2.2,2.2,0,0,0-.44,1.57v3.53H848.1v-6.82Z" transform="translate(-370.55 -6031.41)"/><path class="cls-6" d="M853.37,6041.38l1.43,0.55-2,4-1.07-.44Z" transform="translate(-370.55 -6031.41)"/><path class="cls-6" d="M868.68,6035.12a4.21,4.21,0,0,0-2.93-1.2,3.86,3.86,0,0,0-3.94,4.12,3.9,3.9,0,0,0,4,4.05,4.29,4.29,0,0,0,2.92-1.25v2a5.9,5.9,0,0,1-3,.81,5.41,5.41,0,0,1-3.82-1.49,5.3,5.3,0,0,1-1.73-4.08,5.66,5.66,0,0,1,1.73-4.23,5.35,5.35,0,0,1,3.91-1.41,5.14,5.14,0,0,1,2.88.78v1.95Z" transform="translate(-370.55 -6031.41)"/><path class="cls-6" d="M877.36,6040a3.65,3.65,0,1,1-3.65-3.6A3.54,3.54,0,0,1,877.36,6040Zm-1.62,0a2,2,0,1,0-2,2.17A2,2,0,0,0,875.74,6040Z" transform="translate(-370.55 -6031.41)"/><path class="cls-6" d="M880.6,6031.59v11.81H879v-11.81h1.59Z" transform="translate(-370.55 -6031.41)"/><path class="cls-6" d="M884.19,6036.58v3.91a2,2,0,0,0,.29,1.23,1.38,1.38,0,0,0,2.07,0,2,2,0,0,0,.29-1.23v-3.91h1.59v4a2.85,2.85,0,0,1-.73,2.24,3.12,3.12,0,0,1-2.22.84,3,3,0,0,1-2.15-.84,2.85,2.85,0,0,1-.73-2.24v-4h1.59Z" transform="translate(-370.55 -6031.41)"/><path class="cls-6" d="M890.45,6036.58H892v0.63a2.1,2.1,0,0,1,1.69-.81,2,2,0,0,1,1.77,1,2.42,2.42,0,0,1,2-1,2.18,2.18,0,0,1,1.94,1.07,3.36,3.36,0,0,1,.36,1.72v4.21h-1.59v-3.76a3.14,3.14,0,0,0-.15-1.21,0.9,0.9,0,0,0-.91-0.6,1.17,1.17,0,0,0-.94.5,2.77,2.77,0,0,0-.31,1.56v3.52h-1.59v-3.76a3.17,3.17,0,0,0-.15-1.21,0.9,0.9,0,0,0-.91-0.6,1.17,1.17,0,0,0-.94.5,2.77,2.77,0,0,0-.31,1.56v3.52h-1.59v-6.82Z" transform="translate(-370.55 -6031.41)"/><path class="cls-6" d="M903.41,6037.38a2.49,2.49,0,0,1,2-1,3.33,3.33,0,0,1,3.32,3.58,3.38,3.38,0,0,1-3.31,3.63,2.62,2.62,0,0,1-2-.92v0.71h-1.59v-11.81h1.59v5.79Zm-0.1,2.66a2,2,0,0,0,1.93,2.16,2.2,2.2,0,0,0,0-4.36A2,2,0,0,0,903.31,6040Z" transform="translate(-370.55 -6031.41)"/><path class="cls-6" d="M911.2,6032.74a1,1,0,1,1-1,1A1,1,0,0,1,911.2,6032.74Zm0.79,3.84v6.82h-1.59v-6.82H912Z" transform="translate(-370.55 -6031.41)"/><path class="cls-6" d="M919,6036.58h1.59v6.82H919v-0.71a2.62,2.62,0,0,1-2,.92,3.38,3.38,0,0,1-3.31-3.63,3.33,3.33,0,0,1,3.32-3.58,2.49,2.49,0,0,1,2,1v-0.79Zm-3.73,3.44a2,2,0,0,0,1.9,2.17,2.2,2.2,0,0,0,0-4.36A2,2,0,0,0,915.27,6040Z" transform="translate(-370.55 -6031.41)"/><path class="cls-6" d="M376.89,6145.79H375l0.91-1.52h2.63v10.81h-1.65v-9.29Z" transform="translate(-370.55 -6031.41)"/><path class="cls-6" d="M382.17,6154.56l2.54-3.26a2.51,2.51,0,0,1-.58.06,3.48,3.48,0,0,1-2.53-1,3.36,3.36,0,0,1-1-2.46,3.86,3.86,0,0,1,1.07-2.71,4.12,4.12,0,0,1,5.57,0,3.4,3.4,0,0,1,.94,2.45,4.27,4.27,0,0,1-.52,2.06,10.88,10.88,0,0,1-1.31,1.93l-3,3.86Zm3.78-5.25a2.38,2.38,0,0,0,.63-1.6,2.14,2.14,0,0,0-.63-1.54,2.28,2.28,0,0,0-1.54-.62,2.33,2.33,0,0,0-1.54.62,2.26,2.26,0,0,0-.63,1.59,2.11,2.11,0,0,0,2.16,2.2A2.17,2.17,0,0,0,385.94,6149.31Z" transform="translate(-370.55 -6031.41)"/><path class="cls-6" d="M391.37,6154.56l2.54-3.26a2.51,2.51,0,0,1-.58.06,3.48,3.48,0,0,1-2.53-1,3.36,3.36,0,0,1-1-2.46,3.86,3.86,0,0,1,1.07-2.71,4.12,4.12,0,0,1,5.57,0,3.4,3.4,0,0,1,.94,2.45,4.27,4.27,0,0,1-.52,2.06,10.88,10.88,0,0,1-1.31,1.93l-3,3.86Zm3.78-5.25a2.38,2.38,0,0,0,.63-1.6,2.14,2.14,0,0,0-.63-1.54,2.28,2.28,0,0,0-1.54-.62,2.33,2.33,0,0,0-1.54.62,2.26,2.26,0,0,0-.63,1.59,2.11,2.11,0,0,0,2.16,2.2A2.17,2.17,0,0,0,395.15,6149.31Z" transform="translate(-370.55 -6031.41)"/><path class="cls-6" d="M400.36,6154.09a6.57,6.57,0,0,1-1.38-4.41,6.63,6.63,0,0,1,1.38-4.42,3.15,3.15,0,0,1,4.89,0,6.63,6.63,0,0,1,1.38,4.42,6.57,6.57,0,0,1-1.38,4.41A3.15,3.15,0,0,1,400.36,6154.09Zm1-7.65a7.38,7.38,0,0,0,0,6.46,1.64,1.64,0,0,0,2.92,0,7.38,7.38,0,0,0,0-6.46A1.64,1.64,0,0,0,401.35,6146.44Z" transform="translate(-370.55 -6031.41)"/><path class="cls-6" d="M415.1,6083v6.51a3.78,3.78,0,0,0,.34,1.86,2.36,2.36,0,0,0,4,0,3.78,3.78,0,0,0,.34-1.86V6083h1.65v7a4,4,0,0,1-1,2.8,4.19,4.19,0,0,1-6,0,4,4,0,0,1-1-2.8v-7h1.65Z" transform="translate(-370.55 -6031.41)"/><path class="cls-6" d="M423.74,6087h1.59v0.63a2.35,2.35,0,0,1,1.85-.81,2.28,2.28,0,0,1,2,.92,3.05,3.05,0,0,1,.42,1.9v4.18H428V6090c0-1.73-.65-1.78-1.25-1.78s-1.44.1-1.44,2.3v3.27h-1.59V6087Z" transform="translate(-370.55 -6031.41)"/><path class="cls-6" d="M436.6,6082h1.59v11.81H436.6v-0.71a2.62,2.62,0,0,1-2,.92,3.38,3.38,0,0,1-3.31-3.63,3.34,3.34,0,0,1,3.32-3.58,2.49,2.49,0,0,1,2,1V6082Zm-3.73,8.43a2,2,0,0,0,1.9,2.17,2.2,2.2,0,0,0,0-4.36A2,2,0,0,0,432.88,6090.42Z" transform="translate(-370.55 -6031.41)"/><path class="cls-6" d="M446.31,6092.25a3.58,3.58,0,0,1-1.15,1.25,3.76,3.76,0,0,1-2,.52,3,3,0,0,1-2.3-.87,3.66,3.66,0,0,1-1-2.61,4,4,0,0,1,1.09-2.8,3.11,3.11,0,0,1,2.28-.92,2.94,2.94,0,0,1,2.19.89,4.1,4.1,0,0,1,1,2.88v0.19h-4.89a2.25,2.25,0,0,0,.58,1.38,1.62,1.62,0,0,0,1.21.44,1.67,1.67,0,0,0,1.09-.34,2.47,2.47,0,0,0,.63-0.75Zm-1.57-2.77a1.65,1.65,0,0,0-.49-0.92,1.65,1.65,0,0,0-2.19,0,1.79,1.79,0,0,0-.49.88h3.16Z" transform="translate(-370.55 -6031.41)"/><path class="cls-6" d="M448,6087h1.59v0.62a2.76,2.76,0,0,1,.66-0.57,1.83,1.83,0,0,1,1-.23,2.36,2.36,0,0,1,1.25.32l-0.65,1.44a1.44,1.44,0,0,0-.81-0.24,1.24,1.24,0,0,0-1,.37,2.2,2.2,0,0,0-.44,1.57v3.53H448V6087Z" transform="translate(-370.55 -6031.41)"/><path class="cls-6" d="M457.87,6087h1.59v6.27c0,1.6-.18,2.75-1.12,3.55a3.47,3.47,0,0,1-2.27.73,3,3,0,0,1-2.24-.84,3.84,3.84,0,0,1-1-2.12h1.54a2.26,2.26,0,0,0,.5,1.07,1.62,1.62,0,0,0,1.23.47,1.71,1.71,0,0,0,1.25-.45,2.25,2.25,0,0,0,.52-1.72V6093a2.47,2.47,0,0,1-2.07,1,2.89,2.89,0,0,1-2.25-.92,3.86,3.86,0,0,1-1-2.71,3.62,3.62,0,0,1,1-2.64,3.1,3.1,0,0,1,2.32-.94,2.57,2.57,0,0,1,2,.92V6087Zm-3,1.7a2.37,2.37,0,0,0-.7,1.73,2.34,2.34,0,0,0,.68,1.72,1.86,1.86,0,0,0,1.22.45,1.73,1.73,0,0,0,1.33-.55,2.52,2.52,0,0,0,0-3.32,1.69,1.69,0,0,0-1.28-.49A1.64,1.64,0,0,0,454.84,6088.68Z" transform="translate(-370.55 -6031.41)"/><path class="cls-6" d="M461.47,6087h1.59v0.62a2.76,2.76,0,0,1,.66-0.57,1.83,1.83,0,0,1,1-.23,2.36,2.36,0,0,1,1.25.32l-0.65,1.44a1.44,1.44,0,0,0-.81-0.24,1.24,1.24,0,0,0-1,.37,2.2,2.2,0,0,0-.44,1.57v3.53h-1.59V6087Z" transform="translate(-370.55 -6031.41)"/><path class="cls-6" d="M471.5,6087h1.59v6.82H471.5v-0.71a2.62,2.62,0,0,1-2,.92,3.38,3.38,0,0,1-3.31-3.63,3.34,3.34,0,0,1,3.32-3.58,2.49,2.49,0,0,1,2,1V6087Zm-3.73,3.44a2,2,0,0,0,1.9,2.17,2.2,2.2,0,0,0,0-4.36A2,2,0,0,0,467.77,6090.42Z" transform="translate(-370.55 -6031.41)"/><path class="cls-6" d="M480.08,6082h1.59v11.81h-1.59v-0.71a2.62,2.62,0,0,1-2,.92,3.38,3.38,0,0,1-3.31-3.63,3.34,3.34,0,0,1,3.32-3.58,2.49,2.49,0,0,1,2,1V6082Zm-3.73,8.43a2,2,0,0,0,1.9,2.17,2.2,2.2,0,0,0,0-4.36A2,2,0,0,0,476.36,6090.42Z" transform="translate(-370.55 -6031.41)"/><path class="cls-6" d="M485.27,6087v3.91a2,2,0,0,0,.29,1.23,1.38,1.38,0,0,0,2.07,0,2,2,0,0,0,.29-1.23V6087h1.59v4a2.85,2.85,0,0,1-.73,2.24,3.12,3.12,0,0,1-2.22.84,3,3,0,0,1-2.16-.84,2.85,2.85,0,0,1-.73-2.24v-4h1.59Z" transform="translate(-370.55 -6031.41)"/><path class="cls-6" d="M496.51,6087h1.59v6.82h-1.59v-0.71a2.62,2.62,0,0,1-2,.92,3.38,3.38,0,0,1-3.31-3.63,3.34,3.34,0,0,1,3.32-3.58,2.49,2.49,0,0,1,2,1V6087Zm-3.73,3.44a2,2,0,0,0,1.9,2.17,2.2,2.2,0,0,0,0-4.36A2,2,0,0,0,492.78,6090.42Z" transform="translate(-370.55 -6031.41)"/><path class="cls-6" d="M501.74,6088.44v5.36h-1.59v-5.36h-0.67V6087h0.67v-2.5h1.59v2.5H503v1.46h-1.21Z" transform="translate(-370.55 -6031.41)"/><path class="cls-6" d="M510.13,6092.25a3.57,3.57,0,0,1-1.15,1.25,3.75,3.75,0,0,1-2,.52,3,3,0,0,1-2.3-.87,3.66,3.66,0,0,1-1-2.61,4,4,0,0,1,1.09-2.8,3.11,3.11,0,0,1,2.28-.92,2.94,2.94,0,0,1,2.19.89,4.1,4.1,0,0,1,1,2.88v0.19h-4.89a2.25,2.25,0,0,0,.58,1.38,1.62,1.62,0,0,0,1.22.44,1.67,1.67,0,0,0,1.09-.34,2.47,2.47,0,0,0,.63-0.75Zm-1.57-2.77a1.65,1.65,0,0,0-.49-0.92,1.65,1.65,0,0,0-2.19,0,1.79,1.79,0,0,0-.49.88h3.16Z" transform="translate(-370.55 -6031.41)"/><path class="cls-6" d="M514.81,6088.78a1.14,1.14,0,0,0-1-.58,0.67,0.67,0,0,0-.49.18,0.51,0.51,0,0,0-.15.36,0.43,0.43,0,0,0,.23.39c0.1,0.07.19,0.1,0.53,0.28l0.81,0.4a3.27,3.27,0,0,1,1,.63,1.68,1.68,0,0,1,.5,1.26,2.27,2.27,0,0,1-.6,1.56,2.44,2.44,0,0,1-1.91.76,2.35,2.35,0,0,1-1.47-.44,2.66,2.66,0,0,1-.87-1.25l1.3-.62a1.8,1.8,0,0,0,.37.65,1,1,0,0,0,.7.26,1,1,0,0,0,.65-0.23,0.81,0.81,0,0,0,.23-0.53,0.73,0.73,0,0,0-.21-0.52,2.09,2.09,0,0,0-.68-0.42l-0.58-.28a3.38,3.38,0,0,1-.94-0.58,1.49,1.49,0,0,1-.49-1.15,2.13,2.13,0,0,1,.57-1.46,2.2,2.2,0,0,1,1.67-.65,2.13,2.13,0,0,1,1.26.36,2.34,2.34,0,0,1,.78.84Z" transform="translate(-370.55 -6031.41)"/><path class="cls-6" d="M539.46,6088.18h4.46v0.08a5.9,5.9,0,0,1-1.6,4.38,5.05,5.05,0,0,1-3.68,1.38,4.71,4.71,0,0,1-3.68-1.47,5.75,5.75,0,0,1,6.85-9.06,4.91,4.91,0,0,1,1.75,1.62l-1.31.92a4.39,4.39,0,0,0-1.33-1.23,3.64,3.64,0,0,0-1.91-.47,3.9,3.9,0,0,0-2.85,1.12,4.49,4.49,0,0,0,0,6,3.51,3.51,0,0,0,2.71,1.09,3.25,3.25,0,0,0,2.42-1,2.9,2.9,0,0,0,.91-1.83h-2.69v-1.52Z" transform="translate(-370.55 -6031.41)"/><path class="cls-6" d="M545.7,6087h1.59v0.62A2.76,2.76,0,0,1,548,6087a1.83,1.83,0,0,1,1-.23,2.36,2.36,0,0,1,1.25.32l-0.65,1.44a1.44,1.44,0,0,0-.81-0.24,1.24,1.24,0,0,0-1,.37,2.2,2.2,0,0,0-.44,1.57v3.53H545.7V6087Z" transform="translate(-370.55 -6031.41)"/><path class="cls-6" d="M555.73,6087h1.59v6.82h-1.59v-0.71a2.62,2.62,0,0,1-2,.92,3.38,3.38,0,0,1-3.31-3.63,3.34,3.34,0,0,1,3.32-3.58,2.49,2.49,0,0,1,2,1V6087Zm-3.73,3.44a2,2,0,0,0,1.9,2.17,2.2,2.2,0,0,0,0-4.36A2,2,0,0,0,552,6090.42Z" transform="translate(-370.55 -6031.41)"/><path class="cls-6" d="M564.32,6082h1.59v11.81h-1.59v-0.71a2.62,2.62,0,0,1-2,.92,3.38,3.38,0,0,1-3.31-3.63,3.34,3.34,0,0,1,3.32-3.58,2.49,2.49,0,0,1,2,1V6082Zm-3.73,8.43a2,2,0,0,0,1.9,2.17,2.2,2.2,0,0,0,0-4.36A2,2,0,0,0,560.59,6090.42Z" transform="translate(-370.55 -6031.41)"/><path class="cls-6" d="M576.64,6085.39a1.67,1.67,0,0,0-1.65-1.07,1.34,1.34,0,0,0-1.52,1.3,1.43,1.43,0,0,0,1.17,1.31l1.09,0.44c2,0.81,2.54,1.95,2.54,3.18a3.33,3.33,0,0,1-3.48,3.47,3.16,3.16,0,0,1-2.54-1.09,3.5,3.5,0,0,1-.91-2.11l1.64-.36a2.34,2.34,0,0,0,.45,1.38,1.71,1.71,0,0,0,1.41.65,1.74,1.74,0,0,0,1.78-1.82,2,2,0,0,0-1.56-1.85l-1-.44a3,3,0,0,1-2.2-2.74,2.92,2.92,0,0,1,3.16-2.85,3.19,3.19,0,0,1,2.17.73,3.67,3.67,0,0,1,.83,1.08Z" transform="translate(-370.55 -6031.41)"/><path class="cls-6" d="M581.68,6088.44v5.36h-1.59v-5.36h-0.67V6087h0.67v-2.5h1.59v2.5h1.21v1.46h-1.21Z" transform="translate(-370.55 -6031.41)"/><path class="cls-6" d="M585.55,6087v3.91a2,2,0,0,0,.29,1.23,1.38,1.38,0,0,0,2.07,0,2,2,0,0,0,.29-1.23V6087h1.59v4a2.85,2.85,0,0,1-.73,2.24,3.12,3.12,0,0,1-2.22.84,3,3,0,0,1-2.15-.84,2.85,2.85,0,0,1-.73-2.24v-4h1.59Z" transform="translate(-370.55 -6031.41)"/><path class="cls-6" d="M596.8,6082h1.59v11.81H596.8v-0.71a2.62,2.62,0,0,1-2,.92,3.38,3.38,0,0,1-3.31-3.63,3.34,3.34,0,0,1,3.32-3.58,2.49,2.49,0,0,1,2,1V6082Zm-3.73,8.43a2,2,0,0,0,1.9,2.17,2.2,2.2,0,0,0,0-4.36A2,2,0,0,0,593.07,6090.42Z" transform="translate(-370.55 -6031.41)"/><path class="cls-6" d="M606.5,6092.25a3.58,3.58,0,0,1-1.15,1.25,3.76,3.76,0,0,1-2,.52,3,3,0,0,1-2.3-.87,3.66,3.66,0,0,1-1-2.61,4,4,0,0,1,1.09-2.8,3.11,3.11,0,0,1,2.28-.92,2.94,2.94,0,0,1,2.19.89,4.1,4.1,0,0,1,1,2.88v0.19h-4.89a2.25,2.25,0,0,0,.58,1.38,1.62,1.62,0,0,0,1.21.44,1.67,1.67,0,0,0,1.09-.34,2.47,2.47,0,0,0,.63-0.75Zm-1.57-2.77a1.65,1.65,0,0,0-.49-0.92,1.65,1.65,0,0,0-2.19,0,1.79,1.79,0,0,0-.49.88h3.16Z" transform="translate(-370.55 -6031.41)"/><path class="cls-6" d="M608.18,6087h1.59v0.63a2.35,2.35,0,0,1,1.85-.81,2.28,2.28,0,0,1,2,.92,3.05,3.05,0,0,1,.42,1.9v4.18h-1.59V6090c0-1.73-.65-1.78-1.25-1.78s-1.44.1-1.44,2.3v3.27h-1.59V6087Z" transform="translate(-370.55 -6031.41)"/><path class="cls-6" d="M617.69,6088.44v5.36H616.1v-5.36h-0.67V6087h0.67v-2.5h1.59v2.5h1.21v1.46h-1.21Z" transform="translate(-370.55 -6031.41)"/><path class="cls-6" d="M623,6088.78a1.14,1.14,0,0,0-1-.58,0.67,0.67,0,0,0-.49.18,0.51,0.51,0,0,0-.15.36,0.43,0.43,0,0,0,.23.39c0.1,0.07.19,0.1,0.53,0.28l0.81,0.4a3.27,3.27,0,0,1,1,.63,1.68,1.68,0,0,1,.5,1.26,2.27,2.27,0,0,1-.6,1.56,2.44,2.44,0,0,1-1.91.76,2.35,2.35,0,0,1-1.47-.44,2.66,2.66,0,0,1-.87-1.25l1.3-.62a1.8,1.8,0,0,0,.37.65,1,1,0,0,0,.7.26,1,1,0,0,0,.65-0.23,0.81,0.81,0,0,0,.23-0.53,0.73,0.73,0,0,0-.21-0.52,2.09,2.09,0,0,0-.68-0.42l-0.58-.28a3.38,3.38,0,0,1-.94-0.58,1.49,1.49,0,0,1-.49-1.15,2.13,2.13,0,0,1,.57-1.46,2.2,2.2,0,0,1,1.67-.65,2.13,2.13,0,0,1,1.26.36,2.34,2.34,0,0,1,.78.84Z" transform="translate(-370.55 -6031.41)"/><path class="cls-6" d="M647.58,6064.71V6074h-1.65v-9.25h-2.48v-1.56h6.61v1.56h-2.48Z" transform="translate(-370.55 -6031.41)"/><path class="cls-6" d="M656.68,6072.4a3.57,3.57,0,0,1-1.15,1.25,3.75,3.75,0,0,1-2,.52,3,3,0,0,1-2.3-.87,3.66,3.66,0,0,1-1-2.61,4,4,0,0,1,1.09-2.8,3.11,3.11,0,0,1,2.28-.92,2.94,2.94,0,0,1,2.19.89,4.1,4.1,0,0,1,1,2.88v0.19h-4.89a2.25,2.25,0,0,0,.58,1.38,1.62,1.62,0,0,0,1.22.44,1.67,1.67,0,0,0,1.09-.34,2.47,2.47,0,0,0,.63-0.75Zm-1.57-2.77a1.65,1.65,0,0,0-.49-0.92,1.52,1.52,0,0,0-1.07-.39,1.53,1.53,0,0,0-1.12.44,1.79,1.79,0,0,0-.49.88h3.16Z" transform="translate(-370.55 -6031.41)"/><path class="cls-6" d="M658.37,6067.14H660v0.63a2.35,2.35,0,0,1,1.85-.81,2.28,2.28,0,0,1,2,.92,3.05,3.05,0,0,1,.42,1.9V6074h-1.59v-3.79c0-1.73-.65-1.78-1.25-1.78s-1.44.1-1.44,2.3V6074h-1.59v-6.82Z" transform="translate(-370.55 -6031.41)"/><path class="cls-6" d="M667.83,6067.14V6071a2,2,0,0,0,.29,1.23,1.38,1.38,0,0,0,2.07,0,2,2,0,0,0,.29-1.23v-3.91h1.59v4a2.85,2.85,0,0,1-.73,2.24,3.12,3.12,0,0,1-2.22.84,3,3,0,0,1-2.16-.84,2.85,2.85,0,0,1-.73-2.24v-4h1.59Z" transform="translate(-370.55 -6031.41)"/><path class="cls-6" d="M674.08,6067.14h1.59v0.62a2.76,2.76,0,0,1,.66-0.57,1.83,1.83,0,0,1,1-.23,2.36,2.36,0,0,1,1.25.32l-0.65,1.44a1.44,1.44,0,0,0-.81-0.24,1.24,1.24,0,0,0-1,.37,2.2,2.2,0,0,0-.44,1.57V6074h-1.59v-6.82Z" transform="translate(-370.55 -6031.41)"/><path class="cls-6" d="M685.06,6072.4a3.58,3.58,0,0,1-1.15,1.25,3.76,3.76,0,0,1-2,.52,3,3,0,0,1-2.3-.87,3.66,3.66,0,0,1-1-2.61,4,4,0,0,1,1.09-2.8A3.11,3.11,0,0,1,682,6067a2.94,2.94,0,0,1,2.19.89,4.1,4.1,0,0,1,1,2.88v0.19h-4.89a2.25,2.25,0,0,0,.58,1.38,1.62,1.62,0,0,0,1.21.44,1.67,1.67,0,0,0,1.09-.34,2.47,2.47,0,0,0,.63-0.75Zm-1.57-2.77a1.65,1.65,0,0,0-.49-0.92,1.52,1.52,0,0,0-1.07-.39,1.53,1.53,0,0,0-1.12.44,1.79,1.79,0,0,0-.49.88h3.16Z" transform="translate(-370.55 -6031.41)"/><path class="cls-6" d="M687.41,6069.68h3.89v1.65h-3.89v-1.65Z" transform="translate(-370.55 -6031.41)"/><path class="cls-6" d="M699.22,6072.4a3.57,3.57,0,0,1-1.15,1.25,3.75,3.75,0,0,1-2,.52,3,3,0,0,1-2.3-.87,3.66,3.66,0,0,1-1-2.61,4,4,0,0,1,1.09-2.8,3.11,3.11,0,0,1,2.28-.92,2.94,2.94,0,0,1,2.19.89,4.1,4.1,0,0,1,1,2.88v0.19h-4.89a2.25,2.25,0,0,0,.58,1.38,1.62,1.62,0,0,0,1.22.44,1.67,1.67,0,0,0,1.09-.34,2.47,2.47,0,0,0,.63-0.75Zm-1.57-2.77a1.65,1.65,0,0,0-.49-0.92,1.52,1.52,0,0,0-1.07-.39,1.53,1.53,0,0,0-1.12.44,1.79,1.79,0,0,0-.49.88h3.16Z" transform="translate(-370.55 -6031.41)"/><path class="cls-6" d="M702.51,6062.14V6074h-1.59v-11.81h1.59Z" transform="translate(-370.55 -6031.41)"/><path class="cls-6" d="M705.31,6063.29a1,1,0,1,1-1,1A1,1,0,0,1,705.31,6063.29Zm0.79,3.84V6074h-1.59v-6.82h1.59Z" transform="translate(-370.55 -6031.41)"/><path class="cls-6" d="M713.11,6067.14h1.59v6.27c0,1.6-.18,2.75-1.12,3.55a3.47,3.47,0,0,1-2.27.73,3,3,0,0,1-2.24-.84,3.84,3.84,0,0,1-1-2.12h1.54a2.26,2.26,0,0,0,.5,1.07,1.62,1.62,0,0,0,1.23.47,1.71,1.71,0,0,0,1.25-.45,2.25,2.25,0,0,0,.52-1.72v-0.89a2.47,2.47,0,0,1-2.07,1,2.89,2.89,0,0,1-2.25-.92,3.86,3.86,0,0,1-1-2.71,3.62,3.62,0,0,1,1-2.64,3.1,3.1,0,0,1,2.32-.94,2.57,2.57,0,0,1,2,.92v-0.75Zm-3,1.7a2.37,2.37,0,0,0-.7,1.73,2.34,2.34,0,0,0,.68,1.72,1.86,1.86,0,0,0,1.22.45,1.73,1.73,0,0,0,1.33-.55,2.52,2.52,0,0,0,0-3.32,1.69,1.69,0,0,0-1.28-.49A1.64,1.64,0,0,0,710.08,6068.84Z" transform="translate(-370.55 -6031.41)"/><path class="cls-6" d="M717.49,6063.29a1,1,0,1,1-1,1A1,1,0,0,1,717.49,6063.29Zm0.79,3.84V6074H716.7v-6.82h1.59Z" transform="translate(-370.55 -6031.41)"/><path class="cls-6" d="M721.88,6067.93a2.49,2.49,0,0,1,2-1,3.33,3.33,0,0,1,3.32,3.58,3.38,3.38,0,0,1-3.31,3.63,2.62,2.62,0,0,1-2-.92V6074H720.3v-11.81h1.59v5.79Zm-0.1,2.66a2,2,0,0,0,1.93,2.16,2.2,2.2,0,0,0,0-4.36A2,2,0,0,0,721.79,6070.59Z" transform="translate(-370.55 -6031.41)"/><path class="cls-6" d="M730.47,6062.14V6074h-1.59v-11.81h1.59Z" transform="translate(-370.55 -6031.41)"/><path class="cls-6" d="M738.59,6072.4a3.58,3.58,0,0,1-1.15,1.25,3.76,3.76,0,0,1-2,.52,3,3,0,0,1-2.3-.87,3.66,3.66,0,0,1-1-2.61,4,4,0,0,1,1.09-2.8,3.11,3.11,0,0,1,2.28-.92,2.94,2.94,0,0,1,2.19.89,4.1,4.1,0,0,1,1,2.88v0.19h-4.89a2.25,2.25,0,0,0,.58,1.38,1.62,1.62,0,0,0,1.21.44,1.67,1.67,0,0,0,1.09-.34,2.47,2.47,0,0,0,.63-0.75Zm-1.57-2.77a1.65,1.65,0,0,0-.49-0.92,1.52,1.52,0,0,0-1.07-.39,1.53,1.53,0,0,0-1.12.44,1.79,1.79,0,0,0-.49.88H737Z" transform="translate(-370.55 -6031.41)"/><path class="cls-6" d="M677,6084.15h-3.76v2.74h3.63v1.56h-3.63v5h-1.65v-10.81H677v1.56Z" transform="translate(-370.55 -6031.41)"/><path class="cls-6" d="M683.17,6086.58h1.59v6.82h-1.59v-0.71a2.62,2.62,0,0,1-2,.92,3.38,3.38,0,0,1-3.31-3.63,3.34,3.34,0,0,1,3.32-3.58,2.49,2.49,0,0,1,2,1v-0.79Zm-3.73,3.44a2,2,0,0,0,1.9,2.17,2.2,2.2,0,0,0,0-4.36A2,2,0,0,0,679.44,6090Z" transform="translate(-370.55 -6031.41)"/><path class="cls-6" d="M692,6088.67a2.68,2.68,0,0,0-1.93-.84,2,2,0,0,0-1.51.6A2.18,2.18,0,0,0,688,6090a2.26,2.26,0,0,0,.62,1.64,2.06,2.06,0,0,0,1.44.55,2.66,2.66,0,0,0,2-.87v1.77a3.73,3.73,0,0,1-2.07.54,3.32,3.32,0,0,1-2.59-1,3.55,3.55,0,0,1-1-2.56,3.64,3.64,0,0,1,1-2.64,3.71,3.71,0,0,1,2.74-1,3.66,3.66,0,0,1,1.86.49v1.78Z" transform="translate(-370.55 -6031.41)"/><path class="cls-6" d="M695.16,6086.58v3.91a2,2,0,0,0,.29,1.23,1.38,1.38,0,0,0,2.07,0,2,2,0,0,0,.29-1.23v-3.91h1.59v4a2.85,2.85,0,0,1-.73,2.24,3.12,3.12,0,0,1-2.22.84,3,3,0,0,1-2.16-.84,2.85,2.85,0,0,1-.73-2.24v-4h1.59Z" transform="translate(-370.55 -6031.41)"/><path class="cls-6" d="M703,6081.58v11.81h-1.59v-11.81H703Z" transform="translate(-370.55 -6031.41)"/><path class="cls-6" d="M706.64,6088v5.36h-1.59V6088h-0.67v-1.46h0.67v-2.5h1.59v2.5h1.21V6088h-1.21Z" transform="translate(-370.55 -6031.41)"/><path class="cls-6" d="M711.26,6092.33l-2.92-5.75h1.91l1.94,4,2-4H716l-5.43,10.53h-1.78Z" transform="translate(-370.55 -6031.41)"/><path class="cls-6" d="M762.44,6084.55v9.25h-1.65v-9.25h-2.48V6083h6.61v1.56h-2.48Z" transform="translate(-370.55 -6031.41)"/><path class="cls-6" d="M771.54,6092.25a3.57,3.57,0,0,1-1.15,1.25,3.75,3.75,0,0,1-2,.52,3,3,0,0,1-2.3-.87,3.66,3.66,0,0,1-1-2.61,4,4,0,0,1,1.09-2.8,3.11,3.11,0,0,1,2.28-.92,2.94,2.94,0,0,1,2.19.89,4.1,4.1,0,0,1,1,2.88v0.19H766.7a2.25,2.25,0,0,0,.58,1.38,1.62,1.62,0,0,0,1.22.44,1.67,1.67,0,0,0,1.09-.34,2.47,2.47,0,0,0,.63-0.75Zm-1.57-2.77a1.65,1.65,0,0,0-.49-0.92,1.65,1.65,0,0,0-2.19,0,1.79,1.79,0,0,0-.49.88H770Z" transform="translate(-370.55 -6031.41)"/><path class="cls-6" d="M773.23,6087h1.59v0.63a2.35,2.35,0,0,1,1.85-.81,2.28,2.28,0,0,1,2,.92,3.05,3.05,0,0,1,.42,1.9v4.18H777.5V6090c0-1.73-.65-1.78-1.25-1.78s-1.44.1-1.44,2.3v3.27h-1.59V6087Z" transform="translate(-370.55 -6031.41)"/><path class="cls-6" d="M782.69,6087v3.91a2,2,0,0,0,.29,1.23,1.38,1.38,0,0,0,2.07,0,2,2,0,0,0,.29-1.23V6087h1.59v4a2.85,2.85,0,0,1-.73,2.24,3.12,3.12,0,0,1-2.22.84,3,3,0,0,1-2.16-.84,2.85,2.85,0,0,1-.73-2.24v-4h1.59Z" transform="translate(-370.55 -6031.41)"/><path class="cls-6" d="M788.94,6087h1.59v0.62a2.76,2.76,0,0,1,.66-0.57,1.83,1.83,0,0,1,1-.23,2.36,2.36,0,0,1,1.25.32l-0.65,1.44a1.44,1.44,0,0,0-.81-0.24,1.24,1.24,0,0,0-1,.37,2.2,2.2,0,0,0-.44,1.57v3.53h-1.59V6087Z" transform="translate(-370.55 -6031.41)"/><path class="cls-6" d="M799.93,6092.25a3.58,3.58,0,0,1-1.15,1.25,3.76,3.76,0,0,1-2,.52,3,3,0,0,1-2.3-.87,3.66,3.66,0,0,1-1-2.61,4,4,0,0,1,1.09-2.8,3.11,3.11,0,0,1,2.28-.92,2.94,2.94,0,0,1,2.19.89,4.1,4.1,0,0,1,1,2.88v0.19h-4.89a2.25,2.25,0,0,0,.58,1.38,1.62,1.62,0,0,0,1.21.44,1.67,1.67,0,0,0,1.09-.34,2.47,2.47,0,0,0,.63-0.75Zm-1.57-2.77a1.65,1.65,0,0,0-.49-0.92,1.65,1.65,0,0,0-2.19,0,1.79,1.79,0,0,0-.49.88h3.16Z" transform="translate(-370.55 -6031.41)"/><path class="cls-6" d="M806.62,6082h1.59v11.81h-1.59v-0.71a2.62,2.62,0,0,1-2,.92,3.38,3.38,0,0,1-3.31-3.63,3.34,3.34,0,0,1,3.32-3.58,2.49,2.49,0,0,1,2,1V6082Zm-3.73,8.43a2,2,0,0,0,1.9,2.17,2.2,2.2,0,0,0,0-4.36A2,2,0,0,0,802.89,6090.42Z" transform="translate(-370.55 -6031.41)"/><path class="cls-6" d="M819.69,6084.55h-3.76v2.74h3.63v1.56h-3.63v5h-1.65V6083h5.41v1.56Z" transform="translate(-370.55 -6031.41)"/><path class="cls-6" d="M825.86,6087h1.59v6.82h-1.59v-0.71a2.62,2.62,0,0,1-2,.92,3.38,3.38,0,0,1-3.31-3.63,3.34,3.34,0,0,1,3.32-3.58,2.49,2.49,0,0,1,2,1V6087Zm-3.73,3.44a2,2,0,0,0,1.9,2.17,2.2,2.2,0,0,0,0-4.36A2,2,0,0,0,822.13,6090.42Z" transform="translate(-370.55 -6031.41)"/><path class="cls-6" d="M834.74,6089.07a2.68,2.68,0,0,0-1.93-.84,2,2,0,0,0-1.51.6,2.18,2.18,0,0,0-.58,1.57,2.26,2.26,0,0,0,.62,1.64,2.06,2.06,0,0,0,1.44.55,2.66,2.66,0,0,0,2-.87v1.77a3.73,3.73,0,0,1-2.07.54,3.32,3.32,0,0,1-2.59-1,3.55,3.55,0,0,1-1-2.56,3.64,3.64,0,0,1,1-2.64,3.71,3.71,0,0,1,2.74-1,3.66,3.66,0,0,1,1.86.49v1.78Z" transform="translate(-370.55 -6031.41)"/><path class="cls-6" d="M837.85,6087v3.91a2,2,0,0,0,.29,1.23,1.38,1.38,0,0,0,2.07,0,2,2,0,0,0,.29-1.23V6087h1.59v4a2.85,2.85,0,0,1-.73,2.24,3.12,3.12,0,0,1-2.22.84,3,3,0,0,1-2.15-.84,2.85,2.85,0,0,1-.73-2.24v-4h1.59Z" transform="translate(-370.55 -6031.41)"/><path class="cls-6" d="M845.69,6082v11.81H844.1V6082h1.59Z" transform="translate(-370.55 -6031.41)"/><path class="cls-6" d="M849.33,6088.44v5.36h-1.59v-5.36h-0.67V6087h0.67v-2.5h1.59v2.5h1.21v1.46h-1.21Z" transform="translate(-370.55 -6031.41)"/><path class="cls-6" d="M854,6092.73L851,6087h1.91l1.94,4,2-4h1.78l-5.43,10.53h-1.78Z" transform="translate(-370.55 -6031.41)"/><path class="cls-1" d="M465.16,6263.79l-0.67,38.58a38.59,38.59,0,0,1,.67-77.17v38.59Z" transform="translate(-370.55 -6031.41)"/><path class="cls-1" d="M579,6263.9l33.42,19.29a38.59,38.59,0,0,1-66.84-38.59A37.73,37.73,0,0,1,579,6225.31v38.59Z" transform="translate(-370.55 -6031.41)"/><path class="cls-1" d="M693.25,6263.9l38.38-4a38.59,38.59,0,1,1-42.41-34.34,38.12,38.12,0,0,1,4-.21v38.59Z" transform="translate(-370.55 -6031.41)"/><path class="cls-1" d="M807.55,6263.9l24.8-29.56A38.59,38.59,0,1,1,778,6239.1a37.53,37.53,0,0,1,29.56-13.78v38.59Z" transform="translate(-370.55 -6031.41)"/><path class="cls-2" d="M465.16,6263.79V6225.2a38.59,38.59,0,0,1,0,77.18h-0.67Z" transform="translate(-370.55 -6031.41)"/><path class="cls-3" d="M579,6263.9v-38.59a38.59,38.59,0,0,1,38.59,38.59,36.57,36.57,0,0,1-5.17,19.29Z" transform="translate(-370.55 -6031.41)"/><path class="cls-4" d="M693.25,6263.9v-38.59a38.3,38.3,0,0,1,38.38,34.55Z" transform="translate(-370.55 -6031.41)"/><path class="cls-5" d="M807.55,6263.9v-38.59a36.78,36.78,0,0,1,24.8,9Z" transform="translate(-370.55 -6031.41)"/><path class="cls-6" d="M378.24,6268.59H371l3.74-4.54c0.37-.45.94-1.17,1.3-1.69a2.68,2.68,0,0,0,.57-1.56,1.69,1.69,0,0,0-1.8-1.75,1.91,1.91,0,0,0-1.91,2h-1.59a3.89,3.89,0,0,1,.91-2.37,3.51,3.51,0,0,1,6,2.2,4,4,0,0,1-.78,2.27,21.93,21.93,0,0,1-1.54,1.94l-1.69,2h4v1.52Z" transform="translate(-370.55 -6031.41)"/><path class="cls-6" d="M381.79,6267.61a6.57,6.57,0,0,1-1.38-4.41,6.63,6.63,0,0,1,1.38-4.42,3.15,3.15,0,0,1,4.89,0,6.63,6.63,0,0,1,1.38,4.42,6.57,6.57,0,0,1-1.38,4.41A3.15,3.15,0,0,1,381.79,6267.61Zm1-7.65a7.38,7.38,0,0,0,0,6.46,1.64,1.64,0,0,0,2.92,0,7.38,7.38,0,0,0,0-6.46A1.64,1.64,0,0,0,382.77,6260Z" transform="translate(-370.55 -6031.41)"/><path class="cls-6" d="M391,6267.61a6.57,6.57,0,0,1-1.38-4.41,6.63,6.63,0,0,1,1.38-4.42,3.15,3.15,0,0,1,4.89,0,6.63,6.63,0,0,1,1.38,4.42,6.57,6.57,0,0,1-1.38,4.41A3.15,3.15,0,0,1,391,6267.61Zm1-7.65a7.38,7.38,0,0,0,0,6.46,1.64,1.64,0,0,0,2.92,0,7.38,7.38,0,0,0,0-6.46A1.64,1.64,0,0,0,392,6260Z" transform="translate(-370.55 -6031.41)"/><path class="cls-6" d="M400.19,6267.61a6.57,6.57,0,0,1-1.38-4.41,6.63,6.63,0,0,1,1.38-4.42,3.15,3.15,0,0,1,4.89,0,6.63,6.63,0,0,1,1.38,4.42,6.57,6.57,0,0,1-1.38,4.41A3.15,3.15,0,0,1,400.19,6267.61Zm1-7.65a7.38,7.38,0,0,0,0,6.46,1.64,1.64,0,0,0,2.92,0,7.38,7.38,0,0,0,0-6.46A1.64,1.64,0,0,0,401.18,6260Z" transform="translate(-370.55 -6031.41)"/><path class="cls-6" d="M378.24,6381.89H371l3.74-4.54c0.37-.45.94-1.17,1.3-1.69a2.68,2.68,0,0,0,.57-1.56,1.69,1.69,0,0,0-1.8-1.75,1.91,1.91,0,0,0-1.91,2h-1.59a3.89,3.89,0,0,1,.91-2.37,3.51,3.51,0,0,1,6,2.2,4,4,0,0,1-.78,2.27,21.93,21.93,0,0,1-1.54,1.94l-1.69,2h4v1.52Z" transform="translate(-370.55 -6031.41)"/><path class="cls-6" d="M381.79,6380.9a6.57,6.57,0,0,1-1.38-4.41,6.63,6.63,0,0,1,1.38-4.42,3.15,3.15,0,0,1,4.89,0,6.63,6.63,0,0,1,1.38,4.42,6.57,6.57,0,0,1-1.38,4.41A3.15,3.15,0,0,1,381.79,6380.9Zm1-7.65a7.38,7.38,0,0,0,0,6.46,1.64,1.64,0,0,0,2.92,0,7.38,7.38,0,0,0,0-6.46A1.64,1.64,0,0,0,382.77,6373.25Z" transform="translate(-370.55 -6031.41)"/><path class="cls-6" d="M391,6380.9a6.57,6.57,0,0,1-1.38-4.41,6.63,6.63,0,0,1,1.38-4.42,3.15,3.15,0,0,1,4.89,0,6.63,6.63,0,0,1,1.38,4.42,6.57,6.57,0,0,1-1.38,4.41A3.15,3.15,0,0,1,391,6380.9Zm1-7.65a7.38,7.38,0,0,0,0,6.46,1.64,1.64,0,0,0,2.92,0,7.38,7.38,0,0,0,0-6.46A1.64,1.64,0,0,0,392,6373.25Z" transform="translate(-370.55 -6031.41)"/><path class="cls-6" d="M405.76,6372.6h-3.34l-0.54,1.8c0.16,0,.34,0,0.5,0a3.57,3.57,0,0,1,2.5,1,3.68,3.68,0,0,1,1.05,2.77,3.88,3.88,0,0,1-1.1,2.87,4.64,4.64,0,0,1-5.07.62,3.93,3.93,0,0,1-1.28-1.25l1.25-1a2.33,2.33,0,0,0,2.24,1.31,2.29,2.29,0,0,0,1.65-.6,2.51,2.51,0,0,0,.7-1.83,2.29,2.29,0,0,0-.65-1.75,2.54,2.54,0,0,0-1.77-.6,3.36,3.36,0,0,0-1.26.23,4.41,4.41,0,0,0-1,.49l1.6-5.46h4.47v1.52Z" transform="translate(-370.55 -6031.41)"/><path class="cls-1" d="M464.1,6490.59L454.76,6528a38.59,38.59,0,0,1,9.34-76v38.59Z" transform="translate(-370.55 -6031.41)"/><path class="cls-1" d="M579,6490.7l21,32.36a38.59,38.59,0,1,1-42-64.72,37.56,37.56,0,0,1,21-6.23v38.59Z" transform="translate(-370.55 -6031.41)"/><path class="cls-1" d="M693.25,6490.7l22.68,31.22a38.59,38.59,0,0,1-45.36-62.44,37,37,0,0,1,22.68-7.37v38.59Z" transform="translate(-370.55 -6031.41)"/><path class="cls-1" d="M807.35,6490.7l29.56-24.8a38.59,38.59,0,1,1-54.36-4.76,37.41,37.41,0,0,1,24.8-9v38.59Z" transform="translate(-370.55 -6031.41)"/><path class="cls-2" d="M464.1,6490.59V6452a38.59,38.59,0,0,1,0,77.18,35.63,35.63,0,0,1-9.34-1.15Z" transform="translate(-370.55 -6031.41)"/><path class="cls-3" d="M579,6490.7v-38.59a38.59,38.59,0,0,1,38.59,38.59A37.17,37.17,0,0,1,600,6523.06Z" transform="translate(-370.55 -6031.41)"/><path class="cls-4" d="M693.25,6490.7v-38.59a38.59,38.59,0,0,1,38.59,38.59,37.42,37.42,0,0,1-15.91,31.22Z" transform="translate(-370.55 -6031.41)"/><path class="cls-5" d="M807.35,6490.7v-38.59a37,37,0,0,1,29.56,13.78Z" transform="translate(-370.55 -6031.41)"/><path class="cls-6" d="M381.09,6495.12h-7.26l3.74-4.54c0.37-.45.94-1.17,1.3-1.69a2.68,2.68,0,0,0,.57-1.56,1.69,1.69,0,0,0-1.8-1.75,1.91,1.91,0,0,0-1.91,2h-1.59a3.89,3.89,0,0,1,.91-2.37,3.51,3.51,0,0,1,6,2.2,4,4,0,0,1-.78,2.27,21.93,21.93,0,0,1-1.54,1.94l-1.69,2h4v1.52Z" transform="translate(-370.55 -6031.41)"/><path class="cls-6" d="M384.64,6494.13a6.57,6.57,0,0,1-1.38-4.41,6.63,6.63,0,0,1,1.38-4.42,3.15,3.15,0,0,1,4.89,0,6.63,6.63,0,0,1,1.38,4.42,6.57,6.57,0,0,1-1.38,4.41A3.15,3.15,0,0,1,384.64,6494.13Zm1-7.65a7.38,7.38,0,0,0,0,6.46,1.64,1.64,0,0,0,2.92,0,7.38,7.38,0,0,0,0-6.46A1.64,1.64,0,0,0,385.63,6486.48Z" transform="translate(-370.55 -6031.41)"/><path class="cls-6" d="M394.33,6485.83h-1.88l0.91-1.52H396v10.81h-1.65v-9.29Z" transform="translate(-370.55 -6031.41)"/><path class="cls-6" d="M400.42,6494.13a6.57,6.57,0,0,1-1.38-4.41,6.63,6.63,0,0,1,1.38-4.42,3.15,3.15,0,0,1,4.89,0,6.63,6.63,0,0,1,1.38,4.42,6.57,6.57,0,0,1-1.38,4.41A3.15,3.15,0,0,1,400.42,6494.13Zm1-7.65a7.38,7.38,0,0,0,0,6.46,1.64,1.64,0,0,0,2.92,0,7.38,7.38,0,0,0,0-6.46A1.64,1.64,0,0,0,401.41,6486.48Z" transform="translate(-370.55 -6031.41)"/><path class="cls-1" d="M464.09,6604l2.69,38.49a38.59,38.59,0,0,1-5.38-77c0.85-.06,1.84-0.09,2.69-0.09V6604Z" transform="translate(-370.55 -6031.41)"/><path class="cls-1" d="M579,6604.1l21,32.36a38.59,38.59,0,1,1-42-64.72,37.56,37.56,0,0,1,21-6.23v38.59Z" transform="translate(-370.55 -6031.41)"/><path class="cls-1" d="M693.25,6604.1l38.21-5.37a38.59,38.59,0,1,1-43.58-32.84,40.66,40.66,0,0,1,5.37-.38v38.59Z" transform="translate(-370.55 -6031.41)"/><path class="cls-1" d="M807.55,6604.1l35.78-14.46a38.59,38.59,0,1,1-50.23-21.32,37.4,37.4,0,0,1,14.46-2.81v38.59Z" transform="translate(-370.55 -6031.41)"/><path class="cls-2" d="M464.09,6604V6565.4a38.59,38.59,0,0,1,2.69,77.08Z" transform="translate(-370.55 -6031.41)"/><path class="cls-3" d="M579,6604.1v-38.59a38.59,38.59,0,0,1,38.59,38.59A37.17,37.17,0,0,1,600,6636.46Z" transform="translate(-370.55 -6031.41)"/><path class="cls-4" d="M693.25,6604.1v-38.59a38,38,0,0,1,38.21,33.22Z" transform="translate(-370.55 -6031.41)"/><path class="cls-5" d="M807.55,6604.1v-38.59a37.67,37.67,0,0,1,35.78,24.13Z" transform="translate(-370.55 -6031.41)"/><path class="cls-6" d="M381.53,6608.79h-7.26l3.74-4.54c0.37-.45.94-1.17,1.3-1.69a2.68,2.68,0,0,0,.57-1.56,1.69,1.69,0,0,0-1.8-1.75,1.91,1.91,0,0,0-1.91,2h-1.59a3.89,3.89,0,0,1,.91-2.37,3.51,3.51,0,0,1,6,2.2,4,4,0,0,1-.78,2.27,21.93,21.93,0,0,1-1.54,1.94l-1.69,2h4v1.52Z" transform="translate(-370.55 -6031.41)"/><path class="cls-6" d="M385.08,6607.81a6.57,6.57,0,0,1-1.38-4.41,6.63,6.63,0,0,1,1.38-4.42,3.15,3.15,0,0,1,4.89,0,6.63,6.63,0,0,1,1.38,4.42,6.57,6.57,0,0,1-1.38,4.41A3.15,3.15,0,0,1,385.08,6607.81Zm1-7.65a7.38,7.38,0,0,0,0,6.46,1.64,1.64,0,0,0,2.92,0,7.38,7.38,0,0,0,0-6.46A1.64,1.64,0,0,0,386.07,6600.16Z" transform="translate(-370.55 -6031.41)"/><path class="cls-6" d="M394.77,6599.51h-1.88l0.91-1.52h2.63v10.81h-1.65v-9.29Z" transform="translate(-370.55 -6031.41)"/><path class="cls-6" d="M399.4,6600.74a3.19,3.19,0,0,1,.92-2.11,3.27,3.27,0,0,1,2.37-.83,3,3,0,0,1,2.33.89,2.8,2.8,0,0,1,.78,2.06,2.61,2.61,0,0,1-.37,1.43,2.51,2.51,0,0,1-1,.91,2.23,2.23,0,0,1,1.07.86,3,3,0,0,1,.45,1.67,3.37,3.37,0,0,1-.92,2.41,3.6,3.6,0,0,1-2.64.94,3.12,3.12,0,0,1-2.42-.91,4,4,0,0,1-.92-2.2h1.59a2.1,2.1,0,0,0,.58,1.17,1.84,1.84,0,0,0,1.31.49,2,2,0,0,0,1.26-.45,2,2,0,0,0,.57-1.52,1.71,1.71,0,0,0-.49-1.28,1.92,1.92,0,0,0-1.39-.49h-0.32v-1.39h0.23a1.89,1.89,0,0,0,1.38-.47,1.61,1.61,0,0,0,.42-1.15,1.48,1.48,0,0,0-.42-1.08,1.59,1.59,0,0,0-1.15-.41,1.57,1.57,0,0,0-1.2.44,1.89,1.89,0,0,0-.45,1H399.4Z" transform="translate(-370.55 -6031.41)"/><path class="cls-1" d="M693.34,6717.39l36.7-11.92a38.59,38.59,0,1,1-48.62-24.77,36.68,36.68,0,0,1,11.92-1.89v38.59Z" transform="translate(-370.55 -6031.41)"/><path class="cls-1" d="M807,6717.39l37.27-10A38.59,38.59,0,1,1,797,6680.12a38.17,38.17,0,0,1,10-1.31v38.59Z" transform="translate(-370.55 -6031.41)"/><path class="cls-4" d="M693.34,6717.39V6678.8a38,38,0,0,1,36.7,26.66Z" transform="translate(-370.55 -6031.41)"/><path class="cls-5" d="M807,6717.39V6678.8a37.84,37.84,0,0,1,37.27,28.6Z" transform="translate(-370.55 -6031.41)"/><path class="cls-6" d="M381.63,6722.16h-7.26l3.74-4.54c0.37-.45.94-1.17,1.3-1.69a2.68,2.68,0,0,0,.57-1.56,1.69,1.69,0,0,0-1.8-1.75,1.91,1.91,0,0,0-1.91,2h-1.59a3.89,3.89,0,0,1,.91-2.37,3.51,3.51,0,0,1,6,2.2,4,4,0,0,1-.78,2.27,21.93,21.93,0,0,1-1.54,1.94l-1.69,2h4v1.52Z" transform="translate(-370.55 -6031.41)"/><path class="cls-6" d="M385.17,6721.17a6.57,6.57,0,0,1-1.38-4.41,6.63,6.63,0,0,1,1.38-4.42,3.15,3.15,0,0,1,4.89,0,6.63,6.63,0,0,1,1.38,4.42,6.57,6.57,0,0,1-1.38,4.41A3.15,3.15,0,0,1,385.17,6721.17Zm1-7.65a7.38,7.38,0,0,0,0,6.46,1.64,1.64,0,0,0,2.92,0,7.38,7.38,0,0,0,0-6.46A1.64,1.64,0,0,0,386.16,6713.53Z" transform="translate(-370.55 -6031.41)"/><path class="cls-6" d="M394.86,6712.88H393l0.91-1.52h2.63v10.81h-1.65v-9.29Z" transform="translate(-370.55 -6031.41)"/><path class="cls-6" d="M405.91,6712.88h-3.34l-0.54,1.8c0.16,0,.34,0,0.5,0a3.57,3.57,0,0,1,2.5,1,3.68,3.68,0,0,1,1.05,2.77,3.88,3.88,0,0,1-1.1,2.87,4.64,4.64,0,0,1-5.07.62,3.93,3.93,0,0,1-1.28-1.25l1.25-1a2.33,2.33,0,0,0,2.24,1.31,2.29,2.29,0,0,0,1.65-.6,2.51,2.51,0,0,0,.7-1.83,2.29,2.29,0,0,0-.65-1.75,2.54,2.54,0,0,0-1.77-.6,3.36,3.36,0,0,0-1.26.23,4.41,4.41,0,0,0-1,.49l1.6-5.46h4.47v1.52Z" transform="translate(-370.55 -6031.41)"/></svg>